<svg width="507" height="78" viewBox="0 0 507 78" fill="none" xmlns="http://www.w3.org/2000/svg">
<path d="M0 57L249 20L506.5 37.5L335 78L0 57Z" fill="#BC7535"/>
<path d="M101.5 28.0674C89.802 33.0873 77 49.5674 77 49.5674L443 40.0674C443 40.0674 419.908 24.2835 403 19.5674C389.562 15.8191 381.451 15.5225 367.5 15.5674C353.937 15.6112 346.52 20.654 333 19.5674C319.445 18.4781 312.579 13.79 299.5 10.0674C285.828 6.17598 278.701 0.701963 264.5 0.0674452C253.272 -0.434223 247.039 1.95851 236 4.06745C219.111 7.29382 210.141 11.2411 193.5 15.5674C173.837 20.6795 163.199 25.8855 143 28.0674C126.887 29.808 116.393 21.6764 101.5 28.0674Z" fill="url(#paint0_linear_84_40)"/>
<defs>
<linearGradient id="paint0_linear_84_40" x1="260" y1="0" x2="260" y2="49.5674" gradientUnits="userSpaceOnUse">
<stop stop-color="#FFC28A"/>
<stop offset="0.734138" stop-color="#BC7535"/>
</linearGradient>
</defs>
</svg>
