<svg width="507" height="106" viewBox="0 0 507 106" fill="none" xmlns="http://www.w3.org/2000/svg">
<path d="M0 85L249 48L506.5 65.5L335 106L0 85Z" fill="#0E885C"/>
<path d="M124.761 22L162 71.5H87.5218L124.761 22Z" fill="url(#paint0_linear_84_38)"/>
<path d="M193 12L230.239 61.5H155.761L193 12Z" fill="url(#paint1_linear_84_38)"/>
<path d="M268.466 0.75L313.933 61.5H223L268.466 0.75Z" fill="url(#paint2_linear_84_38)"/>
<path d="M340.5 8.99999L379.038 60.75H301.962L340.5 8.99999Z" fill="url(#paint3_linear_84_38)"/>
<path d="M405.452 25.5L431.866 60.75H379.038L405.452 25.5Z" fill="url(#paint4_linear_84_38)"/>
<defs>
<linearGradient id="paint0_linear_84_38" x1="393.5" y1="30" x2="393.5" y2="60.9773" gradientUnits="userSpaceOnUse">
<stop stop-color="#19D290"/>
<stop offset="1" stop-color="#0E885C"/>
</linearGradient>
<linearGradient id="paint1_linear_84_38" x1="393.5" y1="30" x2="393.5" y2="60.9773" gradientUnits="userSpaceOnUse">
<stop stop-color="#19D290"/>
<stop offset="1" stop-color="#0E885C"/>
</linearGradient>
<linearGradient id="paint2_linear_84_38" x1="393.5" y1="30" x2="393.5" y2="60.9773" gradientUnits="userSpaceOnUse">
<stop stop-color="#19D290"/>
<stop offset="1" stop-color="#0E885C"/>
</linearGradient>
<linearGradient id="paint3_linear_84_38" x1="393.5" y1="30" x2="393.5" y2="60.9773" gradientUnits="userSpaceOnUse">
<stop stop-color="#19D290"/>
<stop offset="1" stop-color="#0E885C"/>
</linearGradient>
<linearGradient id="paint4_linear_84_38" x1="393.5" y1="30" x2="393.5" y2="60.9773" gradientUnits="userSpaceOnUse">
<stop stop-color="#19D290"/>
<stop offset="1" stop-color="#0E885C"/>
</linearGradient>
</defs>
</svg>
