<svg width="98" height="82" viewBox="0 0 98 82" fill="none" xmlns="http://www.w3.org/2000/svg">
<path d="M48.4244 0.842022L2.31836 26.692C1.7911 26.9889 1.35244 27.4198 1.04722 27.9409C0.742005 28.4619 0.58118 29.0544 0.581189 29.6576V60.4364C0.576655 61.1272 0.783656 61.8031 1.1746 62.3738C1.56554 62.9445 2.12184 63.3829 2.76935 63.6307L49.1635 81.2079C49.961 81.5178 50.8464 81.5178 51.644 81.2079L95.8082 63.6515C96.443 63.3993 96.9873 62.9633 97.3707 62.3998C97.754 61.8363 97.9589 61.1712 97.9587 60.4904V30.9179C97.9584 29.8783 97.6844 28.8569 97.1642 27.9556C96.644 27.0543 95.8957 26.3046 94.9939 25.7811L52.0448 0.866978C51.4957 0.54949 50.8729 0.380196 50.2379 0.375819C49.603 0.371443 48.9779 0.532135 48.4244 0.842022ZM93.3152 61.7257L51.502 77.2316C50.9742 77.4247 50.397 77.4379 49.8609 77.269L5.42104 61.6426C4.5274 61.3223 3.65882 60.9396 3.65882 59.9788V30.7681C3.65866 30.3716 3.7641 29.9821 3.96437 29.6395C4.16465 29.2968 4.45259 29.0131 4.79884 28.8174L49.1217 3.82424C49.4664 3.63026 49.8562 3.53006 50.252 3.53371C50.6478 3.53736 51.0357 3.64473 51.3767 3.84503L92.885 28.2892C93.3019 28.5662 93.6486 28.9357 93.8979 29.3688C94.1471 29.8018 94.2922 30.2865 94.3215 30.7848V60.8149C94.3215 61.3514 93.8037 61.5386 93.3152 61.7257Z" fill="url(#paint0_linear_57_35)"/>
<defs>
<linearGradient id="paint0_linear_57_35" x1="49.2679" y1="81.4283" x2="49.2679" y2="0.376177" gradientUnits="userSpaceOnUse">
<stop offset="0.03" stop-color="#EAE8FF"/>
<stop offset="0.04" stop-color="#E9E6FE"/>
<stop offset="0.39" stop-color="#D796E2"/>
<stop offset="0.68" stop-color="#CA5BCD"/>
<stop offset="0.89" stop-color="#C237C0"/>
<stop offset="1" stop-color="#BF29BB"/>
</linearGradient>
</defs>
</svg>
