<svg width="422" height="471" viewBox="0 0 422 471" fill="none" xmlns="http://www.w3.org/2000/svg">
<path d="M287.981 9.73657C290.67 12.2683 297 13.3274 297 13.3274C297 13.3274 290.619 15.0843 287.981 17.8849C285.287 20.7459 284.329 27 284.329 27C284.329 27 282.641 20.8235 279.857 17.8849C277.683 15.5902 273 13.3274 273 13.3274C273 13.3274 277.669 11.7393 279.857 9.73657C283.03 6.83263 284.329 0 284.329 0C284.329 0 284.934 6.86706 287.981 9.73657Z" fill="white" fill-opacity="0.66"/>
<path d="M76.1557 407.473C79.138 409.314 90.0864 409.101 86.1601 410.085C79.719 411.698 79.0816 411.363 76.1557 413.4C73.1667 415.481 73.1867 426.178 71.5603 423.602C68.5544 418.841 70.232 415.538 67.1435 413.4L67.131 413.391C64.7271 411.728 63.3934 410.804 58.6782 410.085C55.4405 409.591 64.7159 408.929 67.1435 407.473C70.6636 405.36 69.4133 401.283 72.4191 397.414C74.4546 394.794 72.7755 405.385 76.1557 407.473Z" fill="white" fill-opacity="0.66"/>
<path d="M413 467C413 469.209 415.015 471 417.5 471C419.985 471 422 469.209 422 467C422 464.791 419.985 463 417.5 463C415.015 463 413 464.791 413 467Z" fill="white" fill-opacity="0.6"/>
<path d="M14.2853 56.5413C16.652 56.584 18.6264 54.9478 18.6952 52.8867C18.7641 50.8256 16.9013 49.1201 14.5346 49.0774C12.1679 49.0346 10.1935 50.6709 10.1246 52.732C10.0558 54.7931 11.9186 56.4986 14.2853 56.5413Z" fill="white" fill-opacity="0.6"/>
<path d="M0 136C0 125.507 8.50659 117 19 117H263C273.493 117 282 125.507 282 136V266C282 276.493 273.493 285 263 285H19C8.50659 285 0 276.493 0 266V136Z" fill="#0069A7"/>
<path d="M87 323.5C87 318.806 90.8056 315 95.5 315H187.5C192.194 315 196 318.806 196 323.5C196 328.194 192.194 332 187.5 332H95.5C90.8056 332 87 328.194 87 323.5Z" fill="#0069A7"/>
<path d="M14 149C14 138.507 22.5066 130 33 130H249C259.493 130 268 138.507 268 149V253C268 263.493 259.493 272 249 272H33C22.5066 272 14 263.493 14 253V149Z" fill="#42B8FF"/>
<path d="M141 199C141 195.686 143.686 193 147 193H179C182.314 193 185 195.686 185 199V247C185 250.314 182.314 253 179 253H147C143.686 253 141 250.314 141 247V199Z" fill="#999999"/>
<path d="M73 163C73 159.686 75.6863 157 79 157H145C148.314 157 151 159.686 151 163V211C151 214.314 148.314 217 145 217H79C75.6863 217 73 214.314 73 211V163Z" fill="#E3E3E3"/>
<path d="M127 279H156V318H127V279Z" fill="#0069A7"/>
<path d="M127 285H156V292H127V285Z" fill="#00436A"/>
<path d="M185 120C186.105 120 187 120.895 187 122C187 123.105 186.105 124 185 124H105C103.895 124 103 123.105 103 122C103 120.895 103.895 120 105 120H185Z" fill="#70C9FF"/>
</svg>
