<svg width="649" height="319" viewBox="0 0 649 319" fill="none" xmlns="http://www.w3.org/2000/svg">
<path d="M125.272 244.153C133.989 230.37 144.996 224.898 155.091 216.023L243.618 211C243.618 211 256.664 224.06 261.789 232.6C266.914 241.14 291.609 269.772 275.767 292.377C267.904 303.597 231.519 318.982 197 319C161.977 319.018 127.274 306.631 120 295.5C105.556 273.398 116.26 258.404 125.272 244.153Z" fill="#008DE1"/>
<path d="M255 180C255 212.585 227.913 239 194.5 239C174.347 239 163.995 238.777 153 224C145.766 214.277 134 192.931 134 180C134 147.415 161.087 121 194.5 121C227.913 121 255 147.415 255 180Z" fill="#FF4B9B"/>
<path d="M127.084 200C125.48 200 113.855 197.445 107.531 191.956C99.2296 184.749 96.9077 176.823 97.0028 165.812C97.1104 153.344 106.301 148.683 111.041 137.155C115.691 125.847 111.487 115.063 121.068 107.493C129.92 100.498 138.911 106.909 149.646 103.471C160.825 99.8896 164.641 91.3249 176.218 89.3934C192.109 86.7422 199.942 98.2604 215.826 100.957C227.064 102.865 235.402 97.1585 244.904 103.471C255.052 110.211 252.028 121.251 258.441 131.625C265.707 143.379 278.742 145.561 280.501 159.277C281.884 170.058 280.753 178.9 272.479 185.923C266.95 190.616 260.827 196.178 254.932 191.956C249.037 187.733 254.651 181.017 253.428 173.857C251.972 165.34 245.112 164.461 242.398 156.26C240.407 150.245 242.864 144.579 237.885 140.675C232.641 136.563 231.564 139.553 225.351 137.155C217.324 134.058 217.541 125.577 209.308 123.078C200.942 120.539 198.384 131.013 189.755 129.614C184.22 128.717 184.312 125.559 178.725 125.089C171.874 124.513 167.505 125.894 163.684 131.625C160.093 137.011 161.657 137.022 159.673 143.188C157.117 151.134 149.032 151.655 145.635 159.277C140.921 169.852 148.977 191.956 143.629 195.475C138.282 198.994 128.689 200 127.084 200Z" fill="#5800BD"/>
<path d="M198 214.5C193.5 214 180.086 209.596 183 204C185.719 198.779 192.113 200.947 198 201C204.47 201.058 211.747 198.145 214.5 204C217.417 210.205 202.5 215 198 214.5Z" fill="#DC1269"/>
<path d="M211 153C211 151.343 212.343 150 214 150H231C232.657 150 234 151.343 234 153V155C234 156.657 232.657 158 231 158H214C212.343 158 211 156.657 211 155V153Z" fill="#440093"/>
<path d="M158 154C158 152.343 159.343 151 161 151H178C179.657 151 181 152.343 181 154V156C181 157.657 179.657 159 178 159H161C159.343 159 158 157.657 158 156V154Z" fill="#440093"/>
<path d="M211 171.5C211 167.358 214.358 164 218.5 164H226.5C230.642 164 234 167.358 234 171.5C234 175.642 230.642 179 226.5 179H218.5C214.358 179 211 175.642 211 171.5Z" fill="#5800BD"/>
<path d="M158 172.5C158 168.358 161.358 165 165.5 165H173.5C177.642 165 181 168.358 181 172.5C181 176.642 177.642 180 173.5 180H165.5C161.358 180 158 176.642 158 172.5Z" fill="#5800BD"/>
<path d="M234.5 217.5C239.935 211.671 242.5 207 245.5 201C246.13 199.741 246.889 197.135 248 198C248.925 198.719 248.446 199.917 248 201C244.5 209.5 242.45 213.453 236 219.5C228 227 227.5 227.75 218 232.5C217 233 212.619 234.309 211.5 233.5C209.302 231.911 217.5 230 217.5 230C217.5 230 227.215 225.313 234.5 217.5Z" fill="#FF9EC9"/>
<path d="M243.5 109.5C237.773 105.675 232.412 106.798 227.133 105.236C226.025 104.908 223.862 104.728 224.257 103.54C224.585 102.551 225.591 103.005 226.54 102.948C234 102.5 238.867 101.289 245 106C252.607 111.843 249.577 117 254 125.5C254.473 126.408 256.654 130.069 256.304 131.252C255.616 133.578 252.716 130.451 251 127C249.284 123.549 251.176 114.626 243.5 109.5Z" fill="#B270FF"/>
<path d="M212 180.5C212 179.119 213.119 178 214.5 178H232.5C233.881 178 235 179.119 235 180.5C235 181.881 233.881 183 232.5 183H214.5C213.119 183 212 181.881 212 180.5Z" fill="#DC1269"/>
<path d="M159 181.5C159 180.119 160.119 179 161.5 179H179.5C180.881 179 182 180.119 182 181.5C182 182.881 180.881 184 179.5 184H161.5C160.119 184 159 182.881 159 181.5Z" fill="#DC1269"/>
<path d="M127 241C125.444 234 145 221.5 149 220C153 218.5 153.577 227.684 168.577 232.684C183.577 237.684 197.5 236.5 198.077 238.684C200.371 247.368 200.654 258.868 198.077 261.684C195.5 264.5 128.556 248 127 241Z" fill="#63B9EC"/>
<path d="M264.678 237.727C265.031 233.131 249.84 214.239 245.668 213.321C241.496 212.403 238.547 224.059 224.407 231.133C210.267 238.208 200.372 235.936 200.11 238.18C199.069 247.102 200.94 257.79 203.89 260.212C206.84 262.634 264.326 242.323 264.678 237.727Z" fill="#63B9EC"/>
<path d="M648.572 108.5C648.572 150.198 574.475 184 483.072 184C391.668 184 317.572 150.198 317.572 108.5C317.572 66.8025 391.668 33 483.072 33C574.475 33 648.572 66.8025 648.572 108.5Z" fill="#0069A7" fill-opacity="0.47"/>
<path d="M291.572 141L320.557 112L331.572 137.5L291.572 141Z" fill="#014A7D"/>
<path d="M345.226 99.7C345.458 99.7 345.661 99.787 345.835 99.961C346.028 100.135 346.125 100.348 346.125 100.599V119.101C346.105 119.352 345.999 119.565 345.806 119.739C345.632 119.913 345.429 120 345.197 120C344.926 120 344.704 119.913 344.53 119.739C344.375 119.565 344.298 119.352 344.298 119.101V100.599C344.298 100.348 344.385 100.135 344.559 99.961C344.733 99.787 344.955 99.7 345.226 99.7ZM358.827 99.7C359.097 99.7 359.31 99.787 359.465 99.961C359.639 100.135 359.726 100.348 359.726 100.599V119.101C359.706 119.352 359.61 119.565 359.436 119.739C359.281 119.913 359.068 120 358.798 120C358.546 120 358.334 119.913 358.16 119.739C357.986 119.565 357.899 119.352 357.899 119.101V100.599C357.899 100.348 357.986 100.135 358.16 99.961C358.353 99.787 358.575 99.7 358.827 99.7ZM345.081 108.777H358.856L358.827 110.459H344.965L345.081 108.777Z" fill="white"/>
<path d="M378.539 112.576C378.539 114.045 378.22 115.37 377.582 116.549C376.944 117.709 376.074 118.627 374.972 119.304C373.87 119.961 372.613 120.29 371.202 120.29C369.829 120.29 368.582 119.961 367.461 119.304C366.359 118.627 365.479 117.709 364.822 116.549C364.184 115.37 363.865 114.045 363.865 112.576C363.865 111.087 364.184 109.763 364.822 108.603C365.479 107.443 366.359 106.525 367.461 105.848C368.582 105.171 369.829 104.833 371.202 104.833C372.613 104.833 373.87 105.171 374.972 105.848C376.074 106.525 376.944 107.443 377.582 108.603C378.22 109.763 378.539 111.087 378.539 112.576ZM376.799 112.576C376.799 111.397 376.557 110.353 376.074 109.444C375.59 108.516 374.923 107.791 374.073 107.269C373.241 106.728 372.284 106.457 371.202 106.457C370.158 106.457 369.21 106.728 368.36 107.269C367.509 107.791 366.832 108.516 366.33 109.444C365.846 110.353 365.605 111.397 365.605 112.576C365.605 113.755 365.846 114.799 366.33 115.708C366.832 116.617 367.509 117.342 368.36 117.883C369.21 118.405 370.158 118.666 371.202 118.666C372.284 118.666 373.241 118.405 374.073 117.883C374.923 117.342 375.59 116.617 376.074 115.708C376.557 114.799 376.799 113.755 376.799 112.576Z" fill="white"/>
<path d="M399.84 104.862C400.052 104.862 400.246 104.939 400.42 105.094C400.613 105.249 400.71 105.461 400.71 105.732C400.71 105.79 400.7 105.858 400.681 105.935C400.661 106.012 400.642 106.07 400.623 106.109L396.157 119.449C396.079 119.623 395.954 119.768 395.78 119.884C395.625 119.981 395.461 120.019 395.287 120C394.939 119.981 394.678 119.797 394.504 119.449L390.415 109.821L390.937 109.937L387.312 119.449C387.157 119.797 386.896 119.981 386.529 120C386.355 120.019 386.181 119.981 386.007 119.884C385.833 119.768 385.717 119.623 385.659 119.449L381.077 106.109C381.019 105.974 380.99 105.848 380.99 105.732C380.99 105.481 381.067 105.278 381.222 105.123C381.396 104.949 381.618 104.862 381.889 104.862C382.063 104.862 382.217 104.91 382.353 105.007C382.507 105.104 382.614 105.249 382.672 105.442L386.79 117.796L386.239 117.767L389.98 108.342C390.134 107.975 390.405 107.791 390.792 107.791C390.985 107.791 391.149 107.839 391.285 107.936C391.42 108.033 391.526 108.168 391.604 108.342L395.577 117.796L394.939 117.825L399.028 105.442C399.144 105.055 399.414 104.862 399.84 104.862Z" fill="white"/>
<path d="M424.124 98.54C424.375 98.54 424.578 98.627 424.733 98.801C424.907 98.9557 424.994 99.1587 424.994 99.41V119.13C424.994 119.362 424.907 119.565 424.733 119.739C424.559 119.913 424.356 120 424.124 120C423.873 120 423.66 119.913 423.486 119.739C423.331 119.565 423.254 119.362 423.254 119.13V115.679L423.747 115.273C423.747 115.814 423.602 116.385 423.312 116.984C423.022 117.564 422.606 118.105 422.065 118.608C421.543 119.111 420.924 119.517 420.209 119.826C419.513 120.135 418.759 120.29 417.947 120.29C416.652 120.29 415.482 119.952 414.438 119.275C413.413 118.598 412.601 117.68 412.002 116.52C411.403 115.36 411.103 114.036 411.103 112.547C411.103 111.078 411.403 109.763 412.002 108.603C412.601 107.424 413.413 106.505 414.438 105.848C415.463 105.171 416.623 104.833 417.918 104.833C418.711 104.833 419.465 104.978 420.18 105.268C420.895 105.558 421.524 105.954 422.065 106.457C422.626 106.96 423.061 107.54 423.37 108.197C423.699 108.835 423.863 109.502 423.863 110.198L423.254 109.763V99.41C423.254 99.178 423.331 98.975 423.486 98.801C423.66 98.627 423.873 98.54 424.124 98.54ZM418.092 118.666C419.136 118.666 420.045 118.405 420.818 117.883C421.611 117.342 422.229 116.617 422.674 115.708C423.138 114.78 423.37 113.726 423.37 112.547C423.37 111.387 423.138 110.353 422.674 109.444C422.229 108.516 421.611 107.791 420.818 107.269C420.025 106.728 419.117 106.457 418.092 106.457C417.087 106.457 416.178 106.728 415.366 107.269C414.573 107.791 413.945 108.516 413.481 109.444C413.036 110.353 412.814 111.387 412.814 112.547C412.814 113.707 413.036 114.751 413.481 115.679C413.945 116.607 414.573 117.342 415.366 117.883C416.178 118.405 417.087 118.666 418.092 118.666Z" fill="white"/>
<path d="M443.364 112.576C443.364 114.045 443.045 115.37 442.407 116.549C441.769 117.709 440.899 118.627 439.797 119.304C438.695 119.961 437.438 120.29 436.027 120.29C434.654 120.29 433.407 119.961 432.286 119.304C431.184 118.627 430.304 117.709 429.647 116.549C429.009 115.37 428.69 114.045 428.69 112.576C428.69 111.087 429.009 109.763 429.647 108.603C430.304 107.443 431.184 106.525 432.286 105.848C433.407 105.171 434.654 104.833 436.027 104.833C437.438 104.833 438.695 105.171 439.797 105.848C440.899 106.525 441.769 107.443 442.407 108.603C443.045 109.763 443.364 111.087 443.364 112.576ZM441.624 112.576C441.624 111.397 441.382 110.353 440.899 109.444C440.416 108.516 439.749 107.791 438.898 107.269C438.067 106.728 437.11 106.457 436.027 106.457C434.983 106.457 434.036 106.728 433.185 107.269C432.334 107.791 431.658 108.516 431.155 109.444C430.672 110.353 430.43 111.397 430.43 112.576C430.43 113.755 430.672 114.799 431.155 115.708C431.658 116.617 432.334 117.342 433.185 117.883C434.036 118.405 434.983 118.666 436.027 118.666C437.11 118.666 438.067 118.405 438.898 117.883C439.749 117.342 440.416 116.617 440.899 115.708C441.382 114.799 441.624 113.755 441.624 112.576Z" fill="white"/>
<path d="M453.761 120.29C452.272 120.29 450.957 119.971 449.817 119.333C448.676 118.695 447.787 117.806 447.149 116.665C446.511 115.524 446.192 114.19 446.192 112.663C446.192 111.02 446.511 109.618 447.149 108.458C447.806 107.298 448.647 106.409 449.672 105.79C450.716 105.152 451.818 104.833 452.978 104.833C453.829 104.833 454.65 104.988 455.443 105.297C456.255 105.587 456.97 106.032 457.589 106.631C458.227 107.211 458.729 107.926 459.097 108.777C459.483 109.628 459.696 110.614 459.735 111.735C459.715 111.967 459.619 112.17 459.445 112.344C459.271 112.499 459.068 112.576 458.836 112.576H447.207L446.859 111.01H458.285L457.908 111.358V110.778C457.831 109.869 457.54 109.096 457.038 108.458C456.535 107.82 455.926 107.337 455.211 107.008C454.496 106.679 453.751 106.515 452.978 106.515C452.398 106.515 451.798 106.631 451.18 106.863C450.581 107.095 450.03 107.462 449.527 107.965C449.044 108.448 448.647 109.077 448.338 109.85C448.029 110.604 447.874 111.503 447.874 112.547C447.874 113.688 448.106 114.722 448.57 115.65C449.034 116.578 449.701 117.313 450.571 117.854C451.46 118.395 452.514 118.666 453.732 118.666C454.409 118.666 455.018 118.569 455.559 118.376C456.1 118.183 456.574 117.931 456.98 117.622C457.386 117.293 457.724 116.955 457.995 116.607C458.208 116.433 458.42 116.346 458.633 116.346C458.826 116.346 458.991 116.423 459.126 116.578C459.281 116.733 459.358 116.907 459.358 117.1C459.358 117.332 459.261 117.535 459.068 117.709C458.488 118.405 457.734 119.014 456.806 119.536C455.878 120.039 454.863 120.29 453.761 120.29Z" fill="white"/>
<path d="M462.618 117.651C462.464 117.419 462.386 117.197 462.386 116.984C462.406 116.752 462.531 116.568 462.763 116.433C462.918 116.298 463.092 116.24 463.285 116.259C463.498 116.278 463.691 116.375 463.865 116.549C464.387 117.226 465.016 117.777 465.75 118.202C466.504 118.608 467.394 118.811 468.418 118.811C468.96 118.811 469.491 118.724 470.013 118.55C470.555 118.357 470.999 118.076 471.347 117.709C471.695 117.322 471.869 116.839 471.869 116.259C471.869 115.66 471.695 115.176 471.347 114.809C470.999 114.442 470.545 114.152 469.984 113.939C469.443 113.726 468.863 113.543 468.244 113.388C467.587 113.214 466.949 113.021 466.33 112.808C465.712 112.576 465.161 112.296 464.677 111.967C464.213 111.619 463.836 111.203 463.546 110.72C463.256 110.237 463.111 109.647 463.111 108.951C463.111 108.139 463.334 107.424 463.778 106.805C464.223 106.186 464.822 105.703 465.576 105.355C466.35 105.007 467.22 104.833 468.186 104.833C468.67 104.833 469.192 104.901 469.752 105.036C470.313 105.152 470.864 105.355 471.405 105.645C471.947 105.935 472.43 106.331 472.855 106.834C473.029 107.008 473.116 107.211 473.116 107.443C473.116 107.656 473.02 107.849 472.826 108.023C472.672 108.139 472.488 108.197 472.275 108.197C472.082 108.197 471.918 108.12 471.782 107.965C471.318 107.443 470.767 107.047 470.129 106.776C469.491 106.505 468.805 106.37 468.07 106.37C467.51 106.37 466.978 106.467 466.475 106.66C465.992 106.834 465.586 107.105 465.257 107.472C464.929 107.839 464.764 108.323 464.764 108.922C464.803 109.483 464.996 109.937 465.344 110.285C465.712 110.633 466.185 110.923 466.765 111.155C467.365 111.387 468.032 111.6 468.766 111.793C469.385 111.948 469.975 112.131 470.535 112.344C471.115 112.557 471.618 112.827 472.043 113.156C472.488 113.465 472.836 113.862 473.087 114.345C473.358 114.828 473.493 115.437 473.493 116.172C473.493 117.023 473.252 117.757 472.768 118.376C472.304 118.995 471.676 119.468 470.883 119.797C470.091 120.126 469.211 120.29 468.244 120.29C467.2 120.29 466.185 120.087 465.199 119.681C464.233 119.275 463.372 118.598 462.618 117.651Z" fill="white"/>
<path d="M484.026 105.239H490.783C491.015 105.239 491.208 105.326 491.363 105.5C491.517 105.655 491.595 105.848 491.595 106.08C491.595 106.293 491.517 106.476 491.363 106.631C491.208 106.786 491.015 106.863 490.783 106.863H484.026C483.794 106.863 483.591 106.786 483.417 106.631C483.262 106.457 483.185 106.264 483.185 106.051C483.185 105.819 483.262 105.626 483.417 105.471C483.591 105.316 483.794 105.239 484.026 105.239ZM487.013 101.15C487.264 101.15 487.467 101.237 487.622 101.411C487.796 101.585 487.883 101.788 487.883 102.02V116.578C487.883 117.119 487.95 117.525 488.086 117.796C488.24 118.067 488.434 118.25 488.666 118.347C488.898 118.424 489.13 118.463 489.362 118.463C489.516 118.463 489.652 118.444 489.768 118.405C489.903 118.347 490.048 118.318 490.203 118.318C490.377 118.318 490.522 118.386 490.638 118.521C490.773 118.656 490.841 118.83 490.841 119.043C490.841 119.314 490.686 119.546 490.377 119.739C490.067 119.913 489.7 120 489.275 120C489.101 120 488.84 119.99 488.492 119.971C488.144 119.932 487.786 119.826 487.419 119.652C487.051 119.459 486.742 119.13 486.491 118.666C486.259 118.202 486.143 117.535 486.143 116.665V102.02C486.143 101.788 486.22 101.585 486.375 101.411C486.549 101.237 486.761 101.15 487.013 101.15Z" fill="white"/>
<path d="M501.567 105.065C502.785 105.065 503.771 105.326 504.525 105.848C505.279 106.37 505.83 107.076 506.178 107.965C506.545 108.854 506.729 109.84 506.729 110.923V119.13C506.729 119.362 506.642 119.565 506.468 119.739C506.294 119.913 506.091 120 505.859 120C505.588 120 505.376 119.913 505.221 119.739C505.066 119.565 504.989 119.362 504.989 119.13V110.923C504.989 110.13 504.863 109.415 504.612 108.777C504.38 108.139 503.993 107.636 503.452 107.269C502.911 106.882 502.186 106.689 501.277 106.689C500.465 106.689 499.692 106.882 498.957 107.269C498.242 107.636 497.662 108.139 497.217 108.777C496.772 109.415 496.55 110.13 496.55 110.923V119.13C496.55 119.362 496.463 119.565 496.289 119.739C496.115 119.913 495.912 120 495.68 120C495.409 120 495.197 119.913 495.042 119.739C494.887 119.565 494.81 119.362 494.81 119.13V99.41C494.81 99.178 494.887 98.975 495.042 98.801C495.216 98.627 495.429 98.54 495.68 98.54C495.931 98.54 496.134 98.627 496.289 98.801C496.463 98.975 496.55 99.178 496.55 99.41V108.806L495.883 109.821C495.922 109.222 496.105 108.642 496.434 108.081C496.782 107.501 497.227 106.989 497.768 106.544C498.309 106.08 498.909 105.722 499.566 105.471C500.223 105.2 500.89 105.065 501.567 105.065Z" fill="white"/>
<path d="M512.974 119.13C512.974 119.362 512.887 119.565 512.713 119.739C512.539 119.913 512.336 120 512.104 120C511.853 120 511.64 119.913 511.466 119.739C511.312 119.565 511.234 119.362 511.234 119.13V105.79C511.234 105.558 511.312 105.355 511.466 105.181C511.64 105.007 511.853 104.92 512.104 104.92C512.356 104.92 512.559 105.007 512.713 105.181C512.887 105.355 512.974 105.558 512.974 105.79V119.13ZM512.104 102.977C511.698 102.977 511.389 102.89 511.176 102.716C510.983 102.523 510.886 102.252 510.886 101.904V101.614C510.886 101.266 510.993 101.005 511.205 100.831C511.437 100.638 511.747 100.541 512.133 100.541C512.501 100.541 512.781 100.638 512.974 100.831C513.187 101.005 513.293 101.266 513.293 101.614V101.904C513.293 102.252 513.187 102.523 512.974 102.716C512.781 102.89 512.491 102.977 512.104 102.977Z" fill="white"/>
<path d="M516.653 117.651C516.499 117.419 516.421 117.197 516.421 116.984C516.441 116.752 516.566 116.568 516.798 116.433C516.953 116.298 517.127 116.24 517.32 116.259C517.533 116.278 517.726 116.375 517.9 116.549C518.422 117.226 519.051 117.777 519.785 118.202C520.539 118.608 521.429 118.811 522.453 118.811C522.995 118.811 523.526 118.724 524.048 118.55C524.59 118.357 525.034 118.076 525.382 117.709C525.73 117.322 525.904 116.839 525.904 116.259C525.904 115.66 525.73 115.176 525.382 114.809C525.034 114.442 524.58 114.152 524.019 113.939C523.478 113.726 522.898 113.543 522.279 113.388C521.622 113.214 520.984 113.021 520.365 112.808C519.747 112.576 519.196 112.296 518.712 111.967C518.248 111.619 517.871 111.203 517.581 110.72C517.292 110.237 517.146 109.647 517.146 108.951C517.146 108.139 517.369 107.424 517.813 106.805C518.258 106.186 518.857 105.703 519.611 105.355C520.385 105.007 521.255 104.833 522.221 104.833C522.705 104.833 523.227 104.901 523.787 105.036C524.348 105.152 524.899 105.355 525.44 105.645C525.982 105.935 526.465 106.331 526.89 106.834C527.064 107.008 527.151 107.211 527.151 107.443C527.151 107.656 527.055 107.849 526.861 108.023C526.707 108.139 526.523 108.197 526.31 108.197C526.117 108.197 525.953 108.12 525.817 107.965C525.353 107.443 524.802 107.047 524.164 106.776C523.526 106.505 522.84 106.37 522.105 106.37C521.545 106.37 521.013 106.467 520.51 106.66C520.027 106.834 519.621 107.105 519.292 107.472C518.964 107.839 518.799 108.323 518.799 108.922C518.838 109.483 519.031 109.937 519.379 110.285C519.747 110.633 520.22 110.923 520.8 111.155C521.4 111.387 522.067 111.6 522.801 111.793C523.42 111.948 524.01 112.131 524.57 112.344C525.15 112.557 525.653 112.827 526.078 113.156C526.523 113.465 526.871 113.862 527.122 114.345C527.393 114.828 527.528 115.437 527.528 116.172C527.528 117.023 527.287 117.757 526.803 118.376C526.339 118.995 525.711 119.468 524.918 119.797C524.126 120.126 523.246 120.29 522.279 120.29C521.235 120.29 520.22 120.087 519.234 119.681C518.268 119.275 517.407 118.598 516.653 117.651Z" fill="white"/>
<path d="M556.621 104.862C556.834 104.862 557.027 104.939 557.201 105.094C557.394 105.249 557.491 105.461 557.491 105.732C557.491 105.79 557.481 105.858 557.462 105.935C557.443 106.012 557.423 106.07 557.404 106.109L552.938 119.449C552.861 119.623 552.735 119.768 552.561 119.884C552.406 119.981 552.242 120.019 552.068 120C551.72 119.981 551.459 119.797 551.285 119.449L547.196 109.821L547.718 109.937L544.093 119.449C543.938 119.797 543.677 119.981 543.31 120C543.136 120.019 542.962 119.981 542.788 119.884C542.614 119.768 542.498 119.623 542.44 119.449L537.858 106.109C537.8 105.974 537.771 105.848 537.771 105.732C537.771 105.481 537.848 105.278 538.003 105.123C538.177 104.949 538.399 104.862 538.67 104.862C538.844 104.862 538.999 104.91 539.134 105.007C539.289 105.104 539.395 105.249 539.453 105.442L543.571 117.796L543.02 117.767L546.761 108.342C546.916 107.975 547.186 107.791 547.573 107.791C547.766 107.791 547.931 107.839 548.066 107.936C548.201 108.033 548.308 108.168 548.385 108.342L552.358 117.796L551.72 117.825L555.809 105.442C555.925 105.055 556.196 104.862 556.621 104.862Z" fill="white"/>
<path d="M574.629 112.576C574.629 114.045 574.31 115.37 573.672 116.549C573.034 117.709 572.164 118.627 571.062 119.304C569.96 119.961 568.703 120.29 567.292 120.29C565.919 120.29 564.672 119.961 563.551 119.304C562.449 118.627 561.569 117.709 560.912 116.549C560.274 115.37 559.955 114.045 559.955 112.576C559.955 111.087 560.274 109.763 560.912 108.603C561.569 107.443 562.449 106.525 563.551 105.848C564.672 105.171 565.919 104.833 567.292 104.833C568.703 104.833 569.96 105.171 571.062 105.848C572.164 106.525 573.034 107.443 573.672 108.603C574.31 109.763 574.629 111.087 574.629 112.576ZM572.889 112.576C572.889 111.397 572.647 110.353 572.164 109.444C571.68 108.516 571.013 107.791 570.163 107.269C569.331 106.728 568.374 106.457 567.292 106.457C566.248 106.457 565.3 106.728 564.45 107.269C563.599 107.791 562.922 108.516 562.42 109.444C561.936 110.353 561.695 111.397 561.695 112.576C561.695 113.755 561.936 114.799 562.42 115.708C562.922 116.617 563.599 117.342 564.45 117.883C565.3 118.405 566.248 118.666 567.292 118.666C568.374 118.666 569.331 118.405 570.163 117.883C571.013 117.342 571.68 116.617 572.164 115.708C572.647 114.799 572.889 113.755 572.889 112.576Z" fill="white"/>
<path d="M579.196 120C578.926 120 578.713 119.913 578.558 119.739C578.404 119.565 578.326 119.362 578.326 119.13V106.138C578.326 105.906 578.404 105.703 578.558 105.529C578.732 105.355 578.945 105.268 579.196 105.268C579.448 105.268 579.651 105.355 579.805 105.529C579.979 105.703 580.066 105.906 580.066 106.138V110.488L579.631 110.575C579.689 109.898 579.854 109.231 580.125 108.574C580.414 107.897 580.801 107.279 581.284 106.718C581.768 106.157 582.338 105.703 582.995 105.355C583.672 105.007 584.426 104.833 585.258 104.833C585.606 104.833 585.944 104.91 586.273 105.065C586.601 105.2 586.766 105.432 586.766 105.761C586.766 106.051 586.688 106.273 586.534 106.428C586.379 106.583 586.195 106.66 585.982 106.66C585.808 106.66 585.615 106.612 585.402 106.515C585.209 106.418 584.948 106.37 584.62 106.37C584.078 106.37 583.537 106.534 582.995 106.863C582.454 107.172 581.961 107.598 581.516 108.139C581.072 108.68 580.714 109.289 580.443 109.966C580.192 110.623 580.066 111.29 580.066 111.967V119.13C580.066 119.362 579.979 119.565 579.805 119.739C579.631 119.913 579.428 120 579.196 120Z" fill="white"/>
<path d="M590.529 120C590.277 120 590.065 119.913 589.891 119.739C589.736 119.565 589.659 119.362 589.659 119.13V99.41C589.659 99.178 589.736 98.975 589.891 98.801C590.065 98.627 590.277 98.54 590.529 98.54C590.78 98.54 590.983 98.627 591.138 98.801C591.312 98.975 591.399 99.178 591.399 99.41V119.13C591.399 119.362 591.312 119.565 591.138 119.739C590.983 119.913 590.78 120 590.529 120ZM600.389 105.123C600.601 105.123 600.795 105.22 600.969 105.413C601.143 105.587 601.23 105.78 601.23 105.993C601.23 106.244 601.123 106.467 600.911 106.66L591.167 114.954L591.08 112.895L599.78 105.413C599.954 105.22 600.157 105.123 600.389 105.123ZM600.621 120C600.369 120 600.157 119.894 599.983 119.681L593.371 112.663L594.676 111.474L601.23 118.463C601.404 118.656 601.491 118.879 601.491 119.13C601.491 119.401 601.384 119.613 601.172 119.768C600.959 119.923 600.775 120 600.621 120Z" fill="white"/>
<path d="M608.542 110.256C608.542 110.005 608.629 109.792 608.803 109.618C608.977 109.444 609.18 109.357 609.412 109.357C610.302 109.299 611.094 109.077 611.79 108.69C612.486 108.303 613.037 107.781 613.443 107.124C613.849 106.467 614.052 105.703 614.052 104.833C614.052 103.924 613.859 103.141 613.472 102.484C613.105 101.807 612.602 101.285 611.964 100.918C611.326 100.531 610.601 100.338 609.789 100.338C608.997 100.338 608.252 100.522 607.556 100.889C606.86 101.256 606.28 101.74 605.816 102.339C605.662 102.494 605.478 102.61 605.265 102.687C605.072 102.745 604.859 102.697 604.627 102.542C604.395 102.387 604.26 102.194 604.221 101.962C604.183 101.711 604.25 101.479 604.424 101.266C605.043 100.493 605.826 99.8643 606.773 99.381C607.721 98.8977 608.726 98.656 609.789 98.656C610.911 98.656 611.926 98.9073 612.834 99.41C613.762 99.9127 614.497 100.628 615.038 101.556C615.58 102.484 615.85 103.576 615.85 104.833C615.85 105.606 615.696 106.351 615.386 107.066C615.077 107.781 614.652 108.419 614.11 108.98C613.569 109.541 612.941 109.985 612.225 110.314C611.51 110.643 610.737 110.826 609.905 110.865C609.847 110.865 609.867 110.855 609.963 110.836C610.06 110.817 610.157 110.759 610.253 110.662V113.707C610.253 113.958 610.166 114.171 609.992 114.345C609.838 114.5 609.635 114.577 609.383 114.577C609.132 114.577 608.919 114.5 608.745 114.345C608.591 114.171 608.523 113.958 608.542 113.707V110.256ZM609.412 120C609.084 120 608.823 119.903 608.629 119.71C608.455 119.497 608.368 119.227 608.368 118.898V118.26C608.368 117.912 608.455 117.641 608.629 117.448C608.823 117.255 609.084 117.158 609.412 117.158H609.586C609.934 117.158 610.186 117.255 610.34 117.448C610.514 117.641 610.601 117.912 610.601 118.26V118.898C610.601 119.227 610.514 119.497 610.34 119.71C610.186 119.903 609.934 120 609.586 120H609.412Z" fill="white"/>
<path d="M9.01863 11.9003C6.33015 14.9946 0 16.289 0 16.289C0 16.289 6.38101 18.4363 9.01863 21.8593C11.7131 25.3561 12.6708 33 12.6708 33C12.6708 33 14.3587 25.451 17.1429 21.8593C19.317 19.0547 24 16.289 24 16.289C24 16.289 19.3313 14.348 17.1429 11.9003C13.9696 8.35099 12.6708 0 12.6708 0C12.6708 0 12.0658 8.39307 9.01863 11.9003Z" fill="white" fill-opacity="0.66"/>
<path d="M469.853 277.473C467.693 279.314 459.765 279.101 462.608 280.085C467.272 281.698 467.734 281.363 469.853 283.4C472.017 285.481 472.003 296.178 473.18 293.602C475.357 288.841 474.142 285.538 476.379 283.4L476.388 283.391C478.129 281.728 479.094 280.804 482.509 280.085C484.853 279.591 478.137 278.929 476.379 277.473C473.83 275.36 474.735 271.283 472.559 267.414C471.085 264.794 472.301 275.385 469.853 277.473Z" fill="white" fill-opacity="0.66"/>
<path d="M17 247C17 249.209 14.9853 251 12.5 251C10.0147 251 8 249.209 8 247C8 244.791 10.0147 243 12.5 243C14.9853 243 17 244.791 17 247Z" fill="white" fill-opacity="0.6"/>
<path d="M287.182 61.4987C284.974 61.5529 283.142 59.926 283.092 57.8649C283.041 55.8037 284.79 54.0889 286.999 54.0347C289.207 53.9805 291.039 55.6074 291.089 57.6685C291.14 59.7296 289.391 61.4444 287.182 61.4987Z" fill="white" fill-opacity="0.6"/>
</svg>
