<svg width="444" height="278" viewBox="0 0 444 278" fill="none" xmlns="http://www.w3.org/2000/svg">
<path d="M17.686 240.436C23.8696 239.395 29.7263 243.564 30.7674 249.748C31.8086 255.931 27.6398 261.788 21.4563 262.829L13.9666 264.09C7.78307 265.131 1.92632 260.962 0.885188 254.779C-0.155947 248.595 4.01278 242.739 10.1963 241.698L17.686 240.436Z" fill="#E0F4F2"/>
<path d="M434.051 236.145C440.65 237.639 444.789 244.2 443.295 250.799C441.801 257.399 435.24 261.537 428.641 260.043L419.999 258.087C413.4 256.593 409.261 250.032 410.755 243.433C412.249 236.833 418.81 232.695 425.409 234.189L434.051 236.145Z" fill="#E0F4F2"/>
<path d="M141 157.693C166.934 141.661 189.622 144.521 189.622 144.521L264.992 141.594C264.992 141.594 287.39 143.384 303 151.5C335.081 168.179 344.537 202.405 376.95 218.428C397.451 228.563 432.929 235.624 432.929 235.624L412.806 253.552C412.806 253.552 380.418 253.535 360.852 247.698C337.937 240.863 307.068 218.428 307.068 218.428L307 278H151L151.57 218.428C151.57 218.428 106.836 245.929 74.7364 253.552C56.8037 257.811 27.9042 259.406 27.9042 259.406L12.9033 240.747C12.9033 240.747 39.679 236.398 55.345 229.404C84.9251 216.199 113.446 174.726 141 157.693Z" fill="#1E78CB"/>
<path d="M166.571 79.3952C166.571 46.8623 192.945 20.4891 225.477 20.4891C258.01 20.4891 284.384 46.8623 284.384 79.3952V95.4937C284.384 128.027 258.01 154.4 225.477 154.4C192.945 154.4 166.571 128.027 166.571 95.4937V79.3952Z" fill="#E0F4F2"/>
<path d="M187.792 92.5668C187.792 90.344 189.594 88.5421 191.817 88.5421H207.915C210.138 88.5421 211.94 90.344 211.94 92.5668C211.94 94.7895 210.138 96.5914 207.915 96.5914H191.817C189.594 96.5914 187.792 94.7895 187.792 92.5668Z" fill="#0B4168"/>
<path d="M151 266H307V278H151V266Z" fill="#0B4168"/>
<path d="M187.792 73.5412C187.792 71.3184 189.594 69.5165 191.817 69.5165H207.915C210.138 69.5165 211.94 71.3184 211.94 73.5412C211.94 75.7639 210.138 77.5658 207.915 77.5658H191.817C189.594 77.5658 187.792 75.7639 187.792 73.5412Z" fill="#7ABFFF"/>
<path d="M238.283 92.5668C238.283 90.344 240.085 88.5421 242.308 88.5421H258.406C260.629 88.5421 262.431 90.344 262.431 92.5668C262.431 94.7895 260.629 96.5914 258.406 96.5914H242.308C240.085 96.5914 238.283 94.7895 238.283 92.5668Z" fill="#0B4168"/>
<path d="M238.283 73.5412C238.283 71.3184 240.085 69.5165 242.308 69.5165H258.406C260.629 69.5165 262.431 71.3184 262.431 73.5412C262.431 75.7639 260.629 77.5658 258.406 77.5658H242.308C240.085 77.5658 238.283 75.7639 238.283 73.5412Z" fill="#7ABFFF"/>
<path d="M147.085 87.5257C153.345 97.3647 154.328 112.587 165.462 110.878C177.931 108.965 166.864 90.0622 170.316 77.3091C173.196 66.6716 173.746 59.6235 180.371 51.0377C189.003 39.8526 197.749 31.0047 211.23 33.5234C220.329 35.2232 229.954 37.9019 229.954 37.9019C229.954 37.9019 243.068 36.6271 252.145 37.9019C262.68 39.3817 265.807 48.5669 271.562 57.9704C276.463 65.9792 278.083 71.3389 280.23 80.593C282.9 92.1035 274.205 102.292 281.963 110.878C293.039 123.136 297.701 88.0102 298.26 71.1061C298.702 57.7038 293.63 50.7373 289.938 37.9019C287.085 27.9824 289.215 19.7373 281.963 12.7252C273.319 4.36638 263.751 10.5703 252.145 8.71149C237.31 6.33561 214.351 1.41387 214.351 1.41387C214.351 1.41387 191.629 -1.76734 177.598 1.41387C161.022 5.1719 148.185 7.01164 138.764 21.8472C131.194 33.7686 130.272 43.8291 132.523 57.9704C134.564 70.7932 140.212 76.7224 147.085 87.5257Z" fill="#7ABFFF"/>
<path d="M227.307 134.277C219.86 134.691 206.818 127.691 211.94 125.862C217.062 124.032 221.293 127.13 227.307 126.959C231.613 126.837 236.82 124.032 240.478 125.862C245.191 128.218 233.973 133.906 227.307 134.277Z" fill="#7ABFFF"/>
<path d="M149.197 18.2315C149.197 18.2315 135.264 34.5279 141.697 38.2315C147.919 41.8139 149.412 30.0917 154.697 25.2315C161.229 19.2234 174.761 19.2284 172.197 10.7315C169.446 1.61751 149.197 18.2315 149.197 18.2315Z" fill="#BFE0FF"/>
<path d="M163.473 152.265C163.473 152.265 143.721 160.605 147.817 166.795C151.779 172.783 158.359 162.968 165.26 160.986C173.79 158.536 185.889 164.595 187.398 155.849C189.017 146.468 163.473 152.265 163.473 152.265Z" fill="#3598F2"/>
</svg>
