<svg width="447" height="278" viewBox="0 0 447 278" fill="none" xmlns="http://www.w3.org/2000/svg">
<rect width="22.7077" height="30.3029" rx="11.3539" transform="matrix(0.166035 0.98612 -0.986119 0.166037 29.8823 238.551)" fill="#E0F4F2"/>
<rect x="447" y="238.85" width="24.503" height="33.3633" rx="12.2515" transform="rotate(102.756 447 238.85)" fill="#E0F4F2"/>
<path d="M142 157.693C167.934 141.661 190.622 144.521 190.622 144.521L265.992 141.594C265.992 141.594 288.39 143.384 304 151.5C336.081 168.179 345.537 202.405 377.95 218.428C398.451 228.563 433.929 235.624 433.929 235.624L413.806 253.552C413.806 253.552 381.418 253.535 361.852 247.698C338.937 240.863 308.068 218.428 308.068 218.428L308 278H152L152.57 218.428C152.57 218.428 107.836 245.929 75.7364 253.552C57.8037 257.811 28.9042 259.406 28.9042 259.406L13.9033 240.747C13.9033 240.747 40.679 236.398 56.3449 229.404C85.9251 216.199 114.446 174.726 142 157.693Z" fill="#1E78CB"/>
<rect x="167.571" y="20.4891" width="117.812" height="133.911" rx="58.9061" fill="#E0F4F2"/>
<rect x="188.792" y="88.5421" width="24.1478" height="8.04928" rx="4.02464" fill="#0B4168"/>
<rect x="152" y="266" width="156" height="12" fill="#0B4168"/>
<rect x="188.792" y="69.5165" width="24.1478" height="8.04928" rx="4.02464" fill="#7ABFFF"/>
<rect x="239.283" y="88.5421" width="24.1478" height="8.04928" rx="4.02464" fill="#0B4168"/>
<rect x="239.283" y="69.5165" width="24.1478" height="8.04928" rx="4.02464" fill="#7ABFFF"/>
<path d="M148.085 87.5257C154.345 97.3647 155.328 112.587 166.462 110.878C178.931 108.965 167.864 90.0622 171.316 77.3091C174.196 66.6716 174.746 59.6235 181.371 51.0377C190.003 39.8526 198.749 31.0047 212.23 33.5234C221.329 35.2232 230.954 37.9019 230.954 37.9019C230.954 37.9019 244.068 36.6271 253.145 37.9019C263.68 39.3817 266.807 48.5669 272.562 57.9704C277.463 65.9792 279.083 71.3389 281.23 80.593C283.9 92.1035 275.205 102.292 282.963 110.878C294.039 123.136 298.701 88.0102 299.26 71.1061C299.702 57.7038 294.63 50.7373 290.938 37.9019C288.085 27.9824 290.215 19.7373 282.963 12.7252C274.319 4.36638 264.751 10.5703 253.145 8.71149C238.31 6.33561 215.351 1.41387 215.351 1.41387C215.351 1.41387 192.629 -1.76734 178.598 1.41387C162.022 5.1719 149.185 7.01164 139.764 21.8472C132.194 33.7686 131.272 43.8291 133.523 57.9704C135.564 70.7932 141.212 76.7224 148.085 87.5257Z" fill="#7ABFFF"/>
<path d="M228.307 134.277C220.86 134.691 207.818 127.691 212.94 125.862C218.062 124.032 222.293 127.13 228.307 126.959C232.613 126.837 237.82 124.032 241.478 125.862C246.191 128.218 234.973 133.906 228.307 134.277Z" fill="#7ABFFF" stroke="#7ABFFF" stroke-width="3"/>
</svg>
