<svg width="533" height="381" viewBox="0 0 533 381" fill="none" xmlns="http://www.w3.org/2000/svg">
<path d="M533 11C533 4.92488 528.075 0 522 0H11C4.92485 0 0 4.92487 0 11V370C0 376.075 4.92487 381 11 381H522C528.075 381 533 376.075 533 370V11Z" fill="black" fill-opacity="0.21"/>
<path d="M80 75C80 63.9543 88.9543 55 100 55H450C461.046 55 470 63.9543 470 75V330C470 341.046 461.046 350 450 350H100C88.9543 350 80 341.046 80 330V75Z" fill="#2184E0"/>
<path d="M91 92C91 80.9543 99.9543 72 111 72H438C449.046 72 458 80.9543 458 92V311C458 322.046 449.046 331 438 331H111C99.9543 331 91 322.046 91 311V92Z" fill="#D1E9FF"/>
<path d="M225 350H336V381H225V350Z" fill="#2184E0"/>
<path d="M225 350H336V370H225V350Z" fill="#1C588F"/>
</svg>
