<svg width="533" height="381" viewBox="0 0 533 381" fill="none" xmlns="http://www.w3.org/2000/svg">
<path d="M533 11C533 4.92488 528.075 0 522 0H11C4.92485 0 0 4.92487 0 11V370C0 376.075 4.92487 381 11 381H522C528.075 381 533 376.075 533 370V11Z" fill="black" fill-opacity="0.21"/>
<path d="M346 354H420V381H346V354Z" fill="#DEB2E5"/>
<path d="M346 351H420V370H346V351Z" fill="#AC8CB1"/>
<path d="M219.788 183.874C219.788 183.874 215.184 171.664 213.83 163.367C210.686 144.103 260.049 127.502 255.292 108.679C246.381 73.4152 176.979 77.464 145.044 75.1207C109.999 72.5491 12.2384 62.4439 22.7922 100.875C27.2907 117.255 18.2283 133.539 30.7922 142.874C56.2106 161.762 136.009 138.077 164.792 148.875C181.966 155.317 204.623 169.581 204.623 169.581L219.788 183.874Z" fill="white"/>
<path d="M38.548 96.6C39.14 96.6 39.656 96.712 40.096 96.936C40.544 97.16 40.912 97.472 41.2 97.872C41.488 98.264 41.7 98.712 41.836 99.216C41.98 99.72 42.052 100.248 42.052 100.8C42.052 101.568 41.924 102.272 41.668 102.912C41.42 103.544 41.036 104.052 40.516 104.436C40.004 104.812 39.348 105 38.548 105H35.488C35.392 105 35.308 104.964 35.236 104.892C35.164 104.82 35.128 104.736 35.128 104.64V96.96C35.128 96.864 35.164 96.78 35.236 96.708C35.308 96.636 35.392 96.6 35.488 96.6H38.548ZM38.428 104.292C39.108 104.292 39.656 104.136 40.072 103.824C40.488 103.512 40.792 103.092 40.984 102.564C41.184 102.028 41.284 101.44 41.284 100.8C41.284 100.336 41.228 99.896 41.116 99.48C41.012 99.056 40.844 98.684 40.612 98.364C40.388 98.036 40.092 97.78 39.724 97.596C39.364 97.404 38.932 97.308 38.428 97.308H35.8L35.884 97.2V104.412L35.812 104.292H38.428Z" fill="black"/>
<path d="M49.3787 101.928C49.3787 102.536 49.2467 103.084 48.9827 103.572C48.7188 104.052 48.3588 104.432 47.9028 104.712C47.4468 104.984 46.9268 105.12 46.3428 105.12C45.7747 105.12 45.2588 104.984 44.7948 104.712C44.3387 104.432 43.9748 104.052 43.7028 103.572C43.4388 103.084 43.3068 102.536 43.3068 101.928C43.3068 101.312 43.4388 100.764 43.7028 100.284C43.9748 99.804 44.3387 99.424 44.7948 99.144C45.2588 98.864 45.7747 98.724 46.3428 98.724C46.9268 98.724 47.4468 98.864 47.9028 99.144C48.3588 99.424 48.7188 99.804 48.9827 100.284C49.2467 100.764 49.3787 101.312 49.3787 101.928ZM48.6587 101.928C48.6587 101.44 48.5588 101.008 48.3587 100.632C48.1587 100.248 47.8828 99.948 47.5308 99.732C47.1867 99.508 46.7907 99.396 46.3428 99.396C45.9108 99.396 45.5188 99.508 45.1668 99.732C44.8148 99.948 44.5348 100.248 44.3268 100.632C44.1268 101.008 44.0267 101.44 44.0267 101.928C44.0267 102.416 44.1268 102.848 44.3268 103.224C44.5348 103.6 44.8148 103.9 45.1668 104.124C45.5188 104.34 45.9108 104.448 46.3428 104.448C46.7907 104.448 47.1867 104.34 47.5308 104.124C47.8828 103.9 48.1587 103.6 48.3587 103.224C48.5588 102.848 48.6587 102.416 48.6587 101.928Z" fill="black"/>
<path d="M53.8009 98.724C54.3289 98.724 54.7489 98.832 55.0609 99.048C55.3809 99.256 55.6089 99.544 55.7449 99.912C55.8889 100.272 55.9609 100.672 55.9609 101.112V104.64C55.9609 104.736 55.9249 104.82 55.8529 104.892C55.7809 104.964 55.6969 105 55.6009 105C55.4889 105 55.4009 104.964 55.3369 104.892C55.2729 104.82 55.2409 104.736 55.2409 104.64V101.148C55.2409 100.828 55.1889 100.536 55.0849 100.272C54.9809 100.008 54.8089 99.796 54.5689 99.636C54.3369 99.476 54.0289 99.396 53.6449 99.396C53.3009 99.396 52.9729 99.476 52.6609 99.636C52.3569 99.796 52.1089 100.008 51.9169 100.272C51.7249 100.536 51.6289 100.828 51.6289 101.148V104.64C51.6289 104.736 51.5929 104.82 51.5209 104.892C51.4489 104.964 51.3649 105 51.2689 105C51.1569 105 51.0689 104.964 51.0049 104.892C50.9409 104.82 50.9089 104.736 50.9089 104.64V99.264C50.9089 99.168 50.9409 99.084 51.0049 99.012C51.0769 98.94 51.1649 98.904 51.2689 98.904C51.3729 98.904 51.4569 98.94 51.5209 99.012C51.5929 99.084 51.6289 99.168 51.6289 99.264V100.272L51.3529 100.704C51.3689 100.448 51.4489 100.204 51.5929 99.972C51.7449 99.732 51.9369 99.52 52.1689 99.336C52.4009 99.144 52.6569 98.996 52.9369 98.892C53.2249 98.78 53.5129 98.724 53.8009 98.724Z" fill="black"/>
<path d="M58.6864 97.38C58.6864 97.596 58.6224 97.808 58.4944 98.016C58.3664 98.216 58.2104 98.384 58.0264 98.52C57.8504 98.648 57.6704 98.712 57.4864 98.712C57.4224 98.712 57.3624 98.692 57.3064 98.652C57.2504 98.612 57.2224 98.54 57.2224 98.436C57.2224 98.324 57.2584 98.26 57.3304 98.244C57.4024 98.228 57.4984 98.192 57.6184 98.136C57.7464 98.064 57.8464 97.98 57.9184 97.884C57.9904 97.788 58.0264 97.676 58.0264 97.548C58.0264 97.444 57.9944 97.364 57.9304 97.308C57.8744 97.252 57.8064 97.224 57.7264 97.224C57.6704 97.224 57.6144 97.236 57.5584 97.26C57.5024 97.276 57.4544 97.3 57.4144 97.332C57.3664 97.292 57.3264 97.248 57.2944 97.2C57.2704 97.144 57.2584 97.08 57.2584 97.008C57.2744 96.872 57.3504 96.756 57.4864 96.66C57.6224 96.564 57.7744 96.516 57.9424 96.516C58.1584 96.516 58.3344 96.604 58.4704 96.78C58.6144 96.948 58.6864 97.148 58.6864 97.38Z" fill="black"/>
<path d="M59.7825 98.892H62.5785C62.6745 98.892 62.7545 98.928 62.8185 99C62.8825 99.064 62.9145 99.144 62.9145 99.24C62.9145 99.328 62.8825 99.404 62.8185 99.468C62.7545 99.532 62.6745 99.564 62.5785 99.564H59.7825C59.6865 99.564 59.6025 99.532 59.5305 99.468C59.4665 99.396 59.4345 99.316 59.4345 99.228C59.4345 99.132 59.4665 99.052 59.5305 98.988C59.6025 98.924 59.6865 98.892 59.7825 98.892ZM61.0185 97.2C61.1225 97.2 61.2065 97.236 61.2705 97.308C61.3425 97.38 61.3785 97.464 61.3785 97.56V103.584C61.3785 103.808 61.4065 103.976 61.4625 104.088C61.5265 104.2 61.6065 104.276 61.7025 104.316C61.7985 104.348 61.8945 104.364 61.9905 104.364C62.0545 104.364 62.1105 104.356 62.1585 104.34C62.2145 104.316 62.2745 104.304 62.3385 104.304C62.4105 104.304 62.4705 104.332 62.5185 104.388C62.5745 104.444 62.6025 104.516 62.6025 104.604C62.6025 104.716 62.5385 104.812 62.4105 104.892C62.2825 104.964 62.1305 105 61.9545 105C61.8825 105 61.7745 104.996 61.6305 104.988C61.4865 104.972 61.3385 104.928 61.1865 104.856C61.0345 104.776 60.9065 104.64 60.8025 104.448C60.7065 104.256 60.6585 103.98 60.6585 103.62V97.56C60.6585 97.464 60.6905 97.38 60.7545 97.308C60.8265 97.236 60.9145 97.2 61.0185 97.2Z" fill="black"/>
<path d="M72.0981 98.76C72.2021 98.76 72.2861 98.796 72.3501 98.868C72.4221 98.94 72.4581 99.024 72.4581 99.12V104.412C72.4581 105.06 72.3301 105.604 72.0741 106.044C71.8181 106.492 71.4741 106.828 71.0421 107.052C70.6101 107.284 70.1181 107.4 69.5661 107.4C69.2221 107.4 68.9021 107.36 68.6061 107.28C68.3181 107.208 68.0821 107.112 67.8981 106.992C67.8021 106.936 67.7301 106.868 67.6821 106.788C67.6341 106.708 67.6301 106.624 67.6701 106.536C67.7101 106.424 67.7701 106.348 67.8501 106.308C67.9381 106.276 68.0261 106.28 68.1141 106.32C68.2501 106.392 68.4461 106.48 68.7021 106.584C68.9581 106.688 69.2501 106.74 69.5781 106.74C70.0181 106.74 70.3981 106.648 70.7181 106.464C71.0461 106.28 71.2981 106.012 71.4741 105.66C71.6501 105.316 71.7381 104.904 71.7381 104.424V103.56L71.8221 103.848C71.7021 104.096 71.5301 104.316 71.3061 104.508C71.0901 104.7 70.8381 104.852 70.5501 104.964C70.2701 105.068 69.9701 105.12 69.6501 105.12C69.1701 105.12 68.7701 105.024 68.4501 104.832C68.1381 104.632 67.9061 104.36 67.7541 104.016C67.6021 103.672 67.5261 103.268 67.5261 102.804V99.12C67.5261 99.024 67.5581 98.94 67.6221 98.868C67.6861 98.796 67.7741 98.76 67.8861 98.76C67.9901 98.76 68.0741 98.796 68.1381 98.868C68.2101 98.94 68.2461 99.024 68.2461 99.12V102.696C68.2461 103.256 68.3661 103.688 68.6061 103.992C68.8541 104.296 69.2541 104.448 69.8061 104.448C70.1501 104.448 70.4661 104.368 70.7541 104.208C71.0421 104.04 71.2781 103.824 71.4621 103.56C71.6461 103.288 71.7381 103 71.7381 102.696V99.12C71.7381 99.024 71.7701 98.94 71.8341 98.868C71.9061 98.796 71.9941 98.76 72.0981 98.76Z" fill="black"/>
<path d="M79.9998 101.928C79.9998 102.536 79.8678 103.084 79.6038 103.572C79.3398 104.052 78.9798 104.432 78.5238 104.712C78.0678 104.984 77.5478 105.12 76.9638 105.12C76.3958 105.12 75.8798 104.984 75.4158 104.712C74.9598 104.432 74.5958 104.052 74.3238 103.572C74.0598 103.084 73.9278 102.536 73.9278 101.928C73.9278 101.312 74.0598 100.764 74.3238 100.284C74.5958 99.804 74.9598 99.424 75.4158 99.144C75.8798 98.864 76.3958 98.724 76.9638 98.724C77.5478 98.724 78.0678 98.864 78.5238 99.144C78.9798 99.424 79.3398 99.804 79.6038 100.284C79.8678 100.764 79.9998 101.312 79.9998 101.928ZM79.2798 101.928C79.2798 101.44 79.1798 101.008 78.9798 100.632C78.7798 100.248 78.5038 99.948 78.1518 99.732C77.8078 99.508 77.4118 99.396 76.9638 99.396C76.5318 99.396 76.1398 99.508 75.7878 99.732C75.4358 99.948 75.1558 100.248 74.9478 100.632C74.7478 101.008 74.6478 101.44 74.6478 101.928C74.6478 102.416 74.7478 102.848 74.9478 103.224C75.1558 103.6 75.4358 103.9 75.7878 104.124C76.1398 104.34 76.5318 104.448 76.9638 104.448C77.4118 104.448 77.8078 104.34 78.1518 104.124C78.5038 103.9 78.7798 103.6 78.9798 103.224C79.1798 102.848 79.2798 102.416 79.2798 101.928Z" fill="black"/>
<path d="M86.114 98.904C86.218 98.904 86.302 98.94 86.366 99.012C86.438 99.084 86.474 99.168 86.474 99.264V102.648C86.474 103.44 86.25 104.044 85.802 104.46C85.354 104.876 84.75 105.084 83.99 105.084C83.238 105.084 82.638 104.876 82.19 104.46C81.75 104.044 81.53 103.44 81.53 102.648V99.264C81.53 99.168 81.562 99.084 81.626 99.012C81.698 98.94 81.786 98.904 81.89 98.904C81.994 98.904 82.078 98.94 82.142 99.012C82.214 99.084 82.25 99.168 82.25 99.264V102.648C82.25 103.224 82.402 103.664 82.706 103.968C83.018 104.264 83.446 104.412 83.99 104.412C84.542 104.412 84.974 104.264 85.286 103.968C85.598 103.664 85.754 103.224 85.754 102.648V99.264C85.754 99.168 85.786 99.084 85.85 99.012C85.914 98.94 86.002 98.904 86.114 98.904Z" fill="black"/>
<path d="M97.3553 101.928C97.3553 102.536 97.2233 103.084 96.9593 103.572C96.6953 104.052 96.3353 104.432 95.8793 104.712C95.4233 104.984 94.9033 105.12 94.3193 105.12C93.7513 105.12 93.2353 104.984 92.7713 104.712C92.3153 104.432 91.9513 104.052 91.6793 103.572C91.4153 103.084 91.2833 102.536 91.2833 101.928C91.2833 101.312 91.4153 100.764 91.6793 100.284C91.9513 99.804 92.3153 99.424 92.7713 99.144C93.2353 98.864 93.7513 98.724 94.3193 98.724C94.9033 98.724 95.4233 98.864 95.8793 99.144C96.3353 99.424 96.6953 99.804 96.9593 100.284C97.2233 100.764 97.3553 101.312 97.3553 101.928ZM96.6353 101.928C96.6353 101.44 96.5353 101.008 96.3353 100.632C96.1353 100.248 95.8593 99.948 95.5073 99.732C95.1633 99.508 94.7673 99.396 94.3193 99.396C93.8873 99.396 93.4953 99.508 93.1433 99.732C92.7913 99.948 92.5113 100.248 92.3033 100.632C92.1033 101.008 92.0033 101.44 92.0033 101.928C92.0033 102.416 92.1033 102.848 92.3033 103.224C92.5113 103.6 92.7913 103.9 93.1433 104.124C93.4953 104.34 93.8873 104.448 94.3193 104.448C94.7673 104.448 95.1633 104.34 95.5073 104.124C95.8593 103.9 96.1353 103.6 96.3353 103.224C96.5353 102.848 96.6353 102.416 96.6353 101.928Z" fill="black"/>
<path d="M106.17 98.736C106.257 98.736 106.338 98.768 106.41 98.832C106.49 98.896 106.53 98.984 106.53 99.096C106.53 99.12 106.526 99.148 106.518 99.18C106.509 99.212 106.502 99.236 106.493 99.252L104.646 104.772C104.614 104.844 104.562 104.904 104.49 104.952C104.425 104.992 104.357 105.008 104.285 105C104.142 104.992 104.034 104.916 103.962 104.772L102.27 100.788L102.485 100.836L100.985 104.772C100.921 104.916 100.813 104.992 100.661 105C100.59 105.008 100.518 104.992 100.446 104.952C100.374 104.904 100.326 104.844 100.301 104.772L98.4055 99.252C98.3815 99.196 98.3695 99.144 98.3695 99.096C98.3695 98.992 98.4015 98.908 98.4655 98.844C98.5375 98.772 98.6295 98.736 98.7415 98.736C98.8135 98.736 98.8775 98.756 98.9335 98.796C98.9975 98.836 99.0415 98.896 99.0655 98.976L100.77 104.088L100.542 104.076L102.09 100.176C102.154 100.024 102.265 99.948 102.425 99.948C102.506 99.948 102.574 99.968 102.63 100.008C102.686 100.048 102.729 100.104 102.761 100.176L104.406 104.088L104.142 104.1L105.834 98.976C105.882 98.816 105.993 98.736 106.17 98.736Z" fill="black"/>
<path d="M110.801 98.724C111.329 98.724 111.749 98.832 112.061 99.048C112.381 99.256 112.609 99.544 112.745 99.912C112.889 100.272 112.961 100.672 112.961 101.112V104.64C112.961 104.736 112.925 104.82 112.853 104.892C112.781 104.964 112.697 105 112.601 105C112.489 105 112.401 104.964 112.337 104.892C112.273 104.82 112.241 104.736 112.241 104.64V101.148C112.241 100.828 112.189 100.536 112.085 100.272C111.981 100.008 111.809 99.796 111.569 99.636C111.337 99.476 111.029 99.396 110.645 99.396C110.301 99.396 109.973 99.476 109.661 99.636C109.357 99.796 109.109 100.008 108.917 100.272C108.725 100.536 108.629 100.828 108.629 101.148V104.64C108.629 104.736 108.593 104.82 108.521 104.892C108.449 104.964 108.365 105 108.269 105C108.157 105 108.069 104.964 108.005 104.892C107.941 104.82 107.909 104.736 107.909 104.64V99.264C107.909 99.168 107.941 99.084 108.005 99.012C108.077 98.94 108.165 98.904 108.269 98.904C108.373 98.904 108.457 98.94 108.521 99.012C108.593 99.084 108.629 99.168 108.629 99.264V100.272L108.353 100.704C108.369 100.448 108.449 100.204 108.593 99.972C108.745 99.732 108.937 99.52 109.169 99.336C109.401 99.144 109.657 98.996 109.937 98.892C110.225 98.78 110.513 98.724 110.801 98.724Z" fill="black"/>
<path d="M123.156 98.868C123.26 98.868 123.344 98.904 123.408 98.976C123.48 99.048 123.516 99.136 123.516 99.24V104.64C123.516 104.736 123.48 104.82 123.408 104.892C123.336 104.964 123.252 105 123.156 105C123.052 105 122.964 104.964 122.892 104.892C122.828 104.82 122.796 104.736 122.796 104.64V103.212L123 103.116C123 103.34 122.936 103.568 122.808 103.8C122.688 104.032 122.52 104.248 122.304 104.448C122.088 104.648 121.832 104.812 121.536 104.94C121.248 105.06 120.936 105.12 120.6 105.12C120.056 105.12 119.568 104.98 119.136 104.7C118.712 104.42 118.376 104.036 118.128 103.548C117.888 103.06 117.768 102.512 117.768 101.904C117.768 101.28 117.892 100.732 118.14 100.26C118.388 99.78 118.724 99.404 119.148 99.132C119.572 98.86 120.052 98.724 120.588 98.724C120.932 98.724 121.252 98.784 121.548 98.904C121.852 99.024 122.116 99.188 122.34 99.396C122.564 99.604 122.736 99.844 122.856 100.116C122.984 100.38 123.048 100.656 123.048 100.944L122.796 100.764V99.24C122.796 99.136 122.828 99.048 122.892 98.976C122.964 98.904 123.052 98.868 123.156 98.868ZM120.66 104.448C121.084 104.448 121.46 104.34 121.788 104.124C122.116 103.9 122.372 103.596 122.556 103.212C122.748 102.82 122.844 102.384 122.844 101.904C122.844 101.432 122.748 101.008 122.556 100.632C122.372 100.256 122.116 99.956 121.788 99.732C121.46 99.508 121.084 99.396 120.66 99.396C120.244 99.396 119.868 99.504 119.532 99.72C119.204 99.936 118.944 100.232 118.752 100.608C118.568 100.984 118.476 101.416 118.476 101.904C118.476 102.384 118.568 102.82 118.752 103.212C118.944 103.596 119.204 103.9 119.532 104.124C119.86 104.34 120.236 104.448 120.66 104.448Z" fill="black"/>
<path d="M128.297 98.724C128.825 98.724 129.245 98.832 129.557 99.048C129.877 99.256 130.105 99.544 130.241 99.912C130.385 100.272 130.457 100.672 130.457 101.112V104.64C130.457 104.736 130.421 104.82 130.349 104.892C130.277 104.964 130.193 105 130.097 105C129.985 105 129.897 104.964 129.833 104.892C129.769 104.82 129.737 104.736 129.737 104.64V101.148C129.737 100.828 129.685 100.536 129.581 100.272C129.477 100.008 129.305 99.796 129.065 99.636C128.833 99.476 128.525 99.396 128.141 99.396C127.797 99.396 127.469 99.476 127.157 99.636C126.853 99.796 126.605 100.008 126.413 100.272C126.221 100.536 126.125 100.828 126.125 101.148V104.64C126.125 104.736 126.089 104.82 126.017 104.892C125.945 104.964 125.861 105 125.765 105C125.653 105 125.565 104.964 125.501 104.892C125.437 104.82 125.405 104.736 125.405 104.64V99.264C125.405 99.168 125.437 99.084 125.501 99.012C125.573 98.94 125.661 98.904 125.765 98.904C125.869 98.904 125.953 98.94 126.017 99.012C126.089 99.084 126.125 99.168 126.125 99.264V100.272L125.849 100.704C125.865 100.448 125.945 100.204 126.089 99.972C126.241 99.732 126.433 99.52 126.665 99.336C126.897 99.144 127.153 98.996 127.433 98.892C127.721 98.78 128.009 98.724 128.297 98.724Z" fill="black"/>
<path d="M141.948 96.6C142.052 96.6 142.132 96.632 142.188 96.696C142.252 96.76 142.284 96.84 142.284 96.936V104.616C142.284 104.736 142.244 104.832 142.164 104.904C142.092 104.968 142.008 105 141.912 105C141.864 105 141.812 104.992 141.756 104.976C141.7 104.952 141.656 104.92 141.624 104.88L136.272 97.668L136.476 97.56V104.676C136.476 104.764 136.444 104.84 136.38 104.904C136.316 104.968 136.236 105 136.14 105C136.036 105 135.952 104.968 135.888 104.904C135.832 104.84 135.804 104.764 135.804 104.676V96.96C135.804 96.84 135.84 96.752 135.912 96.696C135.984 96.632 136.064 96.6 136.152 96.6C136.2 96.6 136.252 96.612 136.308 96.636C136.364 96.652 136.408 96.684 136.44 96.732L141.732 103.86L141.612 104.076V96.936C141.612 96.84 141.644 96.76 141.708 96.696C141.78 96.632 141.86 96.6 141.948 96.6Z" fill="black"/>
<path d="M144.906 105C144.794 105 144.702 104.964 144.63 104.892C144.566 104.82 144.534 104.736 144.534 104.64V96.96C144.534 96.864 144.57 96.78 144.642 96.708C144.714 96.636 144.798 96.6 144.894 96.6H149.262C149.366 96.6 149.45 96.636 149.514 96.708C149.586 96.772 149.622 96.856 149.622 96.96C149.622 97.056 149.586 97.14 149.514 97.212C149.45 97.276 149.366 97.308 149.262 97.308H145.218L145.266 97.236V100.428L145.206 100.32H148.722C148.826 100.32 148.91 100.356 148.974 100.428C149.046 100.492 149.082 100.572 149.082 100.668C149.082 100.772 149.046 100.856 148.974 100.92C148.91 100.984 148.826 101.016 148.722 101.016H145.182L145.266 100.92V104.64C145.266 104.736 145.23 104.82 145.158 104.892C145.094 104.964 145.01 105 144.906 105Z" fill="black"/>
<path d="M154.003 105C153.891 105 153.799 104.964 153.727 104.892C153.663 104.82 153.631 104.736 153.631 104.64V96.996H154.375V104.64C154.375 104.736 154.339 104.82 154.267 104.892C154.195 104.964 154.107 105 154.003 105ZM151.147 97.284C151.051 97.284 150.967 97.252 150.895 97.188C150.823 97.124 150.787 97.04 150.787 96.936C150.787 96.84 150.823 96.76 150.895 96.696C150.967 96.632 151.051 96.6 151.147 96.6H156.859C156.955 96.6 157.039 96.632 157.111 96.696C157.183 96.76 157.219 96.844 157.219 96.948C157.219 97.052 157.183 97.136 157.111 97.2C157.039 97.256 156.955 97.284 156.859 97.284H151.147Z" fill="black"/>
<path d="M160.033 100.968C160.033 100.864 160.069 100.776 160.141 100.704C160.213 100.632 160.297 100.596 160.393 100.596C160.761 100.572 161.089 100.48 161.377 100.32C161.665 100.16 161.893 99.944 162.061 99.672C162.229 99.4 162.313 99.084 162.313 98.724C162.313 98.348 162.233 98.024 162.073 97.752C161.921 97.472 161.713 97.256 161.449 97.104C161.185 96.944 160.885 96.864 160.549 96.864C160.221 96.864 159.913 96.94 159.625 97.092C159.337 97.244 159.097 97.444 158.905 97.692C158.841 97.756 158.765 97.804 158.677 97.836C158.597 97.86 158.509 97.84 158.413 97.776C158.317 97.712 158.261 97.632 158.245 97.536C158.229 97.432 158.257 97.336 158.329 97.248C158.585 96.928 158.909 96.668 159.301 96.468C159.693 96.268 160.109 96.168 160.549 96.168C161.013 96.168 161.433 96.272 161.809 96.48C162.193 96.688 162.497 96.984 162.721 97.368C162.945 97.752 163.057 98.204 163.057 98.724C163.057 99.044 162.993 99.352 162.865 99.648C162.737 99.944 162.561 100.208 162.337 100.44C162.113 100.672 161.853 100.856 161.557 100.992C161.261 101.128 160.941 101.204 160.597 101.22C160.573 101.22 160.581 101.216 160.621 101.208C160.661 101.2 160.701 101.176 160.741 101.136V102.396C160.741 102.5 160.705 102.588 160.633 102.66C160.569 102.724 160.485 102.756 160.381 102.756C160.277 102.756 160.189 102.724 160.117 102.66C160.053 102.588 160.025 102.5 160.033 102.396V100.968ZM160.393 105C160.257 105 160.149 104.96 160.069 104.88C159.997 104.792 159.961 104.68 159.961 104.544V104.28C159.961 104.136 159.997 104.024 160.069 103.944C160.149 103.864 160.257 103.824 160.393 103.824H160.465C160.609 103.824 160.713 103.864 160.777 103.944C160.849 104.024 160.885 104.136 160.885 104.28V104.544C160.885 104.68 160.849 104.792 160.777 104.88C160.713 104.96 160.609 105 160.465 105H160.393Z" fill="black"/>
<path d="M172.859 96.552C172.963 96.552 173.047 96.592 173.111 96.672C173.183 96.744 173.219 96.824 173.219 96.912C173.219 96.952 173.211 96.992 173.195 97.032C173.187 97.064 173.171 97.1 173.147 97.14L170.327 101.016L170.471 100.548V104.64C170.471 104.736 170.435 104.82 170.363 104.892C170.291 104.964 170.203 105 170.099 105C169.995 105 169.907 104.964 169.835 104.892C169.771 104.82 169.739 104.736 169.739 104.64V100.632L169.799 100.92L167.051 97.164C167.019 97.124 166.995 97.084 166.979 97.044C166.963 96.996 166.955 96.952 166.955 96.912C166.955 96.808 166.995 96.724 167.075 96.66C167.163 96.588 167.251 96.552 167.339 96.552C167.459 96.552 167.559 96.608 167.639 96.72L170.219 100.236L170.039 100.212L172.547 96.72C172.627 96.608 172.731 96.552 172.859 96.552Z" fill="black"/>
<path d="M179.598 101.928C179.598 102.536 179.466 103.084 179.202 103.572C178.938 104.052 178.577 104.432 178.122 104.712C177.666 104.984 177.145 105.12 176.561 105.12C175.993 105.12 175.478 104.984 175.014 104.712C174.558 104.432 174.193 104.052 173.921 103.572C173.657 103.084 173.525 102.536 173.525 101.928C173.525 101.312 173.657 100.764 173.921 100.284C174.193 99.804 174.558 99.424 175.014 99.144C175.478 98.864 175.993 98.724 176.561 98.724C177.145 98.724 177.666 98.864 178.122 99.144C178.577 99.424 178.938 99.804 179.202 100.284C179.466 100.764 179.598 101.312 179.598 101.928ZM178.878 101.928C178.878 101.44 178.777 101.008 178.577 100.632C178.378 100.248 178.102 99.948 177.749 99.732C177.406 99.508 177.009 99.396 176.561 99.396C176.129 99.396 175.738 99.508 175.385 99.732C175.033 99.948 174.753 100.248 174.546 100.632C174.346 101.008 174.245 101.44 174.245 101.928C174.245 102.416 174.346 102.848 174.546 103.224C174.753 103.6 175.033 103.9 175.385 104.124C175.738 104.34 176.129 104.448 176.561 104.448C177.009 104.448 177.406 104.34 177.749 104.124C178.102 103.9 178.378 103.6 178.577 103.224C178.777 102.848 178.878 102.416 178.878 101.928Z" fill="black"/>
<path d="M185.712 98.904C185.816 98.904 185.9 98.94 185.964 99.012C186.036 99.084 186.072 99.168 186.072 99.264V102.648C186.072 103.44 185.848 104.044 185.4 104.46C184.952 104.876 184.348 105.084 183.588 105.084C182.836 105.084 182.236 104.876 181.788 104.46C181.348 104.044 181.128 103.44 181.128 102.648V99.264C181.128 99.168 181.16 99.084 181.224 99.012C181.296 98.94 181.384 98.904 181.488 98.904C181.592 98.904 181.676 98.94 181.74 99.012C181.812 99.084 181.848 99.168 181.848 99.264V102.648C181.848 103.224 182 103.664 182.304 103.968C182.616 104.264 183.044 104.412 183.588 104.412C184.14 104.412 184.572 104.264 184.884 103.968C185.196 103.664 185.352 103.224 185.352 102.648V99.264C185.352 99.168 185.384 99.084 185.448 99.012C185.512 98.94 185.6 98.904 185.712 98.904Z" fill="black"/>
<path d="M193.941 98.724C194.325 98.724 194.677 98.768 194.997 98.856C195.317 98.936 195.573 99.048 195.765 99.192C195.965 99.336 196.065 99.492 196.065 99.66C196.065 99.74 196.037 99.82 195.981 99.9C195.925 99.972 195.849 100.008 195.753 100.008C195.657 100.008 195.577 99.984 195.513 99.936C195.457 99.888 195.397 99.832 195.333 99.768C195.277 99.704 195.193 99.644 195.081 99.588C194.977 99.54 194.829 99.496 194.637 99.456C194.445 99.416 194.225 99.396 193.977 99.396C193.529 99.396 193.125 99.508 192.765 99.732C192.405 99.956 192.121 100.26 191.913 100.644C191.705 101.02 191.601 101.444 191.601 101.916C191.601 102.396 191.701 102.828 191.901 103.212C192.101 103.596 192.377 103.9 192.729 104.124C193.081 104.34 193.493 104.448 193.965 104.448C194.285 104.448 194.533 104.42 194.709 104.364C194.885 104.308 195.037 104.244 195.165 104.172C195.317 104.084 195.425 104 195.489 103.92C195.561 103.832 195.653 103.788 195.765 103.788C195.869 103.788 195.945 103.82 195.993 103.884C196.049 103.94 196.077 104.016 196.077 104.112C196.077 104.24 195.981 104.384 195.789 104.544C195.605 104.696 195.349 104.832 195.021 104.952C194.693 105.064 194.317 105.12 193.893 105.12C193.293 105.12 192.765 104.98 192.309 104.7C191.861 104.42 191.509 104.04 191.253 103.56C191.005 103.072 190.881 102.524 190.881 101.916C190.881 101.332 191.009 100.8 191.265 100.32C191.521 99.84 191.877 99.456 192.333 99.168C192.797 98.872 193.333 98.724 193.941 98.724Z" fill="black"/>
<path d="M202.48 98.868C202.584 98.868 202.668 98.904 202.732 98.976C202.804 99.048 202.84 99.136 202.84 99.24V104.64C202.84 104.736 202.804 104.82 202.732 104.892C202.66 104.964 202.576 105 202.48 105C202.376 105 202.288 104.964 202.216 104.892C202.152 104.82 202.12 104.736 202.12 104.64V103.212L202.324 103.116C202.324 103.34 202.26 103.568 202.132 103.8C202.012 104.032 201.844 104.248 201.628 104.448C201.412 104.648 201.156 104.812 200.86 104.94C200.572 105.06 200.26 105.12 199.924 105.12C199.38 105.12 198.892 104.98 198.46 104.7C198.036 104.42 197.7 104.036 197.452 103.548C197.212 103.06 197.092 102.512 197.092 101.904C197.092 101.28 197.216 100.732 197.464 100.26C197.712 99.78 198.048 99.404 198.472 99.132C198.896 98.86 199.376 98.724 199.912 98.724C200.256 98.724 200.576 98.784 200.872 98.904C201.176 99.024 201.44 99.188 201.664 99.396C201.888 99.604 202.06 99.844 202.18 100.116C202.308 100.38 202.372 100.656 202.372 100.944L202.12 100.764V99.24C202.12 99.136 202.152 99.048 202.216 98.976C202.288 98.904 202.376 98.868 202.48 98.868ZM199.984 104.448C200.408 104.448 200.784 104.34 201.112 104.124C201.44 103.9 201.696 103.596 201.88 103.212C202.072 102.82 202.168 102.384 202.168 101.904C202.168 101.432 202.072 101.008 201.88 100.632C201.696 100.256 201.44 99.956 201.112 99.732C200.784 99.508 200.408 99.396 199.984 99.396C199.568 99.396 199.192 99.504 198.856 99.72C198.528 99.936 198.268 100.232 198.076 100.608C197.892 100.984 197.8 101.416 197.8 101.904C197.8 102.384 197.892 102.82 198.076 103.212C198.268 103.596 198.528 103.9 198.856 104.124C199.184 104.34 199.56 104.448 199.984 104.448Z" fill="black"/>
<path d="M207.621 98.724C208.149 98.724 208.569 98.832 208.881 99.048C209.201 99.256 209.429 99.544 209.565 99.912C209.709 100.272 209.781 100.672 209.781 101.112V104.64C209.781 104.736 209.745 104.82 209.673 104.892C209.601 104.964 209.517 105 209.421 105C209.309 105 209.221 104.964 209.157 104.892C209.093 104.82 209.061 104.736 209.061 104.64V101.148C209.061 100.828 209.009 100.536 208.905 100.272C208.801 100.008 208.629 99.796 208.389 99.636C208.157 99.476 207.849 99.396 207.465 99.396C207.121 99.396 206.793 99.476 206.481 99.636C206.177 99.796 205.929 100.008 205.737 100.272C205.545 100.536 205.449 100.828 205.449 101.148V104.64C205.449 104.736 205.413 104.82 205.341 104.892C205.269 104.964 205.185 105 205.089 105C204.977 105 204.889 104.964 204.825 104.892C204.761 104.82 204.729 104.736 204.729 104.64V99.264C204.729 99.168 204.761 99.084 204.825 99.012C204.897 98.94 204.985 98.904 205.089 98.904C205.193 98.904 205.277 98.94 205.341 99.012C205.413 99.084 205.449 99.168 205.449 99.264V100.272L205.173 100.704C205.189 100.448 205.269 100.204 205.413 99.972C205.565 99.732 205.757 99.52 205.989 99.336C206.221 99.144 206.477 98.996 206.757 98.892C207.045 98.78 207.333 98.724 207.621 98.724Z" fill="black"/>
<path d="M219.532 98.904C219.636 98.904 219.72 98.94 219.784 99.012C219.856 99.084 219.892 99.168 219.892 99.264V102.648C219.892 103.44 219.668 104.044 219.22 104.46C218.772 104.876 218.168 105.084 217.408 105.084C216.656 105.084 216.056 104.876 215.608 104.46C215.168 104.044 214.948 103.44 214.948 102.648V99.264C214.948 99.168 214.98 99.084 215.044 99.012C215.116 98.94 215.204 98.904 215.308 98.904C215.412 98.904 215.496 98.94 215.56 99.012C215.632 99.084 215.668 99.168 215.668 99.264V102.648C215.668 103.224 215.82 103.664 216.124 103.968C216.436 104.264 216.864 104.412 217.408 104.412C217.96 104.412 218.392 104.264 218.704 103.968C219.016 103.664 219.172 103.224 219.172 102.648V99.264C219.172 99.168 219.204 99.084 219.268 99.012C219.332 98.94 219.42 98.904 219.532 98.904Z" fill="black"/>
<path d="M221.432 104.028C221.368 103.932 221.336 103.84 221.336 103.752C221.344 103.656 221.396 103.58 221.492 103.524C221.556 103.468 221.628 103.444 221.708 103.452C221.796 103.46 221.876 103.5 221.948 103.572C222.164 103.852 222.424 104.08 222.728 104.256C223.04 104.424 223.408 104.508 223.832 104.508C224.056 104.508 224.276 104.472 224.492 104.4C224.716 104.32 224.9 104.204 225.044 104.052C225.188 103.892 225.26 103.692 225.26 103.452C225.26 103.204 225.188 103.004 225.044 102.852C224.9 102.7 224.712 102.58 224.48 102.492C224.256 102.404 224.016 102.328 223.76 102.264C223.488 102.192 223.224 102.112 222.968 102.024C222.712 101.928 222.484 101.812 222.284 101.676C222.092 101.532 221.936 101.36 221.816 101.16C221.696 100.96 221.636 100.716 221.636 100.428C221.636 100.092 221.728 99.796 221.912 99.54C222.096 99.284 222.344 99.084 222.656 98.94C222.976 98.796 223.336 98.724 223.736 98.724C223.936 98.724 224.152 98.752 224.384 98.808C224.616 98.856 224.844 98.94 225.068 99.06C225.292 99.18 225.492 99.344 225.668 99.552C225.74 99.624 225.776 99.708 225.776 99.804C225.776 99.892 225.736 99.972 225.656 100.044C225.592 100.092 225.516 100.116 225.428 100.116C225.348 100.116 225.28 100.084 225.224 100.02C225.032 99.804 224.804 99.64 224.54 99.528C224.276 99.416 223.992 99.36 223.688 99.36C223.456 99.36 223.236 99.4 223.028 99.48C222.828 99.552 222.66 99.664 222.524 99.816C222.388 99.968 222.32 100.168 222.32 100.416C222.336 100.648 222.416 100.836 222.56 100.98C222.712 101.124 222.908 101.244 223.148 101.34C223.396 101.436 223.672 101.524 223.976 101.604C224.232 101.668 224.476 101.744 224.708 101.832C224.948 101.92 225.156 102.032 225.332 102.168C225.516 102.296 225.66 102.46 225.764 102.66C225.876 102.86 225.932 103.112 225.932 103.416C225.932 103.768 225.832 104.072 225.632 104.328C225.44 104.584 225.18 104.78 224.852 104.916C224.524 105.052 224.16 105.12 223.76 105.12C223.328 105.12 222.908 105.036 222.5 104.868C222.1 104.7 221.744 104.42 221.432 104.028Z" fill="black"/>
<path d="M230.177 105.12C229.561 105.12 229.017 104.988 228.545 104.724C228.073 104.46 227.705 104.092 227.441 103.62C227.177 103.148 227.045 102.596 227.045 101.964C227.045 101.284 227.177 100.704 227.441 100.224C227.713 99.744 228.061 99.376 228.485 99.12C228.917 98.856 229.373 98.724 229.853 98.724C230.205 98.724 230.545 98.788 230.873 98.916C231.209 99.036 231.505 99.22 231.761 99.468C232.025 99.708 232.233 100.004 232.385 100.356C232.545 100.708 232.633 101.116 232.649 101.58C232.641 101.676 232.601 101.76 232.529 101.832C232.457 101.896 232.373 101.928 232.277 101.928H227.465L227.321 101.28H232.049L231.893 101.424V101.184C231.861 100.808 231.741 100.488 231.533 100.224C231.325 99.96 231.073 99.76 230.777 99.624C230.481 99.488 230.173 99.42 229.853 99.42C229.613 99.42 229.365 99.468 229.109 99.564C228.861 99.66 228.633 99.812 228.425 100.02C228.225 100.22 228.061 100.48 227.933 100.8C227.805 101.112 227.741 101.484 227.741 101.916C227.741 102.388 227.837 102.816 228.029 103.2C228.221 103.584 228.497 103.888 228.857 104.112C229.225 104.336 229.661 104.448 230.165 104.448C230.445 104.448 230.697 104.408 230.921 104.328C231.145 104.248 231.341 104.144 231.509 104.016C231.677 103.88 231.817 103.74 231.929 103.596C232.017 103.524 232.105 103.488 232.193 103.488C232.273 103.488 232.341 103.52 232.397 103.584C232.461 103.648 232.493 103.72 232.493 103.8C232.493 103.896 232.453 103.98 232.373 104.052C232.133 104.34 231.821 104.592 231.437 104.808C231.053 105.016 230.633 105.12 230.177 105.12Z" fill="black"/>
<path d="M44.848 111.576C44.952 111.576 45.04 111.608 45.112 111.672C45.192 111.728 45.232 111.816 45.232 111.936C45.232 111.976 45.224 112.028 45.208 112.092L42.556 119.772C42.532 119.844 42.488 119.9 42.424 119.94C42.36 119.98 42.296 120 42.232 120C42.152 120 42.08 119.984 42.016 119.952C41.952 119.912 41.904 119.852 41.872 119.772L39.748 114.516L39.844 114.54L37.72 119.772C37.688 119.852 37.636 119.912 37.564 119.952C37.5 119.984 37.432 120 37.36 120C37.296 120 37.232 119.98 37.168 119.94C37.112 119.9 37.072 119.844 37.048 119.772L34.396 112.092C34.372 112.028 34.36 111.98 34.36 111.948C34.36 111.828 34.404 111.736 34.492 111.672C34.58 111.608 34.668 111.576 34.756 111.576C34.836 111.576 34.908 111.596 34.972 111.636C35.036 111.676 35.08 111.732 35.104 111.804L37.516 118.836L37.384 118.848L39.472 113.64C39.496 113.568 39.536 113.512 39.592 113.472C39.656 113.424 39.728 113.404 39.808 113.412C39.888 113.404 39.956 113.424 40.012 113.472C40.076 113.512 40.124 113.568 40.156 113.64L42.22 118.824L42.088 118.872L44.488 111.804C44.512 111.732 44.556 111.676 44.62 111.636C44.684 111.596 44.76 111.576 44.848 111.576Z" fill="black"/>
<path d="M49.1341 120.12C48.5181 120.12 47.9741 119.988 47.5021 119.724C47.0301 119.46 46.6621 119.092 46.3981 118.62C46.1341 118.148 46.0021 117.596 46.0021 116.964C46.0021 116.284 46.1341 115.704 46.3981 115.224C46.6701 114.744 47.0181 114.376 47.4421 114.12C47.8741 113.856 48.3301 113.724 48.8101 113.724C49.1621 113.724 49.5021 113.788 49.8301 113.916C50.1661 114.036 50.4621 114.22 50.7181 114.468C50.9821 114.708 51.1901 115.004 51.3421 115.356C51.5021 115.708 51.5901 116.116 51.6061 116.58C51.5981 116.676 51.5581 116.76 51.4861 116.832C51.4141 116.896 51.3301 116.928 51.2341 116.928H46.4221L46.2781 116.28H51.0061L50.8501 116.424V116.184C50.8181 115.808 50.6981 115.488 50.4901 115.224C50.2821 114.96 50.0301 114.76 49.7341 114.624C49.4381 114.488 49.1301 114.42 48.8101 114.42C48.5701 114.42 48.3221 114.468 48.0661 114.564C47.8181 114.66 47.5901 114.812 47.3821 115.02C47.1821 115.22 47.0181 115.48 46.8901 115.8C46.7621 116.112 46.6981 116.484 46.6981 116.916C46.6981 117.388 46.7941 117.816 46.9861 118.2C47.1781 118.584 47.4541 118.888 47.8141 119.112C48.1821 119.336 48.6181 119.448 49.1221 119.448C49.4021 119.448 49.6541 119.408 49.8781 119.328C50.1021 119.248 50.2981 119.144 50.4661 119.016C50.6341 118.88 50.7741 118.74 50.8861 118.596C50.9741 118.524 51.0621 118.488 51.1501 118.488C51.2301 118.488 51.2981 118.52 51.3541 118.584C51.4181 118.648 51.4501 118.72 51.4501 118.8C51.4501 118.896 51.4101 118.98 51.3301 119.052C51.0901 119.34 50.7781 119.592 50.3941 119.808C50.0101 120.016 49.5901 120.12 49.1341 120.12Z" fill="black"/>
<path d="M56.0632 113.724C56.6072 113.724 57.0872 113.86 57.5032 114.132C57.9272 114.404 58.2632 114.78 58.5112 115.26C58.7592 115.732 58.8832 116.28 58.8832 116.904C58.8832 117.512 58.7592 118.06 58.5112 118.548C58.2632 119.036 57.9272 119.42 57.5032 119.7C57.0792 119.98 56.6032 120.12 56.0752 120.12C55.7952 120.12 55.5272 120.076 55.2712 119.988C55.0232 119.9 54.7952 119.784 54.5872 119.64C54.3792 119.488 54.1952 119.312 54.0352 119.112C53.8752 118.912 53.7472 118.696 53.6512 118.464L53.8672 118.308V119.664C53.8672 119.768 53.8312 119.856 53.7592 119.928C53.6952 119.992 53.6112 120.024 53.5072 120.024C53.4032 120.024 53.3152 119.992 53.2432 119.928C53.1792 119.856 53.1472 119.768 53.1472 119.664V111.492C53.1472 111.388 53.1792 111.304 53.2432 111.24C53.3072 111.168 53.3952 111.132 53.5072 111.132C53.6112 111.132 53.6952 111.168 53.7592 111.24C53.8312 111.304 53.8672 111.388 53.8672 111.492V115.512L53.6992 115.416C53.7792 115.168 53.8952 114.944 54.0472 114.744C54.2072 114.536 54.3912 114.356 54.5992 114.204C54.8072 114.052 55.0352 113.936 55.2832 113.856C55.5312 113.768 55.7912 113.724 56.0632 113.724ZM56.0032 114.396C55.5712 114.396 55.1912 114.504 54.8632 114.72C54.5352 114.936 54.2752 115.232 54.0832 115.608C53.8992 115.984 53.8072 116.416 53.8072 116.904C53.8072 117.384 53.8992 117.82 54.0832 118.212C54.2752 118.596 54.5352 118.9 54.8632 119.124C55.1912 119.34 55.5712 119.448 56.0032 119.448C56.4272 119.448 56.7992 119.336 57.1192 119.112C57.4472 118.888 57.7072 118.584 57.8992 118.2C58.0912 117.808 58.1872 117.376 58.1872 116.904C58.1872 116.416 58.0912 115.984 57.8992 115.608C57.7072 115.232 57.4472 114.936 57.1192 114.72C56.7992 114.504 56.4272 114.396 56.0032 114.396Z" fill="black"/>
<path d="M60.5446 118.764C60.5846 118.764 60.6246 118.772 60.6646 118.788C60.7126 118.804 60.7686 118.84 60.8326 118.896C61.0006 119.072 61.2006 119.208 61.4326 119.304C61.6646 119.392 61.9286 119.436 62.2246 119.436C62.6166 119.436 62.9726 119.348 63.2926 119.172C63.6206 118.996 63.8806 118.752 64.0726 118.44C64.2646 118.12 64.3606 117.756 64.3606 117.348C64.3606 116.884 64.2566 116.512 64.0486 116.232C63.8486 115.944 63.5886 115.732 63.2686 115.596C62.9566 115.452 62.6366 115.38 62.3086 115.38C62.2206 115.38 62.1326 115.388 62.0446 115.404C61.9646 115.412 61.8886 115.424 61.8166 115.44C61.7446 115.456 61.6886 115.464 61.6486 115.464C61.5446 115.464 61.4646 115.432 61.4086 115.368C61.3526 115.296 61.3246 115.208 61.3246 115.104C61.3246 115.048 61.3366 115 61.3606 114.96C61.3846 114.912 61.4166 114.86 61.4566 114.804L63.8926 112.152L64.0366 112.344H60.4006C60.3046 112.344 60.2206 112.312 60.1486 112.248C60.0846 112.176 60.0526 112.092 60.0526 111.996C60.0526 111.9 60.0846 111.82 60.1486 111.756C60.2206 111.692 60.3046 111.66 60.4006 111.66H64.4326C64.5686 111.66 64.6646 111.704 64.7206 111.792C64.7766 111.872 64.8046 111.952 64.8046 112.032C64.8046 112.08 64.7926 112.128 64.7686 112.176C64.7446 112.216 64.7126 112.26 64.6726 112.308L62.2366 114.96L61.9726 114.804C61.9966 114.78 62.0766 114.756 62.2126 114.732C62.3566 114.7 62.4686 114.684 62.5486 114.684C62.9886 114.684 63.4006 114.788 63.7846 114.996C64.1766 115.204 64.4926 115.504 64.7326 115.896C64.9806 116.28 65.1046 116.756 65.1046 117.324C65.1046 117.884 64.9726 118.376 64.7086 118.8C64.4446 119.216 64.0886 119.54 63.6406 119.772C63.1926 120.004 62.6966 120.12 62.1526 120.12C61.8246 120.12 61.5006 120.064 61.1806 119.952C60.8606 119.84 60.5806 119.672 60.3406 119.448C60.2846 119.4 60.2446 119.352 60.2206 119.304C60.1966 119.256 60.1846 119.208 60.1846 119.16C60.1846 119.064 60.2166 118.976 60.2806 118.896C60.3526 118.808 60.4406 118.764 60.5446 118.764Z" fill="black"/>
<path d="M70.7908 119.64C70.7908 119.736 70.7548 119.82 70.6828 119.892C70.6108 119.964 70.5268 120 70.4308 120C70.3268 120 70.2388 119.964 70.1668 119.892C70.1028 119.82 70.0708 119.736 70.0708 119.64V111.48C70.0708 111.384 70.1068 111.3 70.1788 111.228C70.2508 111.156 70.3348 111.12 70.4308 111.12C70.5348 111.12 70.6188 111.156 70.6828 111.228C70.7548 111.3 70.7908 111.384 70.7908 111.48V119.64Z" fill="black"/>
<path d="M78.3592 116.928C78.3592 117.536 78.2272 118.084 77.9632 118.572C77.6992 119.052 77.3392 119.432 76.8832 119.712C76.4272 119.984 75.9072 120.12 75.3232 120.12C74.7552 120.12 74.2392 119.984 73.7752 119.712C73.3192 119.432 72.9552 119.052 72.6832 118.572C72.4192 118.084 72.2872 117.536 72.2872 116.928C72.2872 116.312 72.4192 115.764 72.6832 115.284C72.9552 114.804 73.3192 114.424 73.7752 114.144C74.2392 113.864 74.7552 113.724 75.3232 113.724C75.9072 113.724 76.4272 113.864 76.8832 114.144C77.3392 114.424 77.6992 114.804 77.9632 115.284C78.2272 115.764 78.3592 116.312 78.3592 116.928ZM77.6392 116.928C77.6392 116.44 77.5392 116.008 77.3392 115.632C77.1392 115.248 76.8632 114.948 76.5112 114.732C76.1672 114.508 75.7712 114.396 75.3232 114.396C74.8912 114.396 74.4992 114.508 74.1472 114.732C73.7952 114.948 73.5152 115.248 73.3072 115.632C73.1072 116.008 73.0072 116.44 73.0072 116.928C73.0072 117.416 73.1072 117.848 73.3072 118.224C73.5152 118.6 73.7952 118.9 74.1472 119.124C74.4992 119.34 74.8912 119.448 75.3232 119.448C75.7712 119.448 76.1672 119.34 76.5112 119.124C76.8632 118.9 77.1392 118.6 77.3392 118.224C77.5392 117.848 77.6392 117.416 77.6392 116.928Z" fill="black"/>
<path d="M82.4454 113.724C82.8054 113.724 83.1374 113.788 83.4414 113.916C83.7454 114.036 84.0094 114.196 84.2334 114.396C84.4654 114.588 84.6454 114.796 84.7734 115.02C84.9014 115.236 84.9654 115.444 84.9654 115.644L84.7614 115.356V114.24C84.7614 114.136 84.7934 114.048 84.8574 113.976C84.9294 113.904 85.0174 113.868 85.1214 113.868C85.2334 113.868 85.3214 113.904 85.3854 113.976C85.4494 114.048 85.4814 114.136 85.4814 114.24V119.436C85.4814 120.076 85.3494 120.616 85.0854 121.056C84.8214 121.496 84.4614 121.828 84.0054 122.052C83.5574 122.284 83.0454 122.4 82.4694 122.4C82.1894 122.4 81.8934 122.364 81.5814 122.292C81.2774 122.22 81.0134 122.128 80.7894 122.016C80.5734 121.904 80.4534 121.788 80.4294 121.668C80.3654 121.596 80.3334 121.524 80.3334 121.452C80.3414 121.388 80.3774 121.332 80.4414 121.284C80.5214 121.228 80.6054 121.22 80.6934 121.26C80.7814 121.308 80.9134 121.368 81.0894 121.44C81.1694 121.464 81.2774 121.5 81.4134 121.548C81.5494 121.596 81.7094 121.636 81.8934 121.668C82.0854 121.708 82.2854 121.728 82.4934 121.728C83.2134 121.728 83.7694 121.52 84.1614 121.104C84.5614 120.696 84.7614 120.156 84.7614 119.484V118.332L84.8934 118.368C84.8214 118.656 84.7014 118.908 84.5334 119.124C84.3734 119.34 84.1814 119.524 83.9574 119.676C83.7334 119.82 83.4894 119.928 83.2254 120C82.9694 120.08 82.7134 120.12 82.4574 120.12C81.9054 120.12 81.4094 119.98 80.9694 119.7C80.5294 119.42 80.1774 119.04 79.9134 118.56C79.6574 118.08 79.5294 117.532 79.5294 116.916C79.5294 116.308 79.6574 115.764 79.9134 115.284C80.1774 114.796 80.5254 114.416 80.9574 114.144C81.3974 113.864 81.8934 113.724 82.4454 113.724ZM82.5294 114.396C82.0894 114.396 81.6934 114.508 81.3414 114.732C80.9974 114.948 80.7254 115.248 80.5254 115.632C80.3334 116.008 80.2374 116.436 80.2374 116.916C80.2374 117.396 80.3334 117.828 80.5254 118.212C80.7254 118.596 80.9974 118.9 81.3414 119.124C81.6934 119.34 82.0894 119.448 82.5294 119.448C82.9694 119.448 83.3614 119.34 83.7054 119.124C84.0494 118.908 84.3214 118.612 84.5214 118.236C84.7214 117.852 84.8214 117.412 84.8214 116.916C84.8214 116.42 84.7214 115.984 84.5214 115.608C84.3214 115.224 84.0494 114.928 83.7054 114.72C83.3614 114.504 82.9694 114.396 82.5294 114.396Z" fill="black"/>
<path d="M88.0737 119.64C88.0737 119.736 88.0377 119.82 87.9657 119.892C87.8937 119.964 87.8097 120 87.7137 120C87.6097 120 87.5217 119.964 87.4497 119.892C87.3857 119.82 87.3537 119.736 87.3537 119.64V114.12C87.3537 114.024 87.3857 113.94 87.4497 113.868C87.5217 113.796 87.6097 113.76 87.7137 113.76C87.8177 113.76 87.9017 113.796 87.9657 113.868C88.0377 113.94 88.0737 114.024 88.0737 114.12V119.64ZM87.7137 112.956C87.5457 112.956 87.4177 112.92 87.3297 112.848C87.2497 112.768 87.2097 112.656 87.2097 112.512V112.392C87.2097 112.248 87.2537 112.14 87.3417 112.068C87.4377 111.988 87.5657 111.948 87.7257 111.948C87.8777 111.948 87.9937 111.988 88.0737 112.068C88.1617 112.14 88.2057 112.248 88.2057 112.392V112.512C88.2057 112.656 88.1617 112.768 88.0737 112.848C87.9937 112.92 87.8737 112.956 87.7137 112.956Z" fill="black"/>
<path d="M92.8361 113.724C93.3641 113.724 93.7841 113.832 94.0961 114.048C94.4161 114.256 94.6441 114.544 94.7801 114.912C94.9241 115.272 94.9961 115.672 94.9961 116.112V119.64C94.9961 119.736 94.9601 119.82 94.8881 119.892C94.8161 119.964 94.7321 120 94.6361 120C94.5241 120 94.4361 119.964 94.3721 119.892C94.3081 119.82 94.2761 119.736 94.2761 119.64V116.148C94.2761 115.828 94.2241 115.536 94.1201 115.272C94.0161 115.008 93.8441 114.796 93.6041 114.636C93.3721 114.476 93.0641 114.396 92.6801 114.396C92.3361 114.396 92.0081 114.476 91.6961 114.636C91.3921 114.796 91.1441 115.008 90.9521 115.272C90.7601 115.536 90.6641 115.828 90.6641 116.148V119.64C90.6641 119.736 90.6281 119.82 90.5561 119.892C90.4841 119.964 90.4001 120 90.3041 120C90.1921 120 90.1041 119.964 90.0401 119.892C89.9761 119.82 89.9441 119.736 89.9441 119.64V114.264C89.9441 114.168 89.9761 114.084 90.0401 114.012C90.1121 113.94 90.2001 113.904 90.3041 113.904C90.4081 113.904 90.4921 113.94 90.5561 114.012C90.6281 114.084 90.6641 114.168 90.6641 114.264V115.272L90.3881 115.704C90.4041 115.448 90.4841 115.204 90.6281 114.972C90.7801 114.732 90.9721 114.52 91.2041 114.336C91.4361 114.144 91.6921 113.996 91.9721 113.892C92.2601 113.78 92.5481 113.724 92.8361 113.724Z" fill="black"/>
<path d="M105.191 113.868C105.295 113.868 105.379 113.904 105.443 113.976C105.515 114.048 105.551 114.136 105.551 114.24V119.64C105.551 119.736 105.515 119.82 105.443 119.892C105.371 119.964 105.287 120 105.191 120C105.087 120 104.999 119.964 104.927 119.892C104.863 119.82 104.831 119.736 104.831 119.64V118.212L105.035 118.116C105.035 118.34 104.971 118.568 104.843 118.8C104.723 119.032 104.555 119.248 104.339 119.448C104.123 119.648 103.867 119.812 103.571 119.94C103.283 120.06 102.971 120.12 102.635 120.12C102.091 120.12 101.603 119.98 101.171 119.7C100.747 119.42 100.411 119.036 100.163 118.548C99.9228 118.06 99.8028 117.512 99.8028 116.904C99.8028 116.28 99.9268 115.732 100.175 115.26C100.423 114.78 100.759 114.404 101.183 114.132C101.607 113.86 102.087 113.724 102.623 113.724C102.967 113.724 103.287 113.784 103.583 113.904C103.887 114.024 104.151 114.188 104.375 114.396C104.599 114.604 104.771 114.844 104.891 115.116C105.019 115.38 105.083 115.656 105.083 115.944L104.831 115.764V114.24C104.831 114.136 104.863 114.048 104.927 113.976C104.999 113.904 105.087 113.868 105.191 113.868ZM102.695 119.448C103.119 119.448 103.495 119.34 103.823 119.124C104.151 118.9 104.407 118.596 104.591 118.212C104.783 117.82 104.879 117.384 104.879 116.904C104.879 116.432 104.783 116.008 104.591 115.632C104.407 115.256 104.151 114.956 103.823 114.732C103.495 114.508 103.119 114.396 102.695 114.396C102.279 114.396 101.903 114.504 101.567 114.72C101.239 114.936 100.979 115.232 100.787 115.608C100.603 115.984 100.511 116.416 100.511 116.904C100.511 117.384 100.603 117.82 100.787 118.212C100.979 118.596 101.239 118.9 101.567 119.124C101.895 119.34 102.271 119.448 102.695 119.448Z" fill="black"/>
<path d="M110.332 113.724C110.86 113.724 111.28 113.832 111.592 114.048C111.912 114.256 112.14 114.544 112.276 114.912C112.42 115.272 112.492 115.672 112.492 116.112V119.64C112.492 119.736 112.456 119.82 112.384 119.892C112.312 119.964 112.228 120 112.132 120C112.02 120 111.932 119.964 111.868 119.892C111.804 119.82 111.772 119.736 111.772 119.64V116.148C111.772 115.828 111.72 115.536 111.616 115.272C111.512 115.008 111.34 114.796 111.1 114.636C110.868 114.476 110.56 114.396 110.176 114.396C109.832 114.396 109.504 114.476 109.192 114.636C108.888 114.796 108.64 115.008 108.448 115.272C108.256 115.536 108.16 115.828 108.16 116.148V119.64C108.16 119.736 108.124 119.82 108.052 119.892C107.98 119.964 107.896 120 107.8 120C107.688 120 107.6 119.964 107.536 119.892C107.472 119.82 107.44 119.736 107.44 119.64V114.264C107.44 114.168 107.472 114.084 107.536 114.012C107.608 113.94 107.696 113.904 107.8 113.904C107.904 113.904 107.988 113.94 108.052 114.012C108.124 114.084 108.16 114.168 108.16 114.264V115.272L107.884 115.704C107.9 115.448 107.98 115.204 108.124 114.972C108.276 114.732 108.468 114.52 108.7 114.336C108.932 114.144 109.188 113.996 109.468 113.892C109.756 113.78 110.044 113.724 110.332 113.724Z" fill="black"/>
<path d="M119.406 111.12C119.51 111.12 119.594 111.156 119.658 111.228C119.73 111.292 119.766 111.376 119.766 111.48V119.64C119.766 119.736 119.73 119.82 119.658 119.892C119.586 119.964 119.502 120 119.406 120C119.302 120 119.214 119.964 119.142 119.892C119.078 119.82 119.046 119.736 119.046 119.64V118.212L119.25 118.044C119.25 118.268 119.19 118.504 119.07 118.752C118.95 118.992 118.778 119.216 118.554 119.424C118.338 119.632 118.082 119.8 117.786 119.928C117.498 120.056 117.186 120.12 116.85 120.12C116.314 120.12 115.83 119.98 115.398 119.7C114.974 119.42 114.638 119.04 114.39 118.56C114.142 118.08 114.018 117.532 114.018 116.916C114.018 116.308 114.142 115.764 114.39 115.284C114.638 114.796 114.974 114.416 115.398 114.144C115.822 113.864 116.302 113.724 116.838 113.724C117.166 113.724 117.478 113.784 117.774 113.904C118.07 114.024 118.33 114.188 118.554 114.396C118.786 114.604 118.966 114.844 119.094 115.116C119.23 115.38 119.298 115.656 119.298 115.944L119.046 115.764V111.48C119.046 111.384 119.078 111.3 119.142 111.228C119.214 111.156 119.302 111.12 119.406 111.12ZM116.91 119.448C117.342 119.448 117.718 119.34 118.038 119.124C118.366 118.9 118.622 118.6 118.806 118.224C118.998 117.84 119.094 117.404 119.094 116.916C119.094 116.436 118.998 116.008 118.806 115.632C118.622 115.248 118.366 114.948 118.038 114.732C117.71 114.508 117.334 114.396 116.91 114.396C116.494 114.396 116.118 114.508 115.782 114.732C115.454 114.948 115.194 115.248 115.002 115.632C114.818 116.008 114.726 116.436 114.726 116.916C114.726 117.396 114.818 117.828 115.002 118.212C115.194 118.596 115.454 118.9 115.782 119.124C116.118 119.34 116.494 119.448 116.91 119.448Z" fill="black"/>
<path d="M124.54 113.892H127.336C127.432 113.892 127.512 113.928 127.576 114C127.64 114.064 127.672 114.144 127.672 114.24C127.672 114.328 127.64 114.404 127.576 114.468C127.512 114.532 127.432 114.564 127.336 114.564H124.54C124.444 114.564 124.36 114.532 124.288 114.468C124.224 114.396 124.192 114.316 124.192 114.228C124.192 114.132 124.224 114.052 124.288 113.988C124.36 113.924 124.444 113.892 124.54 113.892ZM125.776 112.2C125.88 112.2 125.964 112.236 126.028 112.308C126.1 112.38 126.136 112.464 126.136 112.56V118.584C126.136 118.808 126.164 118.976 126.22 119.088C126.284 119.2 126.364 119.276 126.46 119.316C126.556 119.348 126.652 119.364 126.748 119.364C126.812 119.364 126.868 119.356 126.916 119.34C126.972 119.316 127.032 119.304 127.096 119.304C127.168 119.304 127.228 119.332 127.276 119.388C127.332 119.444 127.36 119.516 127.36 119.604C127.36 119.716 127.296 119.812 127.168 119.892C127.04 119.964 126.888 120 126.712 120C126.64 120 126.532 119.996 126.388 119.988C126.244 119.972 126.096 119.928 125.944 119.856C125.792 119.776 125.664 119.64 125.56 119.448C125.464 119.256 125.416 118.98 125.416 118.62V112.56C125.416 112.464 125.448 112.38 125.512 112.308C125.584 112.236 125.672 112.2 125.776 112.2Z" fill="black"/>
<path d="M131.799 113.82C132.303 113.82 132.711 113.928 133.023 114.144C133.335 114.36 133.563 114.652 133.707 115.02C133.859 115.388 133.935 115.796 133.935 116.244V119.64C133.935 119.736 133.899 119.82 133.827 119.892C133.755 119.964 133.671 120 133.575 120C133.463 120 133.375 119.964 133.311 119.892C133.247 119.82 133.215 119.736 133.215 119.64V116.244C133.215 115.916 133.163 115.62 133.059 115.356C132.963 115.092 132.803 114.884 132.579 114.732C132.355 114.572 132.055 114.492 131.679 114.492C131.343 114.492 131.023 114.572 130.719 114.732C130.423 114.884 130.183 115.092 129.999 115.356C129.815 115.62 129.723 115.916 129.723 116.244V119.64C129.723 119.736 129.687 119.82 129.615 119.892C129.543 119.964 129.459 120 129.363 120C129.251 120 129.163 119.964 129.099 119.892C129.035 119.82 129.003 119.736 129.003 119.64V111.48C129.003 111.384 129.035 111.3 129.099 111.228C129.171 111.156 129.259 111.12 129.363 111.12C129.467 111.12 129.551 111.156 129.615 111.228C129.687 111.3 129.723 111.384 129.723 111.48V115.368L129.447 115.788C129.463 115.54 129.539 115.3 129.675 115.068C129.819 114.828 130.003 114.616 130.227 114.432C130.451 114.24 130.699 114.092 130.971 113.988C131.243 113.876 131.519 113.82 131.799 113.82Z" fill="black"/>
<path d="M138.595 120.12C137.979 120.12 137.435 119.988 136.963 119.724C136.491 119.46 136.123 119.092 135.859 118.62C135.595 118.148 135.463 117.596 135.463 116.964C135.463 116.284 135.595 115.704 135.859 115.224C136.131 114.744 136.479 114.376 136.903 114.12C137.335 113.856 137.791 113.724 138.271 113.724C138.623 113.724 138.963 113.788 139.291 113.916C139.627 114.036 139.923 114.22 140.179 114.468C140.443 114.708 140.651 115.004 140.803 115.356C140.963 115.708 141.051 116.116 141.067 116.58C141.059 116.676 141.019 116.76 140.947 116.832C140.875 116.896 140.791 116.928 140.695 116.928H135.883L135.739 116.28H140.467L140.311 116.424V116.184C140.279 115.808 140.159 115.488 139.951 115.224C139.743 114.96 139.491 114.76 139.195 114.624C138.899 114.488 138.591 114.42 138.271 114.42C138.031 114.42 137.783 114.468 137.527 114.564C137.279 114.66 137.051 114.812 136.843 115.02C136.643 115.22 136.479 115.48 136.351 115.8C136.223 116.112 136.159 116.484 136.159 116.916C136.159 117.388 136.255 117.816 136.447 118.2C136.639 118.584 136.915 118.888 137.275 119.112C137.643 119.336 138.079 119.448 138.583 119.448C138.863 119.448 139.115 119.408 139.339 119.328C139.563 119.248 139.759 119.144 139.927 119.016C140.095 118.88 140.235 118.74 140.347 118.596C140.435 118.524 140.523 118.488 140.611 118.488C140.691 118.488 140.759 118.52 140.815 118.584C140.879 118.648 140.911 118.72 140.911 118.8C140.911 118.896 140.871 118.98 140.791 119.052C140.551 119.34 140.239 119.592 139.855 119.808C139.471 120.016 139.051 120.12 138.595 120.12Z" fill="black"/>
<path d="M147.122 113.76C147.226 113.76 147.31 113.796 147.374 113.868C147.446 113.94 147.482 114.024 147.482 114.12V119.412C147.482 120.06 147.354 120.604 147.098 121.044C146.842 121.492 146.498 121.828 146.066 122.052C145.634 122.284 145.142 122.4 144.59 122.4C144.246 122.4 143.926 122.36 143.63 122.28C143.342 122.208 143.106 122.112 142.922 121.992C142.826 121.936 142.754 121.868 142.706 121.788C142.658 121.708 142.654 121.624 142.694 121.536C142.734 121.424 142.794 121.348 142.874 121.308C142.962 121.276 143.05 121.28 143.138 121.32C143.274 121.392 143.47 121.48 143.726 121.584C143.982 121.688 144.274 121.74 144.602 121.74C145.042 121.74 145.422 121.648 145.742 121.464C146.07 121.28 146.322 121.012 146.498 120.66C146.674 120.316 146.762 119.904 146.762 119.424V118.56L146.846 118.848C146.726 119.096 146.554 119.316 146.33 119.508C146.114 119.7 145.862 119.852 145.574 119.964C145.294 120.068 144.994 120.12 144.674 120.12C144.194 120.12 143.794 120.024 143.474 119.832C143.162 119.632 142.93 119.36 142.778 119.016C142.626 118.672 142.55 118.268 142.55 117.804V114.12C142.55 114.024 142.582 113.94 142.646 113.868C142.71 113.796 142.798 113.76 142.91 113.76C143.014 113.76 143.098 113.796 143.162 113.868C143.234 113.94 143.27 114.024 143.27 114.12V117.696C143.27 118.256 143.39 118.688 143.63 118.992C143.878 119.296 144.278 119.448 144.83 119.448C145.174 119.448 145.49 119.368 145.778 119.208C146.066 119.04 146.302 118.824 146.486 118.56C146.67 118.288 146.762 118 146.762 117.696V114.12C146.762 114.024 146.794 113.94 146.858 113.868C146.93 113.796 147.018 113.76 147.122 113.76Z" fill="black"/>
<path d="M159.935 113.736C160.023 113.736 160.103 113.768 160.175 113.832C160.255 113.896 160.295 113.984 160.295 114.096C160.295 114.12 160.291 114.148 160.283 114.18C160.275 114.212 160.267 114.236 160.259 114.252L158.411 119.772C158.379 119.844 158.327 119.904 158.255 119.952C158.191 119.992 158.123 120.008 158.051 120C157.907 119.992 157.799 119.916 157.727 119.772L156.035 115.788L156.251 115.836L154.751 119.772C154.687 119.916 154.579 119.992 154.427 120C154.355 120.008 154.283 119.992 154.211 119.952C154.139 119.904 154.091 119.844 154.067 119.772L152.171 114.252C152.147 114.196 152.135 114.144 152.135 114.096C152.135 113.992 152.167 113.908 152.231 113.844C152.303 113.772 152.395 113.736 152.507 113.736C152.579 113.736 152.643 113.756 152.699 113.796C152.763 113.836 152.807 113.896 152.831 113.976L154.535 119.088L154.307 119.076L155.855 115.176C155.919 115.024 156.031 114.948 156.191 114.948C156.271 114.948 156.339 114.968 156.395 115.008C156.451 115.048 156.495 115.104 156.527 115.176L158.171 119.088L157.907 119.1L159.599 113.976C159.647 113.816 159.759 113.736 159.935 113.736Z" fill="black"/>
<path d="M167.387 116.928C167.387 117.536 167.255 118.084 166.991 118.572C166.727 119.052 166.367 119.432 165.911 119.712C165.455 119.984 164.935 120.12 164.351 120.12C163.783 120.12 163.267 119.984 162.803 119.712C162.347 119.432 161.983 119.052 161.711 118.572C161.447 118.084 161.315 117.536 161.315 116.928C161.315 116.312 161.447 115.764 161.711 115.284C161.983 114.804 162.347 114.424 162.803 114.144C163.267 113.864 163.783 113.724 164.351 113.724C164.935 113.724 165.455 113.864 165.911 114.144C166.367 114.424 166.727 114.804 166.991 115.284C167.255 115.764 167.387 116.312 167.387 116.928ZM166.667 116.928C166.667 116.44 166.567 116.008 166.367 115.632C166.167 115.248 165.891 114.948 165.539 114.732C165.195 114.508 164.799 114.396 164.351 114.396C163.919 114.396 163.527 114.508 163.175 114.732C162.823 114.948 162.543 115.248 162.335 115.632C162.135 116.008 162.035 116.44 162.035 116.928C162.035 117.416 162.135 117.848 162.335 118.224C162.543 118.6 162.823 118.9 163.175 119.124C163.527 119.34 163.919 119.448 164.351 119.448C164.799 119.448 165.195 119.34 165.539 119.124C165.891 118.9 166.167 118.6 166.367 118.224C166.567 117.848 166.667 117.416 166.667 116.928Z" fill="black"/>
<path d="M171.809 113.724C172.337 113.724 172.757 113.832 173.069 114.048C173.389 114.256 173.617 114.544 173.753 114.912C173.897 115.272 173.969 115.672 173.969 116.112V119.64C173.969 119.736 173.933 119.82 173.861 119.892C173.789 119.964 173.705 120 173.609 120C173.497 120 173.409 119.964 173.345 119.892C173.281 119.82 173.249 119.736 173.249 119.64V116.148C173.249 115.828 173.197 115.536 173.093 115.272C172.989 115.008 172.817 114.796 172.577 114.636C172.345 114.476 172.037 114.396 171.653 114.396C171.309 114.396 170.981 114.476 170.669 114.636C170.365 114.796 170.117 115.008 169.925 115.272C169.733 115.536 169.637 115.828 169.637 116.148V119.64C169.637 119.736 169.601 119.82 169.529 119.892C169.457 119.964 169.373 120 169.277 120C169.165 120 169.077 119.964 169.013 119.892C168.949 119.82 168.917 119.736 168.917 119.64V114.264C168.917 114.168 168.949 114.084 169.013 114.012C169.085 113.94 169.173 113.904 169.277 113.904C169.381 113.904 169.465 113.94 169.529 114.012C169.601 114.084 169.637 114.168 169.637 114.264V115.272L169.361 115.704C169.377 115.448 169.457 115.204 169.601 114.972C169.753 114.732 169.945 114.52 170.177 114.336C170.409 114.144 170.665 113.996 170.945 113.892C171.233 113.78 171.521 113.724 171.809 113.724Z" fill="black"/>
<path d="M175.458 113.892H178.254C178.35 113.892 178.43 113.928 178.494 114C178.558 114.064 178.59 114.144 178.59 114.24C178.59 114.328 178.558 114.404 178.494 114.468C178.43 114.532 178.35 114.564 178.254 114.564H175.458C175.362 114.564 175.278 114.532 175.206 114.468C175.142 114.396 175.11 114.316 175.11 114.228C175.11 114.132 175.142 114.052 175.206 113.988C175.278 113.924 175.362 113.892 175.458 113.892ZM176.694 112.2C176.798 112.2 176.882 112.236 176.946 112.308C177.018 112.38 177.054 112.464 177.054 112.56V118.584C177.054 118.808 177.082 118.976 177.138 119.088C177.202 119.2 177.282 119.276 177.378 119.316C177.474 119.348 177.57 119.364 177.666 119.364C177.73 119.364 177.786 119.356 177.834 119.34C177.89 119.316 177.95 119.304 178.014 119.304C178.086 119.304 178.146 119.332 178.194 119.388C178.25 119.444 178.278 119.516 178.278 119.604C178.278 119.716 178.214 119.812 178.086 119.892C177.958 119.964 177.806 120 177.63 120C177.558 120 177.45 119.996 177.306 119.988C177.162 119.972 177.014 119.928 176.862 119.856C176.71 119.776 176.582 119.64 176.478 119.448C176.382 119.256 176.334 118.98 176.334 118.62V112.56C176.334 112.464 176.366 112.38 176.43 112.308C176.502 112.236 176.59 112.2 176.694 112.2Z" fill="black"/>
<path d="M185.758 113.724C186.118 113.724 186.45 113.788 186.754 113.916C187.058 114.036 187.322 114.196 187.546 114.396C187.778 114.588 187.958 114.796 188.086 115.02C188.214 115.236 188.278 115.444 188.278 115.644L188.074 115.356V114.24C188.074 114.136 188.106 114.048 188.17 113.976C188.242 113.904 188.33 113.868 188.434 113.868C188.546 113.868 188.634 113.904 188.698 113.976C188.762 114.048 188.794 114.136 188.794 114.24V119.436C188.794 120.076 188.662 120.616 188.398 121.056C188.134 121.496 187.774 121.828 187.318 122.052C186.87 122.284 186.358 122.4 185.782 122.4C185.502 122.4 185.206 122.364 184.894 122.292C184.59 122.22 184.326 122.128 184.102 122.016C183.886 121.904 183.766 121.788 183.742 121.668C183.678 121.596 183.646 121.524 183.646 121.452C183.654 121.388 183.69 121.332 183.754 121.284C183.834 121.228 183.918 121.22 184.006 121.26C184.094 121.308 184.226 121.368 184.402 121.44C184.482 121.464 184.59 121.5 184.726 121.548C184.862 121.596 185.022 121.636 185.206 121.668C185.398 121.708 185.598 121.728 185.806 121.728C186.526 121.728 187.082 121.52 187.474 121.104C187.874 120.696 188.074 120.156 188.074 119.484V118.332L188.206 118.368C188.134 118.656 188.014 118.908 187.846 119.124C187.686 119.34 187.494 119.524 187.27 119.676C187.046 119.82 186.802 119.928 186.538 120C186.282 120.08 186.026 120.12 185.77 120.12C185.218 120.12 184.722 119.98 184.282 119.7C183.842 119.42 183.49 119.04 183.226 118.56C182.97 118.08 182.842 117.532 182.842 116.916C182.842 116.308 182.97 115.764 183.226 115.284C183.49 114.796 183.838 114.416 184.27 114.144C184.71 113.864 185.206 113.724 185.758 113.724ZM185.842 114.396C185.402 114.396 185.006 114.508 184.654 114.732C184.31 114.948 184.038 115.248 183.838 115.632C183.646 116.008 183.55 116.436 183.55 116.916C183.55 117.396 183.646 117.828 183.838 118.212C184.038 118.596 184.31 118.9 184.654 119.124C185.006 119.34 185.402 119.448 185.842 119.448C186.282 119.448 186.674 119.34 187.018 119.124C187.362 118.908 187.634 118.612 187.834 118.236C188.034 117.852 188.134 117.412 188.134 116.916C188.134 116.42 188.034 115.984 187.834 115.608C187.634 115.224 187.362 114.928 187.018 114.72C186.674 114.504 186.282 114.396 185.842 114.396Z" fill="black"/>
<path d="M193.228 120.12C192.612 120.12 192.068 119.988 191.596 119.724C191.124 119.46 190.756 119.092 190.492 118.62C190.228 118.148 190.096 117.596 190.096 116.964C190.096 116.284 190.228 115.704 190.492 115.224C190.764 114.744 191.112 114.376 191.536 114.12C191.968 113.856 192.424 113.724 192.904 113.724C193.256 113.724 193.596 113.788 193.924 113.916C194.26 114.036 194.556 114.22 194.812 114.468C195.076 114.708 195.284 115.004 195.436 115.356C195.596 115.708 195.684 116.116 195.7 116.58C195.692 116.676 195.652 116.76 195.58 116.832C195.508 116.896 195.424 116.928 195.328 116.928H190.516L190.372 116.28H195.1L194.944 116.424V116.184C194.912 115.808 194.792 115.488 194.584 115.224C194.376 114.96 194.124 114.76 193.828 114.624C193.532 114.488 193.224 114.42 192.904 114.42C192.664 114.42 192.416 114.468 192.16 114.564C191.912 114.66 191.684 114.812 191.476 115.02C191.276 115.22 191.112 115.48 190.984 115.8C190.856 116.112 190.792 116.484 190.792 116.916C190.792 117.388 190.888 117.816 191.08 118.2C191.272 118.584 191.548 118.888 191.908 119.112C192.276 119.336 192.712 119.448 193.216 119.448C193.496 119.448 193.748 119.408 193.972 119.328C194.196 119.248 194.392 119.144 194.56 119.016C194.728 118.88 194.868 118.74 194.98 118.596C195.068 118.524 195.156 118.488 195.244 118.488C195.324 118.488 195.392 118.52 195.448 118.584C195.512 118.648 195.544 118.72 195.544 118.8C195.544 118.896 195.504 118.98 195.424 119.052C195.184 119.34 194.872 119.592 194.488 119.808C194.104 120.016 193.684 120.12 193.228 120.12Z" fill="black"/>
<path d="M196.845 113.892H199.641C199.737 113.892 199.817 113.928 199.881 114C199.945 114.064 199.977 114.144 199.977 114.24C199.977 114.328 199.945 114.404 199.881 114.468C199.817 114.532 199.737 114.564 199.641 114.564H196.845C196.749 114.564 196.665 114.532 196.593 114.468C196.529 114.396 196.497 114.316 196.497 114.228C196.497 114.132 196.529 114.052 196.593 113.988C196.665 113.924 196.749 113.892 196.845 113.892ZM198.081 112.2C198.185 112.2 198.269 112.236 198.333 112.308C198.405 112.38 198.441 112.464 198.441 112.56V118.584C198.441 118.808 198.469 118.976 198.525 119.088C198.589 119.2 198.669 119.276 198.765 119.316C198.861 119.348 198.957 119.364 199.053 119.364C199.117 119.364 199.173 119.356 199.221 119.34C199.277 119.316 199.337 119.304 199.401 119.304C199.473 119.304 199.533 119.332 199.581 119.388C199.637 119.444 199.665 119.516 199.665 119.604C199.665 119.716 199.601 119.812 199.473 119.892C199.345 119.964 199.193 120 199.017 120C198.945 120 198.837 119.996 198.693 119.988C198.549 119.972 198.401 119.928 198.249 119.856C198.097 119.776 197.969 119.64 197.865 119.448C197.769 119.256 197.721 118.98 197.721 118.62V112.56C197.721 112.464 197.753 112.38 197.817 112.308C197.889 112.236 197.977 112.2 198.081 112.2Z" fill="black"/>
<path d="M209.617 113.868C209.721 113.868 209.805 113.904 209.869 113.976C209.941 114.048 209.977 114.136 209.977 114.24V119.64C209.977 119.736 209.941 119.82 209.869 119.892C209.797 119.964 209.713 120 209.617 120C209.513 120 209.425 119.964 209.353 119.892C209.289 119.82 209.257 119.736 209.257 119.64V118.212L209.461 118.116C209.461 118.34 209.397 118.568 209.269 118.8C209.149 119.032 208.981 119.248 208.765 119.448C208.549 119.648 208.293 119.812 207.997 119.94C207.709 120.06 207.397 120.12 207.061 120.12C206.517 120.12 206.029 119.98 205.597 119.7C205.173 119.42 204.837 119.036 204.589 118.548C204.349 118.06 204.229 117.512 204.229 116.904C204.229 116.28 204.353 115.732 204.601 115.26C204.849 114.78 205.185 114.404 205.609 114.132C206.033 113.86 206.513 113.724 207.049 113.724C207.393 113.724 207.713 113.784 208.009 113.904C208.313 114.024 208.577 114.188 208.801 114.396C209.025 114.604 209.197 114.844 209.317 115.116C209.445 115.38 209.509 115.656 209.509 115.944L209.257 115.764V114.24C209.257 114.136 209.289 114.048 209.353 113.976C209.425 113.904 209.513 113.868 209.617 113.868ZM207.121 119.448C207.545 119.448 207.921 119.34 208.249 119.124C208.577 118.9 208.833 118.596 209.017 118.212C209.209 117.82 209.305 117.384 209.305 116.904C209.305 116.432 209.209 116.008 209.017 115.632C208.833 115.256 208.577 114.956 208.249 114.732C207.921 114.508 207.545 114.396 207.121 114.396C206.705 114.396 206.329 114.504 205.993 114.72C205.665 114.936 205.405 115.232 205.213 115.608C205.029 115.984 204.937 116.416 204.937 116.904C204.937 117.384 205.029 117.82 205.213 118.212C205.405 118.596 205.665 118.9 205.993 119.124C206.321 119.34 206.697 119.448 207.121 119.448Z" fill="black"/>
<path d="M214.758 113.724C215.286 113.724 215.706 113.832 216.018 114.048C216.338 114.256 216.566 114.544 216.702 114.912C216.846 115.272 216.918 115.672 216.918 116.112V119.64C216.918 119.736 216.882 119.82 216.81 119.892C216.738 119.964 216.654 120 216.558 120C216.446 120 216.358 119.964 216.294 119.892C216.23 119.82 216.198 119.736 216.198 119.64V116.148C216.198 115.828 216.146 115.536 216.042 115.272C215.938 115.008 215.766 114.796 215.526 114.636C215.294 114.476 214.986 114.396 214.602 114.396C214.258 114.396 213.93 114.476 213.618 114.636C213.314 114.796 213.066 115.008 212.874 115.272C212.682 115.536 212.586 115.828 212.586 116.148V119.64C212.586 119.736 212.55 119.82 212.478 119.892C212.406 119.964 212.322 120 212.226 120C212.114 120 212.026 119.964 211.962 119.892C211.898 119.82 211.866 119.736 211.866 119.64V114.264C211.866 114.168 211.898 114.084 211.962 114.012C212.034 113.94 212.122 113.904 212.226 113.904C212.33 113.904 212.414 113.94 212.478 114.012C212.55 114.084 212.586 114.168 212.586 114.264V115.272L212.31 115.704C212.326 115.448 212.406 115.204 212.55 114.972C212.702 114.732 212.894 114.52 213.126 114.336C213.358 114.144 213.614 113.996 213.894 113.892C214.182 113.78 214.47 113.724 214.758 113.724Z" fill="black"/>
<path d="M223.317 113.76C223.421 113.76 223.505 113.796 223.569 113.868C223.641 113.94 223.677 114.024 223.677 114.12V119.412C223.677 120.06 223.549 120.604 223.293 121.044C223.037 121.492 222.693 121.828 222.261 122.052C221.829 122.284 221.337 122.4 220.785 122.4C220.441 122.4 220.121 122.36 219.825 122.28C219.537 122.208 219.301 122.112 219.117 121.992C219.021 121.936 218.949 121.868 218.901 121.788C218.853 121.708 218.849 121.624 218.889 121.536C218.929 121.424 218.989 121.348 219.069 121.308C219.157 121.276 219.245 121.28 219.333 121.32C219.469 121.392 219.665 121.48 219.921 121.584C220.177 121.688 220.469 121.74 220.797 121.74C221.237 121.74 221.617 121.648 221.937 121.464C222.265 121.28 222.517 121.012 222.693 120.66C222.869 120.316 222.957 119.904 222.957 119.424V118.56L223.041 118.848C222.921 119.096 222.749 119.316 222.525 119.508C222.309 119.7 222.057 119.852 221.769 119.964C221.489 120.068 221.189 120.12 220.869 120.12C220.389 120.12 219.989 120.024 219.669 119.832C219.357 119.632 219.125 119.36 218.973 119.016C218.821 118.672 218.745 118.268 218.745 117.804V114.12C218.745 114.024 218.777 113.94 218.841 113.868C218.905 113.796 218.993 113.76 219.105 113.76C219.209 113.76 219.293 113.796 219.357 113.868C219.429 113.94 219.465 114.024 219.465 114.12V117.696C219.465 118.256 219.585 118.688 219.825 118.992C220.073 119.296 220.473 119.448 221.025 119.448C221.369 119.448 221.685 119.368 221.973 119.208C222.261 119.04 222.497 118.824 222.681 118.56C222.865 118.288 222.957 118 222.957 117.696V114.12C222.957 114.024 222.989 113.94 223.053 113.868C223.125 113.796 223.213 113.76 223.317 113.76Z" fill="black"/>
<path d="M234.558 116.928C234.558 117.536 234.426 118.084 234.162 118.572C233.898 119.052 233.538 119.432 233.082 119.712C232.626 119.984 232.106 120.12 231.522 120.12C230.954 120.12 230.438 119.984 229.974 119.712C229.518 119.432 229.154 119.052 228.882 118.572C228.618 118.084 228.486 117.536 228.486 116.928C228.486 116.312 228.618 115.764 228.882 115.284C229.154 114.804 229.518 114.424 229.974 114.144C230.438 113.864 230.954 113.724 231.522 113.724C232.106 113.724 232.626 113.864 233.082 114.144C233.538 114.424 233.898 114.804 234.162 115.284C234.426 115.764 234.558 116.312 234.558 116.928ZM233.838 116.928C233.838 116.44 233.738 116.008 233.538 115.632C233.338 115.248 233.062 114.948 232.71 114.732C232.366 114.508 231.97 114.396 231.522 114.396C231.09 114.396 230.698 114.508 230.346 114.732C229.994 114.948 229.714 115.248 229.506 115.632C229.306 116.008 229.206 116.44 229.206 116.928C229.206 117.416 229.306 117.848 229.506 118.224C229.714 118.6 229.994 118.9 230.346 119.124C230.698 119.34 231.09 119.448 231.522 119.448C231.97 119.448 232.366 119.34 232.71 119.124C233.062 118.9 233.338 118.6 233.538 118.224C233.738 117.848 233.838 117.416 233.838 116.928Z" fill="black"/>
<path d="M238.309 111.168C238.429 111.168 238.557 111.18 238.693 111.204C238.837 111.228 238.961 111.272 239.065 111.336C239.169 111.392 239.221 111.48 239.221 111.6C239.221 111.688 239.189 111.768 239.125 111.84C239.061 111.904 238.989 111.936 238.909 111.936C238.829 111.936 238.729 111.916 238.609 111.876C238.489 111.828 238.361 111.804 238.225 111.804C238.057 111.804 237.913 111.844 237.793 111.924C237.673 111.996 237.581 112.104 237.517 112.248C237.453 112.384 237.421 112.552 237.421 112.752V119.64C237.421 119.736 237.385 119.82 237.313 119.892C237.249 119.964 237.165 120 237.061 120C236.957 120 236.869 119.964 236.797 119.892C236.733 119.82 236.701 119.736 236.701 119.64V112.752C236.701 112.24 236.849 111.848 237.145 111.576C237.449 111.304 237.837 111.168 238.309 111.168ZM238.765 113.988C238.861 113.988 238.941 114.02 239.005 114.084C239.069 114.148 239.101 114.228 239.101 114.324C239.101 114.42 239.069 114.5 239.005 114.564C238.941 114.628 238.861 114.66 238.765 114.66H235.825C235.737 114.66 235.657 114.628 235.585 114.564C235.521 114.492 235.489 114.412 235.489 114.324C235.489 114.22 235.521 114.14 235.585 114.084C235.657 114.02 235.737 113.988 235.825 113.988H238.765Z" fill="black"/>
<path d="M39.52 128.76C39.624 128.76 39.708 128.796 39.772 128.868C39.844 128.94 39.88 129.024 39.88 129.12V134.412C39.88 135.06 39.752 135.604 39.496 136.044C39.24 136.492 38.896 136.828 38.464 137.052C38.032 137.284 37.54 137.4 36.988 137.4C36.644 137.4 36.324 137.36 36.028 137.28C35.74 137.208 35.504 137.112 35.32 136.992C35.224 136.936 35.152 136.868 35.104 136.788C35.056 136.708 35.052 136.624 35.092 136.536C35.132 136.424 35.192 136.348 35.272 136.308C35.36 136.276 35.448 136.28 35.536 136.32C35.672 136.392 35.868 136.48 36.124 136.584C36.38 136.688 36.672 136.74 37 136.74C37.44 136.74 37.82 136.648 38.14 136.464C38.468 136.28 38.72 136.012 38.896 135.66C39.072 135.316 39.16 134.904 39.16 134.424V133.56L39.244 133.848C39.124 134.096 38.952 134.316 38.728 134.508C38.512 134.7 38.26 134.852 37.972 134.964C37.692 135.068 37.392 135.12 37.072 135.12C36.592 135.12 36.192 135.024 35.872 134.832C35.56 134.632 35.328 134.36 35.176 134.016C35.024 133.672 34.948 133.268 34.948 132.804V129.12C34.948 129.024 34.98 128.94 35.044 128.868C35.108 128.796 35.196 128.76 35.308 128.76C35.412 128.76 35.496 128.796 35.56 128.868C35.632 128.94 35.668 129.024 35.668 129.12V132.696C35.668 133.256 35.788 133.688 36.028 133.992C36.276 134.296 36.676 134.448 37.228 134.448C37.572 134.448 37.888 134.368 38.176 134.208C38.464 134.04 38.7 133.824 38.884 133.56C39.068 133.288 39.16 133 39.16 132.696V129.12C39.16 129.024 39.192 128.94 39.256 128.868C39.328 128.796 39.416 128.76 39.52 128.76Z" fill="black"/>
<path d="M47.4217 131.928C47.4217 132.536 47.2897 133.084 47.0257 133.572C46.7617 134.052 46.4017 134.432 45.9457 134.712C45.4897 134.984 44.9697 135.12 44.3857 135.12C43.8177 135.12 43.3017 134.984 42.8377 134.712C42.3817 134.432 42.0177 134.052 41.7457 133.572C41.4817 133.084 41.3497 132.536 41.3497 131.928C41.3497 131.312 41.4817 130.764 41.7457 130.284C42.0177 129.804 42.3817 129.424 42.8377 129.144C43.3017 128.864 43.8177 128.724 44.3857 128.724C44.9697 128.724 45.4897 128.864 45.9457 129.144C46.4017 129.424 46.7617 129.804 47.0257 130.284C47.2897 130.764 47.4217 131.312 47.4217 131.928ZM46.7017 131.928C46.7017 131.44 46.6017 131.008 46.4017 130.632C46.2017 130.248 45.9257 129.948 45.5737 129.732C45.2297 129.508 44.8337 129.396 44.3857 129.396C43.9537 129.396 43.5617 129.508 43.2097 129.732C42.8577 129.948 42.5777 130.248 42.3697 130.632C42.1697 131.008 42.0697 131.44 42.0697 131.928C42.0697 132.416 42.1697 132.848 42.3697 133.224C42.5777 133.6 42.8577 133.9 43.2097 134.124C43.5617 134.34 43.9537 134.448 44.3857 134.448C44.8337 134.448 45.2297 134.34 45.5737 134.124C45.9257 133.9 46.2017 133.6 46.4017 133.224C46.6017 132.848 46.7017 132.416 46.7017 131.928Z" fill="black"/>
<path d="M53.5359 128.904C53.6399 128.904 53.7239 128.94 53.7879 129.012C53.8599 129.084 53.8959 129.168 53.8959 129.264V132.648C53.8959 133.44 53.6719 134.044 53.2239 134.46C52.7759 134.876 52.1719 135.084 51.4119 135.084C50.6599 135.084 50.0599 134.876 49.6119 134.46C49.1719 134.044 48.9519 133.44 48.9519 132.648V129.264C48.9519 129.168 48.9839 129.084 49.0479 129.012C49.1199 128.94 49.2079 128.904 49.3119 128.904C49.4159 128.904 49.4999 128.94 49.5639 129.012C49.6359 129.084 49.6719 129.168 49.6719 129.264V132.648C49.6719 133.224 49.8239 133.664 50.1279 133.968C50.4399 134.264 50.8679 134.412 51.4119 134.412C51.9639 134.412 52.3959 134.264 52.7079 133.968C53.0199 133.664 53.1759 133.224 53.1759 132.648V129.264C53.1759 129.168 53.2079 129.084 53.2719 129.012C53.3359 128.94 53.4239 128.904 53.5359 128.904Z" fill="black"/>
<path d="M56.1439 135C56.0319 135 55.9439 134.964 55.8799 134.892C55.8159 134.82 55.7839 134.736 55.7839 134.64V129.264C55.7839 129.168 55.8159 129.084 55.8799 129.012C55.9519 128.94 56.0399 128.904 56.1439 128.904C56.2479 128.904 56.3319 128.94 56.3959 129.012C56.4679 129.084 56.5039 129.168 56.5039 129.264V131.064L56.3239 131.1C56.3479 130.82 56.4159 130.544 56.5279 130.272C56.6479 129.992 56.8079 129.736 57.0079 129.504C57.2079 129.272 57.4439 129.084 57.7159 128.94C57.9959 128.796 58.3079 128.724 58.6519 128.724C58.7959 128.724 58.9359 128.756 59.0719 128.82C59.2079 128.876 59.2759 128.972 59.2759 129.108C59.2759 129.228 59.2439 129.32 59.1799 129.384C59.1159 129.448 59.0399 129.48 58.9519 129.48C58.8799 129.48 58.7999 129.46 58.7119 129.42C58.6319 129.38 58.5239 129.36 58.3879 129.36C58.1639 129.36 57.9399 129.428 57.7159 129.564C57.4919 129.692 57.2879 129.868 57.1039 130.092C56.9199 130.316 56.7719 130.568 56.6599 130.848C56.5559 131.12 56.5039 131.396 56.5039 131.676V134.64C56.5039 134.736 56.4679 134.82 56.3959 134.892C56.3239 134.964 56.2399 135 56.1439 135Z" fill="black"/>
<path d="M64.3784 134.64C64.3784 134.736 64.3424 134.82 64.2704 134.892C64.1984 134.964 64.1144 135 64.0184 135C63.9144 135 63.8264 134.964 63.7544 134.892C63.6904 134.82 63.6584 134.736 63.6584 134.64V129.12C63.6584 129.024 63.6904 128.94 63.7544 128.868C63.8264 128.796 63.9144 128.76 64.0184 128.76C64.1224 128.76 64.2064 128.796 64.2704 128.868C64.3424 128.94 64.3784 129.024 64.3784 129.12V134.64ZM64.0184 127.956C63.8504 127.956 63.7224 127.92 63.6344 127.848C63.5544 127.768 63.5144 127.656 63.5144 127.512V127.392C63.5144 127.248 63.5584 127.14 63.6464 127.068C63.7424 126.988 63.8704 126.948 64.0304 126.948C64.1824 126.948 64.2984 126.988 64.3784 127.068C64.4664 127.14 64.5104 127.248 64.5104 127.392V127.512C64.5104 127.656 64.4664 127.768 64.3784 127.848C64.2984 127.92 64.1784 127.956 64.0184 127.956Z" fill="black"/>
<path d="M69.1408 128.724C69.6688 128.724 70.0888 128.832 70.4008 129.048C70.7208 129.256 70.9488 129.544 71.0848 129.912C71.2288 130.272 71.3008 130.672 71.3008 131.112V134.64C71.3008 134.736 71.2648 134.82 71.1928 134.892C71.1208 134.964 71.0368 135 70.9408 135C70.8288 135 70.7408 134.964 70.6768 134.892C70.6128 134.82 70.5808 134.736 70.5808 134.64V131.148C70.5808 130.828 70.5288 130.536 70.4248 130.272C70.3208 130.008 70.1488 129.796 69.9088 129.636C69.6768 129.476 69.3688 129.396 68.9848 129.396C68.6408 129.396 68.3128 129.476 68.0008 129.636C67.6968 129.796 67.4488 130.008 67.2568 130.272C67.0648 130.536 66.9688 130.828 66.9688 131.148V134.64C66.9688 134.736 66.9328 134.82 66.8608 134.892C66.7888 134.964 66.7048 135 66.6088 135C66.4968 135 66.4088 134.964 66.3448 134.892C66.2808 134.82 66.2488 134.736 66.2488 134.64V129.264C66.2488 129.168 66.2808 129.084 66.3448 129.012C66.4168 128.94 66.5048 128.904 66.6088 128.904C66.7128 128.904 66.7968 128.94 66.8608 129.012C66.9328 129.084 66.9688 129.168 66.9688 129.264V130.272L66.6928 130.704C66.7088 130.448 66.7888 130.204 66.9328 129.972C67.0848 129.732 67.2768 129.52 67.5088 129.336C67.7408 129.144 67.9968 128.996 68.2768 128.892C68.5648 128.78 68.8528 128.724 69.1408 128.724Z" fill="black"/>
<path d="M75.4063 126.168C75.5263 126.168 75.6543 126.18 75.7903 126.204C75.9343 126.228 76.0583 126.272 76.1623 126.336C76.2663 126.392 76.3183 126.48 76.3183 126.6C76.3183 126.688 76.2863 126.768 76.2223 126.84C76.1583 126.904 76.0863 126.936 76.0063 126.936C75.9263 126.936 75.8263 126.916 75.7063 126.876C75.5863 126.828 75.4583 126.804 75.3223 126.804C75.1543 126.804 75.0103 126.844 74.8903 126.924C74.7703 126.996 74.6783 127.104 74.6143 127.248C74.5503 127.384 74.5183 127.552 74.5183 127.752V134.64C74.5183 134.736 74.4823 134.82 74.4103 134.892C74.3463 134.964 74.2623 135 74.1583 135C74.0543 135 73.9663 134.964 73.8943 134.892C73.8303 134.82 73.7983 134.736 73.7983 134.64V127.752C73.7983 127.24 73.9463 126.848 74.2423 126.576C74.5463 126.304 74.9343 126.168 75.4063 126.168ZM75.8623 128.988C75.9583 128.988 76.0383 129.02 76.1023 129.084C76.1663 129.148 76.1983 129.228 76.1983 129.324C76.1983 129.42 76.1663 129.5 76.1023 129.564C76.0383 129.628 75.9583 129.66 75.8623 129.66H72.9223C72.8343 129.66 72.7543 129.628 72.6823 129.564C72.6183 129.492 72.5863 129.412 72.5863 129.324C72.5863 129.22 72.6183 129.14 72.6823 129.084C72.7543 129.02 72.8343 128.988 72.9223 128.988H75.8623Z" fill="black"/>
<path d="M82.7772 131.928C82.7772 132.536 82.6452 133.084 82.3812 133.572C82.1172 134.052 81.7572 134.432 81.3012 134.712C80.8452 134.984 80.3252 135.12 79.7412 135.12C79.1732 135.12 78.6572 134.984 78.1932 134.712C77.7372 134.432 77.3732 134.052 77.1012 133.572C76.8372 133.084 76.7052 132.536 76.7052 131.928C76.7052 131.312 76.8372 130.764 77.1012 130.284C77.3732 129.804 77.7372 129.424 78.1932 129.144C78.6572 128.864 79.1732 128.724 79.7412 128.724C80.3252 128.724 80.8452 128.864 81.3012 129.144C81.7572 129.424 82.1172 129.804 82.3812 130.284C82.6452 130.764 82.7772 131.312 82.7772 131.928ZM82.0572 131.928C82.0572 131.44 81.9572 131.008 81.7572 130.632C81.5572 130.248 81.2812 129.948 80.9292 129.732C80.5852 129.508 80.1892 129.396 79.7412 129.396C79.3092 129.396 78.9172 129.508 78.5652 129.732C78.2132 129.948 77.9332 130.248 77.7252 130.632C77.5252 131.008 77.4252 131.44 77.4252 131.928C77.4252 132.416 77.5252 132.848 77.7252 133.224C77.9332 133.6 78.2132 133.9 78.5652 134.124C78.9172 134.34 79.3092 134.448 79.7412 134.448C80.1892 134.448 80.5852 134.34 80.9292 134.124C81.2812 133.9 81.5572 133.6 81.7572 133.224C81.9572 132.848 82.0572 132.416 82.0572 131.928Z" fill="black"/>
<path d="M84.6674 135C84.5554 135 84.4674 134.964 84.4034 134.892C84.3394 134.82 84.3074 134.736 84.3074 134.64V129.264C84.3074 129.168 84.3394 129.084 84.4034 129.012C84.4754 128.94 84.5634 128.904 84.6674 128.904C84.7714 128.904 84.8554 128.94 84.9194 129.012C84.9914 129.084 85.0274 129.168 85.0274 129.264V131.064L84.8474 131.1C84.8714 130.82 84.9394 130.544 85.0514 130.272C85.1714 129.992 85.3314 129.736 85.5314 129.504C85.7314 129.272 85.9674 129.084 86.2394 128.94C86.5194 128.796 86.8314 128.724 87.1754 128.724C87.3194 128.724 87.4594 128.756 87.5954 128.82C87.7314 128.876 87.7994 128.972 87.7994 129.108C87.7994 129.228 87.7674 129.32 87.7034 129.384C87.6394 129.448 87.5634 129.48 87.4754 129.48C87.4034 129.48 87.3234 129.46 87.2354 129.42C87.1554 129.38 87.0474 129.36 86.9114 129.36C86.6874 129.36 86.4634 129.428 86.2394 129.564C86.0154 129.692 85.8114 129.868 85.6274 130.092C85.4434 130.316 85.2954 130.568 85.1834 130.848C85.0794 131.12 85.0274 131.396 85.0274 131.676V134.64C85.0274 134.736 84.9914 134.82 84.9194 134.892C84.8474 134.964 84.7634 135 84.6674 135Z" fill="black"/>
<path d="M91.6846 128.82C92.1806 128.82 92.6046 128.952 92.9566 129.216C93.3086 129.472 93.5486 129.856 93.6766 130.368L93.5086 130.416L93.5806 130.2C93.6846 129.96 93.8566 129.736 94.0966 129.528C94.3446 129.312 94.6246 129.14 94.9366 129.012C95.2486 128.884 95.5646 128.82 95.8846 128.82C96.3886 128.82 96.7926 128.928 97.0966 129.144C97.4086 129.36 97.6326 129.652 97.7686 130.02C97.9126 130.38 97.9846 130.788 97.9846 131.244V134.64C97.9846 134.736 97.9486 134.82 97.8766 134.892C97.8126 134.964 97.7286 135 97.6246 135C97.5206 135 97.4326 134.964 97.3606 134.892C97.2966 134.82 97.2646 134.736 97.2646 134.64V131.28C97.2646 130.952 97.2126 130.652 97.1086 130.38C97.0046 130.108 96.8406 129.892 96.6166 129.732C96.3926 129.572 96.0926 129.492 95.7166 129.492C95.3886 129.492 95.0726 129.572 94.7686 129.732C94.4726 129.892 94.2286 130.108 94.0366 130.38C93.8526 130.652 93.7606 130.952 93.7606 131.28V134.64C93.7606 134.736 93.7246 134.82 93.6526 134.892C93.5886 134.964 93.5046 135 93.4006 135C93.2966 135 93.2086 134.964 93.1366 134.892C93.0726 134.82 93.0406 134.736 93.0406 134.64V131.244C93.0406 130.916 92.9926 130.62 92.8966 130.356C92.8006 130.092 92.6446 129.884 92.4286 129.732C92.2126 129.572 91.9206 129.492 91.5526 129.492C91.2246 129.492 90.9126 129.572 90.6166 129.732C90.3286 129.884 90.0926 130.092 89.9086 130.356C89.7326 130.62 89.6446 130.916 89.6446 131.244V134.64C89.6446 134.736 89.6086 134.82 89.5366 134.892C89.4646 134.964 89.3806 135 89.2846 135C89.1726 135 89.0846 134.964 89.0206 134.892C88.9566 134.82 88.9246 134.736 88.9246 134.64V129.264C88.9246 129.168 88.9566 129.084 89.0206 129.012C89.0926 128.94 89.1806 128.904 89.2846 128.904C89.3886 128.904 89.4726 128.94 89.5366 129.012C89.6086 129.084 89.6446 129.168 89.6446 129.264V130.38L89.3206 130.824C89.3446 130.584 89.4206 130.344 89.5486 130.104C89.6846 129.864 89.8606 129.648 90.0766 129.456C90.2926 129.264 90.5366 129.112 90.8086 129C91.0886 128.88 91.3806 128.82 91.6846 128.82Z" fill="black"/>
<path d="M104.898 128.868C105.002 128.868 105.086 128.904 105.15 128.976C105.222 129.048 105.258 129.136 105.258 129.24V134.64C105.258 134.736 105.222 134.82 105.15 134.892C105.078 134.964 104.994 135 104.898 135C104.794 135 104.706 134.964 104.634 134.892C104.57 134.82 104.538 134.736 104.538 134.64V133.212L104.742 133.116C104.742 133.34 104.678 133.568 104.55 133.8C104.43 134.032 104.262 134.248 104.046 134.448C103.83 134.648 103.574 134.812 103.278 134.94C102.99 135.06 102.678 135.12 102.342 135.12C101.798 135.12 101.31 134.98 100.878 134.7C100.454 134.42 100.118 134.036 99.8699 133.548C99.6299 133.06 99.5099 132.512 99.5099 131.904C99.5099 131.28 99.6339 130.732 99.8819 130.26C100.13 129.78 100.466 129.404 100.89 129.132C101.314 128.86 101.794 128.724 102.33 128.724C102.674 128.724 102.994 128.784 103.29 128.904C103.594 129.024 103.858 129.188 104.082 129.396C104.306 129.604 104.478 129.844 104.598 130.116C104.726 130.38 104.79 130.656 104.79 130.944L104.538 130.764V129.24C104.538 129.136 104.57 129.048 104.634 128.976C104.706 128.904 104.794 128.868 104.898 128.868ZM102.402 134.448C102.826 134.448 103.202 134.34 103.53 134.124C103.858 133.9 104.114 133.596 104.298 133.212C104.49 132.82 104.586 132.384 104.586 131.904C104.586 131.432 104.49 131.008 104.298 130.632C104.114 130.256 103.858 129.956 103.53 129.732C103.202 129.508 102.826 129.396 102.402 129.396C101.986 129.396 101.61 129.504 101.274 129.72C100.946 129.936 100.686 130.232 100.494 130.608C100.31 130.984 100.218 131.416 100.218 131.904C100.218 132.384 100.31 132.82 100.494 133.212C100.686 133.596 100.946 133.9 101.274 134.124C101.602 134.34 101.978 134.448 102.402 134.448Z" fill="black"/>
<path d="M106.751 128.892H109.547C109.643 128.892 109.723 128.928 109.787 129C109.851 129.064 109.883 129.144 109.883 129.24C109.883 129.328 109.851 129.404 109.787 129.468C109.723 129.532 109.643 129.564 109.547 129.564H106.751C106.655 129.564 106.571 129.532 106.499 129.468C106.435 129.396 106.403 129.316 106.403 129.228C106.403 129.132 106.435 129.052 106.499 128.988C106.571 128.924 106.655 128.892 106.751 128.892ZM107.987 127.2C108.091 127.2 108.175 127.236 108.239 127.308C108.311 127.38 108.347 127.464 108.347 127.56V133.584C108.347 133.808 108.375 133.976 108.431 134.088C108.495 134.2 108.575 134.276 108.671 134.316C108.767 134.348 108.863 134.364 108.959 134.364C109.023 134.364 109.079 134.356 109.127 134.34C109.183 134.316 109.243 134.304 109.307 134.304C109.379 134.304 109.439 134.332 109.487 134.388C109.543 134.444 109.571 134.516 109.571 134.604C109.571 134.716 109.507 134.812 109.379 134.892C109.251 134.964 109.099 135 108.923 135C108.851 135 108.743 134.996 108.599 134.988C108.455 134.972 108.307 134.928 108.155 134.856C108.003 134.776 107.875 134.64 107.771 134.448C107.675 134.256 107.627 133.98 107.627 133.62V127.56C107.627 127.464 107.659 127.38 107.723 127.308C107.795 127.236 107.883 127.2 107.987 127.2Z" fill="black"/>
<path d="M111.91 134.64C111.91 134.736 111.874 134.82 111.802 134.892C111.73 134.964 111.646 135 111.55 135C111.446 135 111.358 134.964 111.286 134.892C111.222 134.82 111.19 134.736 111.19 134.64V129.12C111.19 129.024 111.222 128.94 111.286 128.868C111.358 128.796 111.446 128.76 111.55 128.76C111.654 128.76 111.738 128.796 111.802 128.868C111.874 128.94 111.91 129.024 111.91 129.12V134.64ZM111.55 127.956C111.382 127.956 111.254 127.92 111.166 127.848C111.086 127.768 111.046 127.656 111.046 127.512V127.392C111.046 127.248 111.09 127.14 111.178 127.068C111.274 126.988 111.402 126.948 111.562 126.948C111.714 126.948 111.83 126.988 111.91 127.068C111.998 127.14 112.042 127.248 112.042 127.392V127.512C112.042 127.656 111.998 127.768 111.91 127.848C111.83 127.92 111.71 127.956 111.55 127.956Z" fill="black"/>
<path d="M119.492 131.928C119.492 132.536 119.36 133.084 119.096 133.572C118.832 134.052 118.472 134.432 118.016 134.712C117.56 134.984 117.04 135.12 116.456 135.12C115.888 135.12 115.372 134.984 114.908 134.712C114.452 134.432 114.088 134.052 113.816 133.572C113.552 133.084 113.42 132.536 113.42 131.928C113.42 131.312 113.552 130.764 113.816 130.284C114.088 129.804 114.452 129.424 114.908 129.144C115.372 128.864 115.888 128.724 116.456 128.724C117.04 128.724 117.56 128.864 118.016 129.144C118.472 129.424 118.832 129.804 119.096 130.284C119.36 130.764 119.492 131.312 119.492 131.928ZM118.772 131.928C118.772 131.44 118.672 131.008 118.472 130.632C118.272 130.248 117.996 129.948 117.644 129.732C117.3 129.508 116.904 129.396 116.456 129.396C116.024 129.396 115.632 129.508 115.28 129.732C114.928 129.948 114.648 130.248 114.44 130.632C114.24 131.008 114.14 131.44 114.14 131.928C114.14 132.416 114.24 132.848 114.44 133.224C114.648 133.6 114.928 133.9 115.28 134.124C115.632 134.34 116.024 134.448 116.456 134.448C116.904 134.448 117.3 134.34 117.644 134.124C117.996 133.9 118.272 133.6 118.472 133.224C118.672 132.848 118.772 132.416 118.772 131.928Z" fill="black"/>
<path d="M123.914 128.724C124.442 128.724 124.862 128.832 125.174 129.048C125.494 129.256 125.722 129.544 125.858 129.912C126.002 130.272 126.074 130.672 126.074 131.112V134.64C126.074 134.736 126.038 134.82 125.966 134.892C125.894 134.964 125.81 135 125.714 135C125.602 135 125.514 134.964 125.45 134.892C125.386 134.82 125.354 134.736 125.354 134.64V131.148C125.354 130.828 125.302 130.536 125.198 130.272C125.094 130.008 124.922 129.796 124.682 129.636C124.45 129.476 124.142 129.396 123.758 129.396C123.414 129.396 123.086 129.476 122.774 129.636C122.47 129.796 122.222 130.008 122.03 130.272C121.838 130.536 121.742 130.828 121.742 131.148V134.64C121.742 134.736 121.706 134.82 121.634 134.892C121.562 134.964 121.478 135 121.382 135C121.27 135 121.182 134.964 121.118 134.892C121.054 134.82 121.022 134.736 121.022 134.64V129.264C121.022 129.168 121.054 129.084 121.118 129.012C121.19 128.94 121.278 128.904 121.382 128.904C121.486 128.904 121.57 128.94 121.634 129.012C121.706 129.084 121.742 129.168 121.742 129.264V130.272L121.466 130.704C121.482 130.448 121.562 130.204 121.706 129.972C121.858 129.732 122.05 129.52 122.282 129.336C122.514 129.144 122.77 128.996 123.05 128.892C123.338 128.78 123.626 128.724 123.914 128.724Z" fill="black"/>
<path d="M128.128 132.648C127.976 132.648 127.892 132.564 127.876 132.396L127.744 127.092C127.744 126.948 127.772 126.832 127.828 126.744C127.884 126.648 127.984 126.6 128.128 126.6C128.264 126.6 128.36 126.648 128.416 126.744C128.48 126.832 128.508 126.948 128.5 127.092L128.368 132.396C128.36 132.564 128.28 132.648 128.128 132.648ZM128.092 135C127.956 135 127.848 134.96 127.768 134.88C127.696 134.792 127.66 134.68 127.66 134.544V134.28C127.66 134.136 127.696 134.024 127.768 133.944C127.848 133.864 127.956 133.824 128.092 133.824H128.164C128.308 133.824 128.412 133.864 128.476 133.944C128.548 134.024 128.584 134.136 128.584 134.28V134.544C128.584 134.68 128.548 134.792 128.476 134.88C128.412 134.96 128.308 135 128.164 135H128.092Z" fill="black"/>
<path d="M281 236C281 185.19 322.19 144 373 144H392C442.81 144 484 185.19 484 236V267C484 317.81 442.81 359 392 359H373C322.19 359 281 317.81 281 267V236Z" fill="#DEB2E5"/>
<path d="M438.013 245.226C438.047 248.54 435.389 251.254 432.075 251.288L407.567 251.541C404.253 251.575 401.539 248.917 401.505 245.603L401.37 232.549C401.336 229.236 403.994 226.522 407.308 226.488L431.816 226.234C435.13 226.2 437.844 228.859 437.878 232.172L438.013 245.226Z" fill="#814072"/>
<path d="M368.182 246.145C368.216 249.459 365.557 252.173 362.244 252.207L337.735 252.46C334.422 252.494 331.708 249.836 331.674 246.522L331.539 233.468C331.505 230.155 334.163 227.441 337.477 227.407L361.985 227.153C365.299 227.119 368.013 229.777 368.047 233.091L368.182 246.145Z" fill="#814072"/>
<path d="M401 261C401 258.791 402.791 257 405 257H430C432.209 257 434 258.791 434 261C434 263.209 432.209 265 430 265H405C402.791 265 401 263.209 401 261Z" fill="#B875A9"/>
<path d="M335 261C335 258.791 336.791 257 339 257H364C366.209 257 368 258.791 368 261C368 263.209 366.209 265 364 265H339C336.791 265 335 263.209 335 261Z" fill="#B875A9"/>
<path d="M401 199.5C401 196.462 403.462 194 406.5 194H428.5C431.538 194 434 196.462 434 199.5C434 202.538 431.538 205 428.5 205H406.5C403.462 205 401 202.538 401 199.5Z" fill="#9A2580"/>
<path d="M335 199.5C335 196.462 337.462 194 340.5 194H362.5C365.538 194 368 196.462 368 199.5C368 202.538 365.538 205 362.5 205H340.5C337.462 205 335 202.538 335 199.5Z" fill="#9A2580"/>
<path d="M278.311 314.778C268.426 314.778 258.903 312.332 248.973 289.101C239.043 265.87 257.34 248.463 255.292 230.413C253.498 214.608 254.483 209.093 256.646 193.325C259.729 170.851 267.457 146.686 288.693 134.637C305.674 125.001 322.572 139.293 341.953 134.637C364.634 129.188 371.612 120.281 394.311 125.67C408.543 129.05 416.755 132.558 430.42 137.49C446.58 143.321 459.022 127.728 474.653 134.637C496.978 144.504 507.51 166.787 512.116 188.842C515.58 205.431 515.147 217.607 515.275 234.489C515.449 257.432 532.147 269.53 518.886 289.101C509.814 302.49 495.667 322.159 479.166 317.223C464.263 312.765 461.447 304.713 458.855 290.732C455.565 272.985 474.806 251.259 474.653 233.266C474.429 206.974 469.617 184.89 444.412 171.725C427.947 163.124 409.227 176.957 390.249 175.8C369.848 174.557 362.264 167.649 342.404 168.872C325.391 169.919 316.536 173.585 305.844 185.582C291.401 201.788 294.286 217.439 296.366 238.157C298.062 255.055 310.358 279.728 310.358 295.215C310.358 310.702 295.012 314.778 278.311 314.778Z" fill="#AD81B5"/>
<path d="M275.893 333.113C265.83 333.113 256.135 330.164 246.027 302.143C235.918 274.122 254.544 253.125 252.459 231.354C250.633 212.29 251.636 205.638 253.838 186.619C256.976 159.511 264.843 130.364 286.461 115.83C303.747 104.208 320.949 121.446 340.679 115.83C363.768 109.257 370.872 98.514 393.978 105.015C408.466 109.091 416.826 113.323 430.736 119.271C447.188 126.305 459.853 107.497 475.765 115.83C498.492 127.732 509.214 154.609 513.902 181.212C517.428 201.221 516.988 215.908 517.118 236.27C517.295 263.944 534.294 278.536 520.794 302.143C511.559 318.292 497.158 342.016 480.36 336.063C465.189 330.686 462.322 320.974 459.684 304.109C456.335 282.703 475.921 256.498 475.765 234.795C475.538 203.082 470.639 176.445 444.98 160.565C428.219 150.191 409.162 166.876 389.843 165.481C369.076 163.981 361.355 155.649 341.138 157.124C323.818 158.387 314.804 162.809 303.921 177.279C289.218 196.827 292.154 215.705 294.272 240.694C295.999 261.077 308.515 290.836 308.515 309.517C308.515 328.197 292.893 333.113 275.893 333.113Z" fill="#AF2B92"/>
<path d="M389.047 303.131C377.42 303.131 370.657 295.233 360.543 304.525C349.526 314.647 376.978 327.265 391.805 325.898C404.902 324.69 426.698 314.503 418.011 304.525C410.33 295.703 400.674 303.131 389.047 303.131Z" fill="#5C2B51"/>
<path d="M295 124C286.735 127.926 282.373 133.163 280 142C278.531 147.469 277.353 151.494 280 156.5C285.248 166.423 289.169 140.741 298.5 134.5C306.765 128.972 321.964 135.929 322.5 126C323.081 115.248 304.727 119.381 295 124Z" fill="#FF88E5"/>
<path d="M491 323C486.645 326.194 479.579 319.461 475.5 323C470.544 327.299 477.529 330.916 484 332C495.18 333.872 504.507 323.121 510.5 313.5C516.215 304.324 521.263 297.451 518.5 287C516.976 281.237 515.443 277.332 510.5 274C499.692 266.714 512.943 292.899 507 304.5C502.52 313.247 498.5 317.5 491 323Z" fill="#882572"/>
</svg>
