<svg width="533" height="381" viewBox="0 0 533 381" fill="none" xmlns="http://www.w3.org/2000/svg">
<path d="M533 11C533 4.92488 528.075 0 522 0H11C4.92485 0 0 4.92487 0 11V370C0 376.075 4.92487 381 11 381H522C528.075 381 533 376.075 533 370V11Z" fill="black" fill-opacity="0.21"/>
<path d="M155 264C155 251.297 144.703 241 132 241H115C102.297 241 92 251.297 92 264V288C92 300.702 102.297 311 115 311H132C144.703 311 155 300.702 155 288V264Z" fill="#8E5BB7"/>
<path d="M148 268C148 266.343 146.657 265 145 265H138C136.343 265 135 266.343 135 268V269C135 270.657 136.343 272 138 272H145C146.657 272 148 270.657 148 269V268Z" fill="#451C66"/>
<path d="M123 268C123 266.343 121.657 265 120 265H113C111.343 265 110 266.343 110 268V269C110 270.657 111.343 272 113 272H120C121.657 272 123 270.657 123 269V268Z" fill="#451C66"/>
<path d="M148 273.5C148 272.672 147.328 272 146.5 272H136.5C135.672 272 135 272.672 135 273.5C135 274.328 135.672 275 136.5 275H146.5C147.328 275 148 274.328 148 273.5Z" fill="#67358F"/>
<path d="M123 273.5C123 272.672 122.328 272 121.5 272H111.5C110.672 272 110 272.672 110 273.5C110 274.328 110.672 275 111.5 275H121.5C122.328 275 123 274.328 123 273.5Z" fill="#67358F"/>
<path d="M148 261C148 259.895 147.105 259 146 259H137C135.895 259 135 259.895 135 261C135 262.105 135.895 263 137 263H146C147.105 263 148 262.105 148 261Z" fill="#260640"/>
<path d="M123 261C123 259.895 122.105 259 121 259H112C110.895 259 110 259.895 110 261C110 262.105 110.895 263 112 263H121C122.105 263 123 262.105 123 261Z" fill="#260640"/>
<path d="M129 289.5C132.561 289.615 134.465 286.996 137 289.5C139.983 292.446 131.654 295.067 127.5 294.5C124.171 294.045 118.399 292.121 120.5 289.5C122.368 287.169 126.015 289.404 129 289.5Z" fill="#260640"/>
<path d="M158.962 256.888C158.742 263.544 161.522 274.89 155 273.499C148.959 272.211 154.834 263.567 152.213 257.929C149.711 252.548 148.257 248.418 142.868 245.956C136.527 243.06 125.216 248.559 125.216 248.559C119.332 247.691 113.246 242.924 106.526 245.956C100.164 248.827 99.2576 255.673 96.1426 260.532C93.0276 265.391 102.562 283.631 93.0276 284.999C91.6227 285.201 90.7967 285.211 89.3934 284.999C80.438 283.647 85.846 271.151 85.7592 262.094C85.6806 253.899 82.9488 247.417 88.355 241.271C91.9536 237.18 95.7731 237.073 100.815 235.024C110.66 231.023 116.82 230.557 127.293 228.777C135.946 227.306 144.989 218.528 151.789 224.092C155.513 227.14 155.768 230.529 157.5 235.024C160.322 242.352 159.222 249.037 158.962 256.888Z" fill="#7627B7"/>
<path d="M146.247 226.027C142.792 225.675 133.364 228.887 136.705 229.779C140.221 230.716 142.411 228.372 145.745 228.372C148.098 228.372 154.246 230.557 152.776 228.841C150.767 226.496 148.782 226.285 146.247 226.027Z" fill="#A94AF8"/>
<path d="M202 310C202 303.925 197.075 299 191 299H70C63.9249 299 59 303.925 59 310V360C59 366.075 63.9249 371 70 371H191C197.075 371 202 366.075 202 360V310Z" fill="#C8E4FF" fill-opacity="0.96"/>
<path d="M410.5 362.5L433 339.5L447.5 331.5L486.5 336L502.5 362.5H410.5Z" fill="#DEB2E6"/>
<path d="M490.5 357.805C507.343 360.18 533 364.36 533 367.386C533 370.411 532.25 374.697 531 376.462C529.75 378.227 526.5 381 526.5 381H371C371 381 378.371 371.667 384.5 367.386C395.062 360.007 416 357.805 416 357.805C416 357.805 461.686 353.743 490.5 357.805Z" fill="#62256C"/>
<path d="M493.5 348L489.5 340.5C473.833 337.833 442.4 332.5 442 332.5C441.6 332.5 427.5 346 420.5 352.5C420.5 352.5 432.919 349.112 441 348C454.553 346.135 462.332 345.916 476 346.5C482.853 346.793 493.5 348 493.5 348Z" fill="#B377A5"/>
<path d="M508.814 155.601C525.183 164.964 532.342 163 532.342 179.5V325C532.342 331 530.694 335.624 526 341C520.043 347.823 506.881 346.874 497.3 344.69C485.5 342 479.038 337.82 466.763 338.14C455.812 338.425 449.934 340.876 439.731 344.69C417.5 353 386.284 370.466 380.66 350.804C379.288 346.005 380.43 342.686 380.66 338.14C381.034 330.743 381.409 327.948 378.157 321.109C373.254 310.797 366.484 306.957 359.635 297.527C351.9 286.878 346.047 281.428 341.113 269.579C337.356 260.555 334.396 255.141 335.106 245.56C335.875 235.162 342.448 227.074 346.119 220.669C349.79 214.264 356.065 207.733 359.635 198.397C363.327 188.742 363.473 183.841 365.142 175.253C366.81 166.664 384.981 153.644 398.181 153.418C411.905 153.183 424.713 158.855 429.218 158.222C444.27 156.104 439.922 148.359 454.248 143.811C471.915 138.201 493.092 146.609 508.814 155.601Z" fill="#AF2B92"/>
<path d="M405.5 165.5C411.472 165.665 428 162.5 424 168.5C420.265 174.102 411.138 173.371 404.5 174.5C401.228 175.056 398.552 175.694 395.5 177C390.913 178.963 391.119 183.049 390.5 188C389.5 196 388.58 200.554 385 206C380.969 212.133 371.066 222.169 368 215.5C365.664 210.419 375.695 205.792 377.5 200.5C379.689 194.085 380.104 190.218 381 183.5C382 176 382.934 172.516 388 168.5C393.434 164.192 398.569 165.308 405.5 165.5Z" fill="#FF88E5"/>
<path d="M507.865 167.584C501.876 164.246 493.111 156.188 489.669 162.118C486.273 167.971 500.865 173.084 506.169 177.584C513.053 183.423 514.656 183.647 517.865 192.084C520.518 199.057 512.991 209.132 513.365 216.584C514.081 230.841 520.65 233.909 516.669 247.618C513.966 256.93 507.865 260.084 506.169 270.118C504.67 278.993 504.788 286.27 511.169 292.618C514.884 296.313 517.94 298.937 523.169 298.618C533.427 297.993 515.443 286.787 516.669 276.584C517.816 267.047 524.941 260.328 527.669 251.118C532.107 236.141 524.1 232.177 523.169 216.584C522.574 206.595 529.312 192.547 524.865 183.584C520.389 174.562 516.69 172.501 507.909 167.608L507.865 167.584Z" fill="#882572"/>
<path d="M346 251C346 255.971 349.358 260 353.5 260C357.642 260 361 255.971 361 251C361 246.029 357.642 242 353.5 242C349.358 242 346 246.029 346 251Z" fill="#FF88E5"/>
<path d="M205 309C205 305.686 202.314 303 199 303H62C58.6863 303 56 305.686 56 309V375C56 378.314 58.6863 381 62 381H199C202.314 381 205 378.314 205 375V309Z" fill="#2184E0"/>
<path d="M156 356C156 352.686 153.314 350 150 350H109C105.686 350 103 352.686 103 356V363C103 366.314 105.686 369 109 369H150C153.314 369 156 366.314 156 363V356Z" fill="#22415E"/>
<path d="M157 345C157 341.686 154.314 339 151 339H108C104.686 339 102 341.686 102 345V360C102 363.314 104.686 366 108 366H151C154.314 366 157 363.314 157 360V345Z" fill="#1966AD"/>
<path d="M141 347C141 346.448 140.552 346 140 346H119C118.448 346 118 346.448 118 347V348C118 348.552 118.448 349 119 349H140C140.552 349 141 348.552 141 348V347Z" fill="#182E42"/>
<path d="M141 357C141 356.448 140.552 356 140 356H119C118.448 356 118 356.448 118 357V358C118 358.552 118.448 359 119 359H140C140.552 359 141 358.552 141 358V357Z" fill="#182E42"/>
<path d="M141 352C141 351.448 140.552 351 140 351H119C118.448 351 118 351.448 118 352V353C118 353.552 118.448 354 119 354H140C140.552 354 141 353.552 141 353V352Z" fill="#182E42"/>
<path d="M172.927 258.503C172.927 258.503 177.177 248.679 178.427 242.003C181.329 226.504 168.536 217.147 172.927 202.003C181.153 173.631 212.446 172.888 241.927 171.003C274.28 168.934 330.17 167.083 320.427 198.003C316.287 211.142 308.076 216.459 296.534 223.933L296.427 224.003C272.962 239.199 251.499 218.815 224.927 227.503C209.073 232.686 186.927 247.003 186.927 247.003L172.927 258.503Z" fill="white"/>
<path d="M194.624 199C194.512 199 194.42 198.964 194.348 198.892C194.284 198.82 194.252 198.736 194.252 198.64V190.996H194.996V198.64C194.996 198.736 194.96 198.82 194.888 198.892C194.816 198.964 194.728 199 194.624 199ZM191.768 191.284C191.672 191.284 191.588 191.252 191.516 191.188C191.444 191.124 191.408 191.04 191.408 190.936C191.408 190.84 191.444 190.76 191.516 190.696C191.588 190.632 191.672 190.6 191.768 190.6H197.48C197.576 190.6 197.66 190.632 197.732 190.696C197.804 190.76 197.84 190.844 197.84 190.948C197.84 191.052 197.804 191.136 197.732 191.2C197.66 191.256 197.576 191.284 197.48 191.284H191.768Z" fill="black"/>
<path d="M201.986 192.82C202.49 192.82 202.898 192.928 203.21 193.144C203.522 193.36 203.75 193.652 203.894 194.02C204.046 194.388 204.122 194.796 204.122 195.244V198.64C204.122 198.736 204.086 198.82 204.014 198.892C203.942 198.964 203.858 199 203.762 199C203.65 199 203.562 198.964 203.498 198.892C203.434 198.82 203.402 198.736 203.402 198.64V195.244C203.402 194.916 203.35 194.62 203.246 194.356C203.15 194.092 202.99 193.884 202.766 193.732C202.542 193.572 202.242 193.492 201.866 193.492C201.53 193.492 201.21 193.572 200.906 193.732C200.61 193.884 200.37 194.092 200.186 194.356C200.002 194.62 199.91 194.916 199.91 195.244V198.64C199.91 198.736 199.874 198.82 199.802 198.892C199.73 198.964 199.646 199 199.55 199C199.438 199 199.35 198.964 199.286 198.892C199.222 198.82 199.19 198.736 199.19 198.64V190.48C199.19 190.384 199.222 190.3 199.286 190.228C199.358 190.156 199.446 190.12 199.55 190.12C199.654 190.12 199.738 190.156 199.802 190.228C199.874 190.3 199.91 190.384 199.91 190.48V194.368L199.634 194.788C199.65 194.54 199.726 194.3 199.862 194.068C200.006 193.828 200.19 193.616 200.414 193.432C200.638 193.24 200.886 193.092 201.158 192.988C201.43 192.876 201.706 192.82 201.986 192.82Z" fill="black"/>
<path d="M211.038 192.868C211.143 192.868 211.227 192.904 211.29 192.976C211.363 193.048 211.398 193.136 211.398 193.24V198.64C211.398 198.736 211.363 198.82 211.29 198.892C211.218 198.964 211.134 199 211.038 199C210.934 199 210.847 198.964 210.775 198.892C210.711 198.82 210.678 198.736 210.678 198.64V197.212L210.883 197.116C210.883 197.34 210.819 197.568 210.691 197.8C210.571 198.032 210.402 198.248 210.186 198.448C209.97 198.648 209.715 198.812 209.419 198.94C209.131 199.06 208.818 199.12 208.482 199.12C207.938 199.12 207.451 198.98 207.018 198.7C206.594 198.42 206.258 198.036 206.01 197.548C205.77 197.06 205.65 196.512 205.65 195.904C205.65 195.28 205.775 194.732 206.023 194.26C206.271 193.78 206.607 193.404 207.031 193.132C207.454 192.86 207.935 192.724 208.471 192.724C208.814 192.724 209.134 192.784 209.43 192.904C209.734 193.024 209.999 193.188 210.223 193.396C210.447 193.604 210.618 193.844 210.738 194.116C210.867 194.38 210.93 194.656 210.93 194.944L210.678 194.764V193.24C210.678 193.136 210.711 193.048 210.775 192.976C210.847 192.904 210.934 192.868 211.038 192.868ZM208.542 198.448C208.966 198.448 209.342 198.34 209.671 198.124C209.999 197.9 210.255 197.596 210.439 197.212C210.631 196.82 210.727 196.384 210.727 195.904C210.727 195.432 210.631 195.008 210.439 194.632C210.255 194.256 209.999 193.956 209.671 193.732C209.342 193.508 208.966 193.396 208.542 193.396C208.126 193.396 207.751 193.504 207.415 193.72C207.087 193.936 206.827 194.232 206.635 194.608C206.451 194.984 206.359 195.416 206.359 195.904C206.359 196.384 206.451 196.82 206.635 197.212C206.827 197.596 207.087 197.9 207.415 198.124C207.743 198.34 208.118 198.448 208.542 198.448Z" fill="black"/>
<path d="M216.18 192.724C216.708 192.724 217.128 192.832 217.44 193.048C217.76 193.256 217.988 193.544 218.124 193.912C218.268 194.272 218.34 194.672 218.34 195.112V198.64C218.34 198.736 218.304 198.82 218.232 198.892C218.16 198.964 218.076 199 217.98 199C217.868 199 217.78 198.964 217.716 198.892C217.652 198.82 217.62 198.736 217.62 198.64V195.148C217.62 194.828 217.568 194.536 217.464 194.272C217.36 194.008 217.188 193.796 216.948 193.636C216.716 193.476 216.408 193.396 216.024 193.396C215.68 193.396 215.352 193.476 215.04 193.636C214.736 193.796 214.488 194.008 214.296 194.272C214.104 194.536 214.008 194.828 214.008 195.148V198.64C214.008 198.736 213.972 198.82 213.9 198.892C213.828 198.964 213.744 199 213.648 199C213.536 199 213.448 198.964 213.384 198.892C213.32 198.82 213.288 198.736 213.288 198.64V193.264C213.288 193.168 213.32 193.084 213.384 193.012C213.456 192.94 213.544 192.904 213.648 192.904C213.752 192.904 213.836 192.94 213.9 193.012C213.972 193.084 214.008 193.168 214.008 193.264V194.272L213.732 194.704C213.748 194.448 213.828 194.204 213.972 193.972C214.124 193.732 214.316 193.52 214.548 193.336C214.78 193.144 215.036 192.996 215.316 192.892C215.604 192.78 215.892 192.724 216.18 192.724Z" fill="black"/>
<path d="M220.657 199C220.553 199 220.465 198.964 220.393 198.892C220.329 198.82 220.297 198.736 220.297 198.64V190.48C220.297 190.384 220.329 190.3 220.393 190.228C220.465 190.156 220.553 190.12 220.657 190.12C220.761 190.12 220.845 190.156 220.909 190.228C220.981 190.3 221.017 190.384 221.017 190.48V198.64C221.017 198.736 220.981 198.82 220.909 198.892C220.845 198.964 220.761 199 220.657 199ZM224.737 192.844C224.825 192.844 224.905 192.884 224.977 192.964C225.049 193.036 225.085 193.116 225.085 193.204C225.085 193.308 225.041 193.4 224.953 193.48L220.921 196.912L220.885 196.06L224.485 192.964C224.557 192.884 224.641 192.844 224.737 192.844ZM224.833 199C224.729 199 224.641 198.956 224.569 198.868L221.833 195.964L222.373 195.472L225.085 198.364C225.157 198.444 225.193 198.536 225.193 198.64C225.193 198.752 225.149 198.84 225.061 198.904C224.973 198.968 224.897 199 224.833 199Z" fill="black"/>
<path d="M226.241 198.028C226.177 197.932 226.145 197.84 226.145 197.752C226.153 197.656 226.205 197.58 226.301 197.524C226.365 197.468 226.437 197.444 226.517 197.452C226.605 197.46 226.685 197.5 226.757 197.572C226.973 197.852 227.233 198.08 227.537 198.256C227.849 198.424 228.217 198.508 228.641 198.508C228.865 198.508 229.085 198.472 229.301 198.4C229.525 198.32 229.709 198.204 229.853 198.052C229.997 197.892 230.069 197.692 230.069 197.452C230.069 197.204 229.997 197.004 229.853 196.852C229.709 196.7 229.521 196.58 229.289 196.492C229.065 196.404 228.825 196.328 228.569 196.264C228.297 196.192 228.033 196.112 227.777 196.024C227.521 195.928 227.293 195.812 227.093 195.676C226.901 195.532 226.745 195.36 226.625 195.16C226.505 194.96 226.445 194.716 226.445 194.428C226.445 194.092 226.537 193.796 226.721 193.54C226.905 193.284 227.153 193.084 227.465 192.94C227.785 192.796 228.145 192.724 228.545 192.724C228.745 192.724 228.961 192.752 229.193 192.808C229.425 192.856 229.653 192.94 229.877 193.06C230.101 193.18 230.301 193.344 230.477 193.552C230.549 193.624 230.585 193.708 230.585 193.804C230.585 193.892 230.545 193.972 230.465 194.044C230.401 194.092 230.325 194.116 230.237 194.116C230.157 194.116 230.089 194.084 230.033 194.02C229.841 193.804 229.613 193.64 229.349 193.528C229.085 193.416 228.801 193.36 228.497 193.36C228.265 193.36 228.045 193.4 227.837 193.48C227.637 193.552 227.469 193.664 227.333 193.816C227.197 193.968 227.129 194.168 227.129 194.416C227.145 194.648 227.225 194.836 227.369 194.98C227.521 195.124 227.717 195.244 227.957 195.34C228.205 195.436 228.481 195.524 228.785 195.604C229.041 195.668 229.285 195.744 229.517 195.832C229.757 195.92 229.965 196.032 230.141 196.168C230.325 196.296 230.469 196.46 230.573 196.66C230.685 196.86 230.741 197.112 230.741 197.416C230.741 197.768 230.641 198.072 230.441 198.328C230.249 198.584 229.989 198.78 229.661 198.916C229.333 199.052 228.969 199.12 228.569 199.12C228.137 199.12 227.717 199.036 227.309 198.868C226.909 198.7 226.553 198.42 226.241 198.028Z" fill="black"/>
<path d="M237.715 190.168C237.835 190.168 237.963 190.18 238.099 190.204C238.243 190.228 238.367 190.272 238.471 190.336C238.575 190.392 238.627 190.48 238.627 190.6C238.627 190.688 238.595 190.768 238.531 190.84C238.467 190.904 238.395 190.936 238.315 190.936C238.235 190.936 238.135 190.916 238.015 190.876C237.895 190.828 237.767 190.804 237.631 190.804C237.463 190.804 237.319 190.844 237.199 190.924C237.079 190.996 236.987 191.104 236.923 191.248C236.859 191.384 236.827 191.552 236.827 191.752V198.64C236.827 198.736 236.791 198.82 236.719 198.892C236.655 198.964 236.571 199 236.467 199C236.363 199 236.275 198.964 236.203 198.892C236.139 198.82 236.107 198.736 236.107 198.64V191.752C236.107 191.24 236.255 190.848 236.551 190.576C236.855 190.304 237.243 190.168 237.715 190.168ZM238.171 192.988C238.267 192.988 238.347 193.02 238.411 193.084C238.475 193.148 238.507 193.228 238.507 193.324C238.507 193.42 238.475 193.5 238.411 193.564C238.347 193.628 238.267 193.66 238.171 193.66H235.231C235.143 193.66 235.063 193.628 234.991 193.564C234.927 193.492 234.895 193.412 234.895 193.324C234.895 193.22 234.927 193.14 234.991 193.084C235.063 193.02 235.143 192.988 235.231 192.988H238.171Z" fill="black"/>
<path d="M245.086 195.928C245.086 196.536 244.954 197.084 244.69 197.572C244.426 198.052 244.066 198.432 243.61 198.712C243.154 198.984 242.634 199.12 242.05 199.12C241.482 199.12 240.966 198.984 240.502 198.712C240.046 198.432 239.682 198.052 239.41 197.572C239.146 197.084 239.014 196.536 239.014 195.928C239.014 195.312 239.146 194.764 239.41 194.284C239.682 193.804 240.046 193.424 240.502 193.144C240.966 192.864 241.482 192.724 242.05 192.724C242.634 192.724 243.154 192.864 243.61 193.144C244.066 193.424 244.426 193.804 244.69 194.284C244.954 194.764 245.086 195.312 245.086 195.928ZM244.366 195.928C244.366 195.44 244.266 195.008 244.066 194.632C243.866 194.248 243.59 193.948 243.238 193.732C242.894 193.508 242.498 193.396 242.05 193.396C241.618 193.396 241.226 193.508 240.874 193.732C240.522 193.948 240.242 194.248 240.034 194.632C239.834 195.008 239.734 195.44 239.734 195.928C239.734 196.416 239.834 196.848 240.034 197.224C240.242 197.6 240.522 197.9 240.874 198.124C241.226 198.34 241.618 198.448 242.05 198.448C242.498 198.448 242.894 198.34 243.238 198.124C243.59 197.9 243.866 197.6 244.066 197.224C244.266 196.848 244.366 196.416 244.366 195.928Z" fill="black"/>
<path d="M246.976 199C246.864 199 246.776 198.964 246.712 198.892C246.648 198.82 246.616 198.736 246.616 198.64V193.264C246.616 193.168 246.648 193.084 246.712 193.012C246.784 192.94 246.872 192.904 246.976 192.904C247.08 192.904 247.164 192.94 247.228 193.012C247.3 193.084 247.336 193.168 247.336 193.264V195.064L247.156 195.1C247.18 194.82 247.248 194.544 247.36 194.272C247.48 193.992 247.64 193.736 247.84 193.504C248.04 193.272 248.276 193.084 248.548 192.94C248.828 192.796 249.14 192.724 249.484 192.724C249.628 192.724 249.768 192.756 249.904 192.82C250.04 192.876 250.108 192.972 250.108 193.108C250.108 193.228 250.076 193.32 250.012 193.384C249.948 193.448 249.872 193.48 249.784 193.48C249.712 193.48 249.632 193.46 249.544 193.42C249.464 193.38 249.356 193.36 249.22 193.36C248.996 193.36 248.772 193.428 248.548 193.564C248.324 193.692 248.12 193.868 247.936 194.092C247.752 194.316 247.604 194.568 247.492 194.848C247.388 195.12 247.336 195.396 247.336 195.676V198.64C247.336 198.736 247.3 198.82 247.228 198.892C247.156 198.964 247.072 199 246.976 199Z" fill="black"/>
<path d="M255.306 198.64C255.306 198.736 255.27 198.82 255.198 198.892C255.126 198.964 255.042 199 254.946 199C254.842 199 254.754 198.964 254.682 198.892C254.618 198.82 254.586 198.736 254.586 198.64V190.48C254.586 190.384 254.622 190.3 254.694 190.228C254.766 190.156 254.85 190.12 254.946 190.12C255.05 190.12 255.134 190.156 255.198 190.228C255.27 190.3 255.306 190.384 255.306 190.48V198.64Z" fill="black"/>
<path d="M259.935 199.12C259.319 199.12 258.775 198.988 258.303 198.724C257.831 198.46 257.463 198.092 257.199 197.62C256.935 197.148 256.803 196.596 256.803 195.964C256.803 195.284 256.935 194.704 257.199 194.224C257.471 193.744 257.819 193.376 258.243 193.12C258.675 192.856 259.131 192.724 259.611 192.724C259.963 192.724 260.303 192.788 260.631 192.916C260.967 193.036 261.263 193.22 261.519 193.468C261.783 193.708 261.991 194.004 262.143 194.356C262.303 194.708 262.391 195.116 262.407 195.58C262.399 195.676 262.359 195.76 262.287 195.832C262.215 195.896 262.131 195.928 262.035 195.928H257.223L257.079 195.28H261.807L261.651 195.424V195.184C261.619 194.808 261.499 194.488 261.291 194.224C261.083 193.96 260.831 193.76 260.535 193.624C260.239 193.488 259.931 193.42 259.611 193.42C259.371 193.42 259.123 193.468 258.867 193.564C258.619 193.66 258.391 193.812 258.183 194.02C257.983 194.22 257.819 194.48 257.691 194.8C257.563 195.112 257.499 195.484 257.499 195.916C257.499 196.388 257.595 196.816 257.787 197.2C257.979 197.584 258.255 197.888 258.615 198.112C258.983 198.336 259.419 198.448 259.923 198.448C260.203 198.448 260.455 198.408 260.679 198.328C260.903 198.248 261.099 198.144 261.267 198.016C261.435 197.88 261.575 197.74 261.687 197.596C261.775 197.524 261.863 197.488 261.951 197.488C262.031 197.488 262.099 197.52 262.155 197.584C262.219 197.648 262.251 197.72 262.251 197.8C262.251 197.896 262.211 197.98 262.131 198.052C261.891 198.34 261.579 198.592 261.195 198.808C260.811 199.016 260.391 199.12 259.935 199.12Z" fill="black"/>
<path d="M263.552 192.892H266.348C266.444 192.892 266.524 192.928 266.588 193C266.652 193.064 266.684 193.144 266.684 193.24C266.684 193.328 266.652 193.404 266.588 193.468C266.524 193.532 266.444 193.564 266.348 193.564H263.552C263.456 193.564 263.372 193.532 263.3 193.468C263.236 193.396 263.204 193.316 263.204 193.228C263.204 193.132 263.236 193.052 263.3 192.988C263.372 192.924 263.456 192.892 263.552 192.892ZM264.788 191.2C264.892 191.2 264.976 191.236 265.04 191.308C265.112 191.38 265.148 191.464 265.148 191.56V197.584C265.148 197.808 265.176 197.976 265.232 198.088C265.296 198.2 265.376 198.276 265.472 198.316C265.568 198.348 265.664 198.364 265.76 198.364C265.824 198.364 265.88 198.356 265.928 198.34C265.984 198.316 266.044 198.304 266.108 198.304C266.18 198.304 266.24 198.332 266.288 198.388C266.344 198.444 266.372 198.516 266.372 198.604C266.372 198.716 266.308 198.812 266.18 198.892C266.052 198.964 265.9 199 265.724 199C265.652 199 265.544 198.996 265.4 198.988C265.256 198.972 265.108 198.928 264.956 198.856C264.804 198.776 264.676 198.64 264.572 198.448C264.476 198.256 264.428 197.98 264.428 197.62V191.56C264.428 191.464 264.46 191.38 264.524 191.308C264.596 191.236 264.684 191.2 264.788 191.2Z" fill="black"/>
<path d="M267.618 192.892H270.414C270.51 192.892 270.59 192.928 270.654 193C270.718 193.064 270.75 193.144 270.75 193.24C270.75 193.328 270.718 193.404 270.654 193.468C270.59 193.532 270.51 193.564 270.414 193.564H267.618C267.522 193.564 267.438 193.532 267.366 193.468C267.302 193.396 267.27 193.316 267.27 193.228C267.27 193.132 267.302 193.052 267.366 192.988C267.438 192.924 267.522 192.892 267.618 192.892ZM268.854 191.2C268.958 191.2 269.042 191.236 269.106 191.308C269.178 191.38 269.214 191.464 269.214 191.56V197.584C269.214 197.808 269.242 197.976 269.298 198.088C269.362 198.2 269.442 198.276 269.538 198.316C269.634 198.348 269.73 198.364 269.826 198.364C269.89 198.364 269.946 198.356 269.994 198.34C270.05 198.316 270.11 198.304 270.174 198.304C270.246 198.304 270.306 198.332 270.354 198.388C270.41 198.444 270.438 198.516 270.438 198.604C270.438 198.716 270.374 198.812 270.246 198.892C270.118 198.964 269.966 199 269.79 199C269.718 199 269.61 198.996 269.466 198.988C269.322 198.972 269.174 198.928 269.022 198.856C268.87 198.776 268.742 198.64 268.638 198.448C268.542 198.256 268.494 197.98 268.494 197.62V191.56C268.494 191.464 268.526 191.38 268.59 191.308C268.662 191.236 268.75 191.2 268.854 191.2Z" fill="black"/>
<path d="M272.777 198.64C272.777 198.736 272.741 198.82 272.669 198.892C272.597 198.964 272.513 199 272.417 199C272.313 199 272.225 198.964 272.153 198.892C272.089 198.82 272.057 198.736 272.057 198.64V193.12C272.057 193.024 272.089 192.94 272.153 192.868C272.225 192.796 272.313 192.76 272.417 192.76C272.521 192.76 272.605 192.796 272.669 192.868C272.741 192.94 272.777 193.024 272.777 193.12V198.64ZM272.417 191.956C272.249 191.956 272.121 191.92 272.033 191.848C271.953 191.768 271.913 191.656 271.913 191.512V191.392C271.913 191.248 271.957 191.14 272.045 191.068C272.141 190.988 272.269 190.948 272.429 190.948C272.581 190.948 272.697 190.988 272.777 191.068C272.865 191.14 272.909 191.248 272.909 191.392V191.512C272.909 191.656 272.865 191.768 272.777 191.848C272.697 191.92 272.577 191.956 272.417 191.956Z" fill="black"/>
<path d="M277.539 192.724C278.067 192.724 278.487 192.832 278.799 193.048C279.119 193.256 279.347 193.544 279.483 193.912C279.627 194.272 279.699 194.672 279.699 195.112V198.64C279.699 198.736 279.663 198.82 279.591 198.892C279.519 198.964 279.435 199 279.339 199C279.227 199 279.139 198.964 279.075 198.892C279.011 198.82 278.979 198.736 278.979 198.64V195.148C278.979 194.828 278.927 194.536 278.823 194.272C278.719 194.008 278.547 193.796 278.307 193.636C278.075 193.476 277.767 193.396 277.383 193.396C277.039 193.396 276.711 193.476 276.399 193.636C276.095 193.796 275.847 194.008 275.655 194.272C275.463 194.536 275.367 194.828 275.367 195.148V198.64C275.367 198.736 275.331 198.82 275.259 198.892C275.187 198.964 275.103 199 275.007 199C274.895 199 274.807 198.964 274.743 198.892C274.679 198.82 274.647 198.736 274.647 198.64V193.264C274.647 193.168 274.679 193.084 274.743 193.012C274.815 192.94 274.903 192.904 275.007 192.904C275.111 192.904 275.195 192.94 275.259 193.012C275.331 193.084 275.367 193.168 275.367 193.264V194.272L275.091 194.704C275.107 194.448 275.187 194.204 275.331 193.972C275.483 193.732 275.675 193.52 275.907 193.336C276.139 193.144 276.395 192.996 276.675 192.892C276.963 192.78 277.251 192.724 277.539 192.724Z" fill="black"/>
<path d="M284.141 192.724C284.501 192.724 284.833 192.788 285.137 192.916C285.441 193.036 285.705 193.196 285.929 193.396C286.161 193.588 286.341 193.796 286.469 194.02C286.597 194.236 286.661 194.444 286.661 194.644L286.457 194.356V193.24C286.457 193.136 286.489 193.048 286.553 192.976C286.625 192.904 286.713 192.868 286.817 192.868C286.929 192.868 287.017 192.904 287.081 192.976C287.145 193.048 287.177 193.136 287.177 193.24V198.436C287.177 199.076 287.045 199.616 286.781 200.056C286.517 200.496 286.157 200.828 285.701 201.052C285.253 201.284 284.741 201.4 284.165 201.4C283.885 201.4 283.589 201.364 283.277 201.292C282.973 201.22 282.709 201.128 282.485 201.016C282.269 200.904 282.149 200.788 282.125 200.668C282.061 200.596 282.029 200.524 282.029 200.452C282.037 200.388 282.073 200.332 282.137 200.284C282.217 200.228 282.301 200.22 282.389 200.26C282.477 200.308 282.609 200.368 282.785 200.44C282.865 200.464 282.973 200.5 283.109 200.548C283.245 200.596 283.405 200.636 283.589 200.668C283.781 200.708 283.981 200.728 284.189 200.728C284.909 200.728 285.465 200.52 285.857 200.104C286.257 199.696 286.457 199.156 286.457 198.484V197.332L286.589 197.368C286.517 197.656 286.397 197.908 286.229 198.124C286.069 198.34 285.877 198.524 285.653 198.676C285.429 198.82 285.185 198.928 284.921 199C284.665 199.08 284.409 199.12 284.153 199.12C283.601 199.12 283.105 198.98 282.665 198.7C282.225 198.42 281.873 198.04 281.609 197.56C281.353 197.08 281.225 196.532 281.225 195.916C281.225 195.308 281.353 194.764 281.609 194.284C281.873 193.796 282.221 193.416 282.653 193.144C283.093 192.864 283.589 192.724 284.141 192.724ZM284.225 193.396C283.785 193.396 283.389 193.508 283.037 193.732C282.693 193.948 282.421 194.248 282.221 194.632C282.029 195.008 281.933 195.436 281.933 195.916C281.933 196.396 282.029 196.828 282.221 197.212C282.421 197.596 282.693 197.9 283.037 198.124C283.389 198.34 283.785 198.448 284.225 198.448C284.665 198.448 285.057 198.34 285.401 198.124C285.745 197.908 286.017 197.612 286.217 197.236C286.417 196.852 286.517 196.412 286.517 195.916C286.517 195.42 286.417 194.984 286.217 194.608C286.017 194.224 285.745 193.928 285.401 193.72C285.057 193.504 284.665 193.396 284.225 193.396Z" fill="black"/>
<path d="M295.114 192.82C295.61 192.82 296.034 192.952 296.386 193.216C296.738 193.472 296.978 193.856 297.106 194.368L296.938 194.416L297.01 194.2C297.114 193.96 297.286 193.736 297.526 193.528C297.774 193.312 298.054 193.14 298.366 193.012C298.678 192.884 298.994 192.82 299.314 192.82C299.818 192.82 300.222 192.928 300.526 193.144C300.838 193.36 301.062 193.652 301.198 194.02C301.342 194.38 301.414 194.788 301.414 195.244V198.64C301.414 198.736 301.378 198.82 301.306 198.892C301.242 198.964 301.158 199 301.054 199C300.95 199 300.862 198.964 300.79 198.892C300.726 198.82 300.694 198.736 300.694 198.64V195.28C300.694 194.952 300.642 194.652 300.538 194.38C300.434 194.108 300.27 193.892 300.046 193.732C299.822 193.572 299.522 193.492 299.146 193.492C298.818 193.492 298.502 193.572 298.198 193.732C297.902 193.892 297.658 194.108 297.466 194.38C297.282 194.652 297.19 194.952 297.19 195.28V198.64C297.19 198.736 297.154 198.82 297.082 198.892C297.018 198.964 296.934 199 296.83 199C296.726 199 296.638 198.964 296.566 198.892C296.502 198.82 296.47 198.736 296.47 198.64V195.244C296.47 194.916 296.422 194.62 296.326 194.356C296.23 194.092 296.074 193.884 295.858 193.732C295.642 193.572 295.35 193.492 294.982 193.492C294.654 193.492 294.342 193.572 294.046 193.732C293.758 193.884 293.522 194.092 293.338 194.356C293.162 194.62 293.074 194.916 293.074 195.244V198.64C293.074 198.736 293.038 198.82 292.966 198.892C292.894 198.964 292.81 199 292.714 199C292.602 199 292.514 198.964 292.45 198.892C292.386 198.82 292.354 198.736 292.354 198.64V193.264C292.354 193.168 292.386 193.084 292.45 193.012C292.522 192.94 292.61 192.904 292.714 192.904C292.818 192.904 292.902 192.94 292.966 193.012C293.038 193.084 293.074 193.168 293.074 193.264V194.38L292.75 194.824C292.774 194.584 292.85 194.344 292.978 194.104C293.114 193.864 293.29 193.648 293.506 193.456C293.722 193.264 293.966 193.112 294.238 193C294.518 192.88 294.81 192.82 295.114 192.82Z" fill="black"/>
<path d="M306.072 199.12C305.456 199.12 304.912 198.988 304.44 198.724C303.968 198.46 303.6 198.092 303.336 197.62C303.072 197.148 302.94 196.596 302.94 195.964C302.94 195.284 303.072 194.704 303.336 194.224C303.608 193.744 303.956 193.376 304.38 193.12C304.812 192.856 305.268 192.724 305.748 192.724C306.1 192.724 306.44 192.788 306.768 192.916C307.104 193.036 307.4 193.22 307.656 193.468C307.92 193.708 308.128 194.004 308.28 194.356C308.44 194.708 308.528 195.116 308.544 195.58C308.536 195.676 308.496 195.76 308.424 195.832C308.352 195.896 308.268 195.928 308.172 195.928H303.36L303.216 195.28H307.944L307.788 195.424V195.184C307.756 194.808 307.636 194.488 307.428 194.224C307.22 193.96 306.968 193.76 306.672 193.624C306.376 193.488 306.068 193.42 305.748 193.42C305.508 193.42 305.26 193.468 305.004 193.564C304.756 193.66 304.528 193.812 304.32 194.02C304.12 194.22 303.956 194.48 303.828 194.8C303.7 195.112 303.636 195.484 303.636 195.916C303.636 196.388 303.732 196.816 303.924 197.2C304.116 197.584 304.392 197.888 304.752 198.112C305.12 198.336 305.556 198.448 306.06 198.448C306.34 198.448 306.592 198.408 306.816 198.328C307.04 198.248 307.236 198.144 307.404 198.016C307.572 197.88 307.712 197.74 307.824 197.596C307.912 197.524 308 197.488 308.088 197.488C308.168 197.488 308.236 197.52 308.292 197.584C308.356 197.648 308.388 197.72 308.388 197.8C308.388 197.896 308.348 197.98 308.268 198.052C308.028 198.34 307.716 198.592 307.332 198.808C306.948 199.016 306.528 199.12 306.072 199.12Z" fill="black"/>
<path d="M196.532 207.904C196.636 207.904 196.72 207.94 196.784 208.012C196.856 208.084 196.892 208.168 196.892 208.264V211.648C196.892 212.44 196.668 213.044 196.22 213.46C195.772 213.876 195.168 214.084 194.408 214.084C193.656 214.084 193.056 213.876 192.608 213.46C192.168 213.044 191.948 212.44 191.948 211.648V208.264C191.948 208.168 191.98 208.084 192.044 208.012C192.116 207.94 192.204 207.904 192.308 207.904C192.412 207.904 192.496 207.94 192.56 208.012C192.632 208.084 192.668 208.168 192.668 208.264V211.648C192.668 212.224 192.82 212.664 193.124 212.968C193.436 213.264 193.864 213.412 194.408 213.412C194.96 213.412 195.392 213.264 195.704 212.968C196.016 212.664 196.172 212.224 196.172 211.648V208.264C196.172 208.168 196.204 208.084 196.268 208.012C196.332 207.94 196.42 207.904 196.532 207.904Z" fill="black"/>
<path d="M198.432 213.028C198.368 212.932 198.336 212.84 198.336 212.752C198.344 212.656 198.396 212.58 198.492 212.524C198.556 212.468 198.628 212.444 198.708 212.452C198.796 212.46 198.876 212.5 198.948 212.572C199.164 212.852 199.424 213.08 199.728 213.256C200.04 213.424 200.408 213.508 200.832 213.508C201.056 213.508 201.276 213.472 201.492 213.4C201.716 213.32 201.9 213.204 202.044 213.052C202.188 212.892 202.26 212.692 202.26 212.452C202.26 212.204 202.188 212.004 202.044 211.852C201.9 211.7 201.712 211.58 201.48 211.492C201.256 211.404 201.016 211.328 200.76 211.264C200.488 211.192 200.224 211.112 199.968 211.024C199.712 210.928 199.484 210.812 199.284 210.676C199.092 210.532 198.936 210.36 198.816 210.16C198.696 209.96 198.636 209.716 198.636 209.428C198.636 209.092 198.728 208.796 198.912 208.54C199.096 208.284 199.344 208.084 199.656 207.94C199.976 207.796 200.336 207.724 200.736 207.724C200.936 207.724 201.152 207.752 201.384 207.808C201.616 207.856 201.844 207.94 202.068 208.06C202.292 208.18 202.492 208.344 202.668 208.552C202.74 208.624 202.776 208.708 202.776 208.804C202.776 208.892 202.736 208.972 202.656 209.044C202.592 209.092 202.516 209.116 202.428 209.116C202.348 209.116 202.28 209.084 202.224 209.02C202.032 208.804 201.804 208.64 201.54 208.528C201.276 208.416 200.992 208.36 200.688 208.36C200.456 208.36 200.236 208.4 200.028 208.48C199.828 208.552 199.66 208.664 199.524 208.816C199.388 208.968 199.32 209.168 199.32 209.416C199.336 209.648 199.416 209.836 199.56 209.98C199.712 210.124 199.908 210.244 200.148 210.34C200.396 210.436 200.672 210.524 200.976 210.604C201.232 210.668 201.476 210.744 201.708 210.832C201.948 210.92 202.156 211.032 202.332 211.168C202.516 211.296 202.66 211.46 202.764 211.66C202.876 211.86 202.932 212.112 202.932 212.416C202.932 212.768 202.832 213.072 202.632 213.328C202.44 213.584 202.18 213.78 201.852 213.916C201.524 214.052 201.16 214.12 200.76 214.12C200.328 214.12 199.908 214.036 199.5 213.868C199.1 213.7 198.744 213.42 198.432 213.028Z" fill="black"/>
<path d="M207.177 214.12C206.561 214.12 206.017 213.988 205.545 213.724C205.073 213.46 204.705 213.092 204.441 212.62C204.177 212.148 204.045 211.596 204.045 210.964C204.045 210.284 204.177 209.704 204.441 209.224C204.713 208.744 205.061 208.376 205.485 208.12C205.917 207.856 206.373 207.724 206.853 207.724C207.205 207.724 207.545 207.788 207.873 207.916C208.209 208.036 208.505 208.22 208.761 208.468C209.025 208.708 209.233 209.004 209.385 209.356C209.545 209.708 209.633 210.116 209.649 210.58C209.641 210.676 209.601 210.76 209.529 210.832C209.457 210.896 209.373 210.928 209.277 210.928H204.465L204.321 210.28H209.049L208.893 210.424V210.184C208.861 209.808 208.741 209.488 208.533 209.224C208.325 208.96 208.073 208.76 207.777 208.624C207.481 208.488 207.173 208.42 206.853 208.42C206.613 208.42 206.365 208.468 206.109 208.564C205.861 208.66 205.633 208.812 205.425 209.02C205.225 209.22 205.061 209.48 204.933 209.8C204.805 210.112 204.741 210.484 204.741 210.916C204.741 211.388 204.837 211.816 205.029 212.2C205.221 212.584 205.497 212.888 205.857 213.112C206.225 213.336 206.661 213.448 207.165 213.448C207.445 213.448 207.697 213.408 207.921 213.328C208.145 213.248 208.341 213.144 208.509 213.016C208.677 212.88 208.817 212.74 208.929 212.596C209.017 212.524 209.105 212.488 209.193 212.488C209.273 212.488 209.341 212.52 209.397 212.584C209.461 212.648 209.493 212.72 209.493 212.8C209.493 212.896 209.453 212.98 209.373 213.052C209.133 213.34 208.821 213.592 208.437 213.808C208.053 214.016 207.633 214.12 207.177 214.12Z" fill="black"/>
<path d="M219.043 207.76C219.147 207.76 219.231 207.796 219.295 207.868C219.367 207.94 219.403 208.024 219.403 208.12V213.412C219.403 214.06 219.275 214.604 219.019 215.044C218.763 215.492 218.419 215.828 217.987 216.052C217.555 216.284 217.063 216.4 216.511 216.4C216.167 216.4 215.847 216.36 215.551 216.28C215.263 216.208 215.027 216.112 214.843 215.992C214.747 215.936 214.675 215.868 214.627 215.788C214.579 215.708 214.575 215.624 214.615 215.536C214.655 215.424 214.715 215.348 214.795 215.308C214.883 215.276 214.971 215.28 215.059 215.32C215.195 215.392 215.391 215.48 215.647 215.584C215.903 215.688 216.195 215.74 216.523 215.74C216.963 215.74 217.343 215.648 217.663 215.464C217.991 215.28 218.243 215.012 218.419 214.66C218.595 214.316 218.683 213.904 218.683 213.424V212.56L218.767 212.848C218.647 213.096 218.475 213.316 218.251 213.508C218.035 213.7 217.783 213.852 217.495 213.964C217.215 214.068 216.915 214.12 216.595 214.12C216.115 214.12 215.715 214.024 215.395 213.832C215.083 213.632 214.851 213.36 214.699 213.016C214.547 212.672 214.471 212.268 214.471 211.804V208.12C214.471 208.024 214.503 207.94 214.567 207.868C214.631 207.796 214.719 207.76 214.831 207.76C214.935 207.76 215.019 207.796 215.083 207.868C215.155 207.94 215.191 208.024 215.191 208.12V211.696C215.191 212.256 215.311 212.688 215.551 212.992C215.799 213.296 216.199 213.448 216.751 213.448C217.095 213.448 217.411 213.368 217.699 213.208C217.987 213.04 218.223 212.824 218.407 212.56C218.591 212.288 218.683 212 218.683 211.696V208.12C218.683 208.024 218.715 207.94 218.779 207.868C218.851 207.796 218.939 207.76 219.043 207.76Z" fill="black"/>
<path d="M226.945 210.928C226.945 211.536 226.813 212.084 226.549 212.572C226.285 213.052 225.925 213.432 225.469 213.712C225.013 213.984 224.493 214.12 223.909 214.12C223.341 214.12 222.825 213.984 222.361 213.712C221.905 213.432 221.541 213.052 221.269 212.572C221.005 212.084 220.873 211.536 220.873 210.928C220.873 210.312 221.005 209.764 221.269 209.284C221.541 208.804 221.905 208.424 222.361 208.144C222.825 207.864 223.341 207.724 223.909 207.724C224.493 207.724 225.013 207.864 225.469 208.144C225.925 208.424 226.285 208.804 226.549 209.284C226.813 209.764 226.945 210.312 226.945 210.928ZM226.225 210.928C226.225 210.44 226.125 210.008 225.925 209.632C225.725 209.248 225.449 208.948 225.097 208.732C224.753 208.508 224.357 208.396 223.909 208.396C223.477 208.396 223.085 208.508 222.733 208.732C222.381 208.948 222.101 209.248 221.893 209.632C221.693 210.008 221.593 210.44 221.593 210.928C221.593 211.416 221.693 211.848 221.893 212.224C222.101 212.6 222.381 212.9 222.733 213.124C223.085 213.34 223.477 213.448 223.909 213.448C224.357 213.448 224.753 213.34 225.097 213.124C225.449 212.9 225.725 212.6 225.925 212.224C226.125 211.848 226.225 211.416 226.225 210.928Z" fill="black"/>
<path d="M233.059 207.904C233.163 207.904 233.247 207.94 233.311 208.012C233.383 208.084 233.419 208.168 233.419 208.264V211.648C233.419 212.44 233.195 213.044 232.747 213.46C232.299 213.876 231.695 214.084 230.935 214.084C230.183 214.084 229.583 213.876 229.135 213.46C228.695 213.044 228.475 212.44 228.475 211.648V208.264C228.475 208.168 228.507 208.084 228.571 208.012C228.643 207.94 228.731 207.904 228.835 207.904C228.939 207.904 229.023 207.94 229.087 208.012C229.159 208.084 229.195 208.168 229.195 208.264V211.648C229.195 212.224 229.347 212.664 229.651 212.968C229.963 213.264 230.391 213.412 230.935 213.412C231.487 213.412 231.919 213.264 232.231 212.968C232.543 212.664 232.699 212.224 232.699 211.648V208.264C232.699 208.168 232.731 208.084 232.795 208.012C232.859 207.94 232.947 207.904 233.059 207.904Z" fill="black"/>
<path d="M235.667 214C235.555 214 235.467 213.964 235.403 213.892C235.339 213.82 235.307 213.736 235.307 213.64V208.264C235.307 208.168 235.339 208.084 235.403 208.012C235.475 207.94 235.563 207.904 235.667 207.904C235.771 207.904 235.855 207.94 235.919 208.012C235.991 208.084 236.027 208.168 236.027 208.264V210.064L235.847 210.1C235.871 209.82 235.939 209.544 236.051 209.272C236.171 208.992 236.331 208.736 236.531 208.504C236.731 208.272 236.967 208.084 237.239 207.94C237.519 207.796 237.831 207.724 238.175 207.724C238.319 207.724 238.459 207.756 238.595 207.82C238.731 207.876 238.799 207.972 238.799 208.108C238.799 208.228 238.767 208.32 238.703 208.384C238.639 208.448 238.563 208.48 238.475 208.48C238.403 208.48 238.323 208.46 238.235 208.42C238.155 208.38 238.047 208.36 237.911 208.36C237.687 208.36 237.463 208.428 237.239 208.564C237.015 208.692 236.811 208.868 236.627 209.092C236.443 209.316 236.295 209.568 236.183 209.848C236.079 210.12 236.027 210.396 236.027 210.676V213.64C236.027 213.736 235.991 213.82 235.919 213.892C235.847 213.964 235.763 214 235.667 214Z" fill="black"/>
<path d="M245.906 207.724C246.29 207.724 246.642 207.768 246.962 207.856C247.282 207.936 247.538 208.048 247.73 208.192C247.93 208.336 248.03 208.492 248.03 208.66C248.03 208.74 248.002 208.82 247.946 208.9C247.89 208.972 247.814 209.008 247.718 209.008C247.622 209.008 247.542 208.984 247.478 208.936C247.422 208.888 247.362 208.832 247.298 208.768C247.242 208.704 247.158 208.644 247.046 208.588C246.942 208.54 246.794 208.496 246.602 208.456C246.41 208.416 246.19 208.396 245.942 208.396C245.494 208.396 245.09 208.508 244.73 208.732C244.37 208.956 244.086 209.26 243.878 209.644C243.67 210.02 243.566 210.444 243.566 210.916C243.566 211.396 243.666 211.828 243.866 212.212C244.066 212.596 244.342 212.9 244.694 213.124C245.046 213.34 245.458 213.448 245.93 213.448C246.25 213.448 246.498 213.42 246.674 213.364C246.85 213.308 247.002 213.244 247.13 213.172C247.282 213.084 247.39 213 247.454 212.92C247.526 212.832 247.618 212.788 247.73 212.788C247.834 212.788 247.91 212.82 247.958 212.884C248.014 212.94 248.042 213.016 248.042 213.112C248.042 213.24 247.946 213.384 247.754 213.544C247.57 213.696 247.314 213.832 246.986 213.952C246.658 214.064 246.282 214.12 245.858 214.12C245.258 214.12 244.73 213.98 244.274 213.7C243.826 213.42 243.474 213.04 243.218 212.56C242.97 212.072 242.846 211.524 242.846 210.916C242.846 210.332 242.974 209.8 243.23 209.32C243.486 208.84 243.842 208.456 244.298 208.168C244.762 207.872 245.298 207.724 245.906 207.724Z" fill="black"/>
<path d="M255.129 210.928C255.129 211.536 254.997 212.084 254.733 212.572C254.469 213.052 254.109 213.432 253.653 213.712C253.197 213.984 252.677 214.12 252.093 214.12C251.525 214.12 251.009 213.984 250.545 213.712C250.089 213.432 249.725 213.052 249.453 212.572C249.189 212.084 249.057 211.536 249.057 210.928C249.057 210.312 249.189 209.764 249.453 209.284C249.725 208.804 250.089 208.424 250.545 208.144C251.009 207.864 251.525 207.724 252.093 207.724C252.677 207.724 253.197 207.864 253.653 208.144C254.109 208.424 254.469 208.804 254.733 209.284C254.997 209.764 255.129 210.312 255.129 210.928ZM254.409 210.928C254.409 210.44 254.309 210.008 254.109 209.632C253.909 209.248 253.633 208.948 253.281 208.732C252.937 208.508 252.541 208.396 252.093 208.396C251.661 208.396 251.269 208.508 250.917 208.732C250.565 208.948 250.285 209.248 250.077 209.632C249.877 210.008 249.777 210.44 249.777 210.928C249.777 211.416 249.877 211.848 250.077 212.224C250.285 212.6 250.565 212.9 250.917 213.124C251.269 213.34 251.661 213.448 252.093 213.448C252.541 213.448 252.937 213.34 253.281 213.124C253.633 212.9 253.909 212.6 254.109 212.224C254.309 211.848 254.409 211.416 254.409 210.928Z" fill="black"/>
<path d="M259.419 207.82C259.915 207.82 260.339 207.952 260.691 208.216C261.043 208.472 261.283 208.856 261.411 209.368L261.243 209.416L261.315 209.2C261.419 208.96 261.591 208.736 261.831 208.528C262.079 208.312 262.359 208.14 262.671 208.012C262.983 207.884 263.299 207.82 263.619 207.82C264.123 207.82 264.527 207.928 264.831 208.144C265.143 208.36 265.367 208.652 265.503 209.02C265.647 209.38 265.719 209.788 265.719 210.244V213.64C265.719 213.736 265.683 213.82 265.611 213.892C265.547 213.964 265.463 214 265.359 214C265.255 214 265.167 213.964 265.095 213.892C265.031 213.82 264.999 213.736 264.999 213.64V210.28C264.999 209.952 264.947 209.652 264.843 209.38C264.739 209.108 264.575 208.892 264.351 208.732C264.127 208.572 263.827 208.492 263.451 208.492C263.123 208.492 262.807 208.572 262.503 208.732C262.207 208.892 261.963 209.108 261.771 209.38C261.587 209.652 261.495 209.952 261.495 210.28V213.64C261.495 213.736 261.459 213.82 261.387 213.892C261.323 213.964 261.239 214 261.135 214C261.031 214 260.943 213.964 260.871 213.892C260.807 213.82 260.775 213.736 260.775 213.64V210.244C260.775 209.916 260.727 209.62 260.631 209.356C260.535 209.092 260.379 208.884 260.163 208.732C259.947 208.572 259.655 208.492 259.287 208.492C258.959 208.492 258.647 208.572 258.351 208.732C258.063 208.884 257.827 209.092 257.643 209.356C257.467 209.62 257.379 209.916 257.379 210.244V213.64C257.379 213.736 257.343 213.82 257.271 213.892C257.199 213.964 257.115 214 257.019 214C256.907 214 256.819 213.964 256.755 213.892C256.691 213.82 256.659 213.736 256.659 213.64V208.264C256.659 208.168 256.691 208.084 256.755 208.012C256.827 207.94 256.915 207.904 257.019 207.904C257.123 207.904 257.207 207.94 257.271 208.012C257.343 208.084 257.379 208.168 257.379 208.264V209.38L257.055 209.824C257.079 209.584 257.155 209.344 257.283 209.104C257.419 208.864 257.595 208.648 257.811 208.456C258.027 208.264 258.271 208.112 258.543 208C258.823 207.88 259.115 207.82 259.419 207.82Z" fill="black"/>
<path d="M270.52 207.82C271.064 207.82 271.544 207.956 271.96 208.228C272.384 208.492 272.72 208.86 272.968 209.332C273.216 209.796 273.34 210.332 273.34 210.94C273.34 211.548 273.216 212.088 272.968 212.56C272.72 213.032 272.384 213.404 271.96 213.676C271.536 213.948 271.06 214.084 270.532 214.084C270.252 214.084 269.984 214.044 269.728 213.964C269.48 213.876 269.252 213.76 269.044 213.616C268.836 213.472 268.652 213.304 268.492 213.112C268.332 212.912 268.204 212.696 268.108 212.464L268.324 212.308V216.04C268.324 216.136 268.288 216.22 268.216 216.292C268.152 216.364 268.068 216.4 267.964 216.4C267.86 216.4 267.772 216.364 267.7 216.292C267.636 216.22 267.604 216.136 267.604 216.04V208.216C267.604 208.112 267.636 208.024 267.7 207.952C267.764 207.88 267.852 207.844 267.964 207.844C268.068 207.844 268.152 207.88 268.216 207.952C268.288 208.024 268.324 208.112 268.324 208.216V209.512L268.156 209.416C268.236 209.168 268.352 208.948 268.504 208.756C268.664 208.556 268.848 208.388 269.056 208.252C269.264 208.108 269.492 208 269.74 207.928C269.988 207.856 270.248 207.82 270.52 207.82ZM270.46 208.492C270.028 208.492 269.648 208.6 269.32 208.816C268.992 209.024 268.732 209.312 268.54 209.68C268.356 210.04 268.264 210.46 268.264 210.94C268.264 211.412 268.356 211.836 268.54 212.212C268.732 212.588 268.992 212.884 269.32 213.1C269.648 213.308 270.028 213.412 270.46 213.412C270.884 213.412 271.256 213.308 271.576 213.1C271.904 212.884 272.164 212.588 272.356 212.212C272.548 211.836 272.644 211.412 272.644 210.94C272.644 210.468 272.548 210.048 272.356 209.68C272.164 209.312 271.904 209.024 271.576 208.816C271.256 208.6 270.884 208.492 270.46 208.492Z" fill="black"/>
<path d="M279.466 207.904C279.57 207.904 279.654 207.94 279.718 208.012C279.79 208.084 279.826 208.168 279.826 208.264V211.648C279.826 212.44 279.602 213.044 279.154 213.46C278.706 213.876 278.102 214.084 277.342 214.084C276.59 214.084 275.99 213.876 275.542 213.46C275.102 213.044 274.882 212.44 274.882 211.648V208.264C274.882 208.168 274.914 208.084 274.978 208.012C275.05 207.94 275.138 207.904 275.242 207.904C275.346 207.904 275.43 207.94 275.494 208.012C275.566 208.084 275.602 208.168 275.602 208.264V211.648C275.602 212.224 275.754 212.664 276.058 212.968C276.37 213.264 276.798 213.412 277.342 213.412C277.894 213.412 278.326 213.264 278.638 212.968C278.95 212.664 279.106 212.224 279.106 211.648V208.264C279.106 208.168 279.138 208.084 279.202 208.012C279.266 207.94 279.354 207.904 279.466 207.904Z" fill="black"/>
<path d="M281.318 207.892H284.114C284.21 207.892 284.29 207.928 284.354 208C284.418 208.064 284.45 208.144 284.45 208.24C284.45 208.328 284.418 208.404 284.354 208.468C284.29 208.532 284.21 208.564 284.114 208.564H281.318C281.222 208.564 281.138 208.532 281.066 208.468C281.002 208.396 280.97 208.316 280.97 208.228C280.97 208.132 281.002 208.052 281.066 207.988C281.138 207.924 281.222 207.892 281.318 207.892ZM282.554 206.2C282.658 206.2 282.742 206.236 282.806 206.308C282.878 206.38 282.914 206.464 282.914 206.56V212.584C282.914 212.808 282.942 212.976 282.998 213.088C283.062 213.2 283.142 213.276 283.238 213.316C283.334 213.348 283.43 213.364 283.526 213.364C283.59 213.364 283.646 213.356 283.694 213.34C283.75 213.316 283.81 213.304 283.874 213.304C283.946 213.304 284.006 213.332 284.054 213.388C284.11 213.444 284.138 213.516 284.138 213.604C284.138 213.716 284.074 213.812 283.946 213.892C283.818 213.964 283.666 214 283.49 214C283.418 214 283.31 213.996 283.166 213.988C283.022 213.972 282.874 213.928 282.722 213.856C282.57 213.776 282.442 213.64 282.338 213.448C282.242 213.256 282.194 212.98 282.194 212.62V206.56C282.194 206.464 282.226 206.38 282.29 206.308C282.362 206.236 282.45 206.2 282.554 206.2Z" fill="black"/>
<path d="M288.493 214.12C287.877 214.12 287.333 213.988 286.861 213.724C286.389 213.46 286.021 213.092 285.757 212.62C285.493 212.148 285.361 211.596 285.361 210.964C285.361 210.284 285.493 209.704 285.757 209.224C286.029 208.744 286.377 208.376 286.801 208.12C287.233 207.856 287.689 207.724 288.169 207.724C288.521 207.724 288.861 207.788 289.189 207.916C289.525 208.036 289.821 208.22 290.077 208.468C290.341 208.708 290.549 209.004 290.701 209.356C290.861 209.708 290.949 210.116 290.965 210.58C290.957 210.676 290.917 210.76 290.845 210.832C290.773 210.896 290.689 210.928 290.593 210.928H285.781L285.637 210.28H290.365L290.209 210.424V210.184C290.177 209.808 290.057 209.488 289.849 209.224C289.641 208.96 289.389 208.76 289.093 208.624C288.797 208.488 288.489 208.42 288.169 208.42C287.929 208.42 287.681 208.468 287.425 208.564C287.177 208.66 286.949 208.812 286.741 209.02C286.541 209.22 286.377 209.48 286.249 209.8C286.121 210.112 286.057 210.484 286.057 210.916C286.057 211.388 286.153 211.816 286.345 212.2C286.537 212.584 286.813 212.888 287.173 213.112C287.541 213.336 287.977 213.448 288.481 213.448C288.761 213.448 289.013 213.408 289.237 213.328C289.461 213.248 289.657 213.144 289.825 213.016C289.993 212.88 290.133 212.74 290.245 212.596C290.333 212.524 290.421 212.488 290.509 212.488C290.589 212.488 290.657 212.52 290.713 212.584C290.777 212.648 290.809 212.72 290.809 212.8C290.809 212.896 290.769 212.98 290.689 213.052C290.449 213.34 290.137 213.592 289.753 213.808C289.369 214.016 288.949 214.12 288.493 214.12Z" fill="black"/>
<path d="M292.867 214C292.755 214 292.667 213.964 292.603 213.892C292.539 213.82 292.507 213.736 292.507 213.64V208.264C292.507 208.168 292.539 208.084 292.603 208.012C292.675 207.94 292.763 207.904 292.867 207.904C292.971 207.904 293.055 207.94 293.119 208.012C293.191 208.084 293.227 208.168 293.227 208.264V210.064L293.047 210.1C293.071 209.82 293.139 209.544 293.251 209.272C293.371 208.992 293.531 208.736 293.731 208.504C293.931 208.272 294.167 208.084 294.439 207.94C294.719 207.796 295.031 207.724 295.375 207.724C295.519 207.724 295.659 207.756 295.795 207.82C295.931 207.876 295.999 207.972 295.999 208.108C295.999 208.228 295.967 208.32 295.903 208.384C295.839 208.448 295.763 208.48 295.675 208.48C295.603 208.48 295.523 208.46 295.435 208.42C295.355 208.38 295.247 208.36 295.111 208.36C294.887 208.36 294.663 208.428 294.439 208.564C294.215 208.692 294.011 208.868 293.827 209.092C293.643 209.316 293.495 209.568 293.383 209.848C293.279 210.12 293.227 210.396 293.227 210.676V213.64C293.227 213.736 293.191 213.82 293.119 213.892C293.047 213.964 292.963 214 292.867 214Z" fill="black"/>
<path d="M297.292 211.648C297.14 211.648 297.056 211.564 297.04 211.396L296.908 206.092C296.908 205.948 296.936 205.832 296.992 205.744C297.048 205.648 297.148 205.6 297.292 205.6C297.428 205.6 297.524 205.648 297.58 205.744C297.644 205.832 297.672 205.948 297.664 206.092L297.532 211.396C297.524 211.564 297.444 211.648 297.292 211.648ZM297.256 214C297.12 214 297.012 213.96 296.932 213.88C296.86 213.792 296.824 213.68 296.824 213.544V213.28C296.824 213.136 296.86 213.024 296.932 212.944C297.012 212.864 297.12 212.824 297.256 212.824H297.328C297.472 212.824 297.576 212.864 297.64 212.944C297.712 213.024 297.748 213.136 297.748 213.28V213.544C297.748 213.68 297.712 213.792 297.64 213.88C297.576 213.96 297.472 214 297.328 214H297.256Z" fill="black"/>
</svg>
