<svg width="240" height="176" viewBox="0 0 240 176" fill="none" xmlns="http://www.w3.org/2000/svg">
<path d="M0 64C0 60.6863 2.68629 58 6 58H234C237.314 58 240 60.6863 240 64V96C240 99.3138 237.314 102 234 102H5.99999C2.68629 102 0 99.3138 0 96V64Z" fill="black" fill-opacity="0.35"/>
<path d="M0 138C0 134.686 2.68629 132 6 132H234C237.314 132 240 134.686 240 138V170C240 173.314 237.314 176 234 176H5.99999C2.68629 176 0 173.314 0 170V138Z" fill="black" fill-opacity="0.35"/>
<path d="M24.78 73C24.9667 73 25.1133 73.06 25.22 73.18C25.3267 73.2867 25.38 73.4267 25.38 73.6V81.88C25.38 82.8667 25.1467 83.76 24.68 84.56C24.2133 85.36 23.5867 86 22.8 86.48C22.0133 86.9467 21.1267 87.18 20.14 87.18C19.1533 87.18 18.26 86.9467 17.46 86.48C16.6733 86 16.0467 85.36 15.58 84.56C15.1133 83.76 14.88 82.8667 14.88 81.88V73.6C14.88 73.4267 14.9333 73.2867 15.04 73.18C15.16 73.06 15.32 73 15.52 73C15.68 73 15.82 73.06 15.94 73.18C16.06 73.2867 16.12 73.4267 16.12 73.6V81.88C16.12 82.6534 16.3 83.3467 16.66 83.96C17.0333 84.5734 17.5267 85.0667 18.14 85.44C18.7533 85.8 19.42 85.98 20.14 85.98C20.8867 85.98 21.5667 85.8 22.18 85.44C22.7933 85.0667 23.28 84.5734 23.64 83.96C24.0133 83.3467 24.2 82.6534 24.2 81.88V73.6C24.2 73.4267 24.2533 73.2867 24.36 73.18C24.4667 73.06 24.6067 73 24.78 73Z" fill="#676767"/>
<path d="M28.2578 85.38C28.1511 85.22 28.0978 85.0667 28.0978 84.92C28.1111 84.76 28.1978 84.6334 28.3578 84.54C28.4645 84.4467 28.5845 84.4067 28.7178 84.42C28.8645 84.4334 28.9978 84.5 29.1178 84.62C29.4778 85.0867 29.9111 85.4667 30.4178 85.76C30.9378 86.04 31.5511 86.18 32.2578 86.18C32.6311 86.18 32.9978 86.12 33.3578 86C33.7311 85.8667 34.0378 85.6734 34.2778 85.42C34.5178 85.1534 34.6378 84.82 34.6378 84.42C34.6378 84.0067 34.5178 83.6734 34.2778 83.42C34.0378 83.1667 33.7245 82.9667 33.3378 82.82C32.9645 82.6734 32.5645 82.5467 32.1378 82.44C31.6845 82.32 31.2445 82.1867 30.8178 82.04C30.3911 81.88 30.0111 81.6867 29.6778 81.46C29.3578 81.22 29.0978 80.9334 28.8978 80.6C28.6978 80.2667 28.5978 79.86 28.5978 79.38C28.5978 78.82 28.7511 78.3267 29.0578 77.9C29.3645 77.4734 29.7778 77.14 30.2978 76.9C30.8311 76.66 31.4311 76.54 32.0978 76.54C32.4311 76.54 32.7911 76.5867 33.1778 76.68C33.5645 76.76 33.9445 76.9 34.3178 77.1C34.6911 77.3 35.0245 77.5734 35.3178 77.92C35.4378 78.04 35.4978 78.18 35.4978 78.34C35.4978 78.4867 35.4311 78.62 35.2978 78.74C35.1911 78.82 35.0645 78.86 34.9178 78.86C34.7845 78.86 34.6711 78.8067 34.5778 78.7C34.2578 78.34 33.8778 78.0667 33.4378 77.88C32.9978 77.6934 32.5245 77.6 32.0178 77.6C31.6311 77.6 31.2645 77.6667 30.9178 77.8C30.5845 77.92 30.3045 78.1067 30.0778 78.36C29.8511 78.6134 29.7378 78.9467 29.7378 79.36C29.7645 79.7467 29.8978 80.06 30.1378 80.3C30.3911 80.54 30.7178 80.74 31.1178 80.9C31.5311 81.06 31.9911 81.2067 32.4978 81.34C32.9245 81.4467 33.3311 81.5734 33.7178 81.72C34.1178 81.8667 34.4645 82.0534 34.7578 82.28C35.0645 82.4934 35.3045 82.7667 35.4778 83.1C35.6645 83.4334 35.7578 83.8534 35.7578 84.36C35.7578 84.9467 35.5911 85.4534 35.2578 85.88C34.9378 86.3067 34.5045 86.6334 33.9578 86.86C33.4111 87.0867 32.8045 87.2 32.1378 87.2C31.4178 87.2 30.7178 87.06 30.0378 86.78C29.3711 86.5 28.7778 86.0334 28.2578 85.38Z" fill="#676767"/>
<path d="M42.8328 87.2C41.8061 87.2 40.8995 86.98 40.1128 86.54C39.3261 86.1 38.7128 85.4867 38.2728 84.7C37.8328 83.9134 37.6128 82.9934 37.6128 81.94C37.6128 80.8067 37.8328 79.84 38.2728 79.04C38.7261 78.24 39.3061 77.6267 40.0128 77.2C40.7328 76.76 41.4928 76.54 42.2928 76.54C42.8795 76.54 43.4461 76.6467 43.9928 76.86C44.5528 77.06 45.0461 77.3667 45.4728 77.78C45.9128 78.18 46.2595 78.6734 46.5128 79.26C46.7795 79.8467 46.9261 80.5267 46.9528 81.3C46.9395 81.46 46.8728 81.6 46.7528 81.72C46.6328 81.8267 46.4928 81.88 46.3328 81.88H38.3128L38.0728 80.8H45.9528L45.6928 81.04V80.64C45.6395 80.0134 45.4395 79.48 45.0928 79.04C44.7461 78.6 44.3261 78.2667 43.8328 78.04C43.3395 77.8134 42.8261 77.7 42.2928 77.7C41.8928 77.7 41.4795 77.78 41.0528 77.94C40.6395 78.1 40.2595 78.3534 39.9128 78.7C39.5795 79.0334 39.3061 79.4667 39.0928 80C38.8795 80.52 38.7728 81.14 38.7728 81.86C38.7728 82.6467 38.9328 83.36 39.2528 84C39.5728 84.64 40.0328 85.1467 40.6328 85.52C41.2461 85.8934 41.9728 86.08 42.8128 86.08C43.2795 86.08 43.6995 86.0134 44.0728 85.88C44.4461 85.7467 44.7728 85.5734 45.0528 85.36C45.3328 85.1334 45.5661 84.9 45.7528 84.66C45.8995 84.54 46.0461 84.48 46.1928 84.48C46.3261 84.48 46.4395 84.5334 46.5328 84.64C46.6395 84.7467 46.6928 84.8667 46.6928 85C46.6928 85.16 46.6261 85.3 46.4928 85.42C46.0928 85.9 45.5728 86.32 44.9328 86.68C44.2928 87.0267 43.5928 87.2 42.8328 87.2Z" fill="#676767"/>
<path d="M50.1214 87C49.9347 87 49.7881 86.94 49.6814 86.82C49.5747 86.7 49.5214 86.56 49.5214 86.4V77.44C49.5214 77.28 49.5747 77.14 49.6814 77.02C49.8014 76.9 49.9481 76.84 50.1214 76.84C50.2947 76.84 50.4347 76.9 50.5414 77.02C50.6614 77.14 50.7214 77.28 50.7214 77.44V80.44L50.4214 80.5C50.4614 80.0334 50.5747 79.5734 50.7614 79.12C50.9614 78.6534 51.2281 78.2267 51.5614 77.84C51.8947 77.4534 52.2881 77.14 52.7414 76.9C53.2081 76.66 53.7281 76.54 54.3014 76.54C54.5414 76.54 54.7747 76.5934 55.0014 76.7C55.2281 76.7934 55.3414 76.9534 55.3414 77.18C55.3414 77.38 55.2881 77.5334 55.1814 77.64C55.0747 77.7467 54.9481 77.8 54.8014 77.8C54.6814 77.8 54.5481 77.7667 54.4014 77.7C54.2681 77.6334 54.0881 77.6 53.8614 77.6C53.4881 77.6 53.1147 77.7134 52.7414 77.94C52.3681 78.1534 52.0281 78.4467 51.7214 78.82C51.4147 79.1934 51.1681 79.6134 50.9814 80.08C50.8081 80.5334 50.7214 80.9934 50.7214 81.46V86.4C50.7214 86.56 50.6614 86.7 50.5414 86.82C50.4214 86.94 50.2814 87 50.1214 87Z" fill="#676767"/>
<path d="M62.0367 76.54C62.9167 76.54 63.6167 76.72 64.1367 77.08C64.6701 77.4267 65.05 77.9067 65.2767 78.52C65.5167 79.12 65.6367 79.7867 65.6367 80.52V86.4C65.6367 86.56 65.5767 86.7 65.4567 86.82C65.3367 86.94 65.1967 87 65.0367 87C64.8501 87 64.7034 86.94 64.5967 86.82C64.4901 86.7 64.4367 86.56 64.4367 86.4V80.58C64.4367 80.0467 64.3501 79.56 64.1767 79.12C64.0034 78.68 63.7167 78.3267 63.3167 78.06C62.9301 77.7934 62.4167 77.66 61.7767 77.66C61.2034 77.66 60.6567 77.7934 60.1367 78.06C59.6301 78.3267 59.2167 78.68 58.8967 79.12C58.5767 79.56 58.4167 80.0467 58.4167 80.58V86.4C58.4167 86.56 58.3567 86.7 58.2367 86.82C58.1167 86.94 57.9767 87 57.8167 87C57.6301 87 57.4834 86.94 57.3767 86.82C57.2701 86.7 57.2167 86.56 57.2167 86.4V77.44C57.2167 77.28 57.2701 77.14 57.3767 77.02C57.4967 76.9 57.6434 76.84 57.8167 76.84C57.9901 76.84 58.1301 76.9 58.2367 77.02C58.3567 77.14 58.4167 77.28 58.4167 77.44V79.12L57.9567 79.84C57.9834 79.4134 58.1167 79.0067 58.3567 78.62C58.6101 78.22 58.9301 77.8667 59.3167 77.56C59.7034 77.24 60.1301 76.9934 60.5967 76.82C61.0767 76.6334 61.5567 76.54 62.0367 76.54Z" fill="#676767"/>
<path d="M77.1592 76.78C77.3326 76.78 77.4726 76.84 77.5792 76.96C77.6992 77.08 77.7592 77.2267 77.7592 77.4V86.4C77.7592 86.56 77.6992 86.7 77.5792 86.82C77.4592 86.94 77.3192 87 77.1592 87C76.9859 87 76.8392 86.94 76.7192 86.82C76.6125 86.7 76.5592 86.56 76.5592 86.4V84.02L76.8992 83.86C76.8992 84.2334 76.7925 84.6134 76.5792 85C76.3792 85.3867 76.0992 85.7467 75.7392 86.08C75.3792 86.4134 74.9526 86.6867 74.4592 86.9C73.9792 87.1 73.4592 87.2 72.8992 87.2C71.9925 87.2 71.1792 86.9667 70.4592 86.5C69.7526 86.0334 69.1926 85.3934 68.7792 84.58C68.3792 83.7667 68.1792 82.8534 68.1792 81.84C68.1792 80.8 68.3859 79.8867 68.7992 79.1C69.2125 78.3 69.7726 77.6734 70.4792 77.22C71.1859 76.7667 71.9859 76.54 72.8792 76.54C73.4526 76.54 73.9859 76.64 74.4792 76.84C74.9859 77.04 75.4259 77.3134 75.7992 77.66C76.1726 78.0067 76.4592 78.4067 76.6592 78.86C76.8726 79.3 76.9792 79.76 76.9792 80.24L76.5592 79.94V77.4C76.5592 77.2267 76.6125 77.08 76.7192 76.96C76.8392 76.84 76.9859 76.78 77.1592 76.78ZM72.9992 86.08C73.7059 86.08 74.3326 85.9 74.8792 85.54C75.4259 85.1667 75.8526 84.66 76.1592 84.02C76.4792 83.3667 76.6392 82.64 76.6392 81.84C76.6392 81.0534 76.4792 80.3467 76.1592 79.72C75.8526 79.0934 75.4259 78.5934 74.8792 78.22C74.3326 77.8467 73.7059 77.66 72.9992 77.66C72.3059 77.66 71.6792 77.84 71.1192 78.2C70.5725 78.56 70.1392 79.0534 69.8192 79.68C69.5126 80.3067 69.3592 81.0267 69.3592 81.84C69.3592 82.64 69.5126 83.3667 69.8192 84.02C70.1392 84.66 70.5725 85.1667 71.1192 85.54C71.6659 85.9 72.2926 86.08 72.9992 86.08Z" fill="#676767"/>
<path d="M85.5081 76.7C86.3348 76.7 87.0415 76.92 87.6281 77.36C88.2148 77.7867 88.6148 78.4267 88.8281 79.28L88.5481 79.36L88.6681 79C88.8415 78.6 89.1281 78.2267 89.5281 77.88C89.9415 77.52 90.4081 77.2334 90.9281 77.02C91.4481 76.8067 91.9748 76.7 92.5081 76.7C93.3481 76.7 94.0215 76.88 94.5281 77.24C95.0481 77.6 95.4215 78.0867 95.6481 78.7C95.8881 79.3 96.0081 79.98 96.0081 80.74V86.4C96.0081 86.56 95.9481 86.7 95.8281 86.82C95.7215 86.94 95.5815 87 95.4081 87C95.2348 87 95.0881 86.94 94.9681 86.82C94.8615 86.7 94.8081 86.56 94.8081 86.4V80.8C94.8081 80.2534 94.7215 79.7534 94.5481 79.3C94.3748 78.8467 94.1015 78.4867 93.7281 78.22C93.3548 77.9534 92.8548 77.82 92.2281 77.82C91.6815 77.82 91.1548 77.9534 90.6481 78.22C90.1548 78.4867 89.7481 78.8467 89.4281 79.3C89.1215 79.7534 88.9681 80.2534 88.9681 80.8V86.4C88.9681 86.56 88.9081 86.7 88.7881 86.82C88.6815 86.94 88.5415 87 88.3681 87C88.1948 87 88.0481 86.94 87.9281 86.82C87.8215 86.7 87.7681 86.56 87.7681 86.4V80.74C87.7681 80.1934 87.6881 79.7 87.5281 79.26C87.3681 78.82 87.1081 78.4734 86.7481 78.22C86.3881 77.9534 85.9015 77.82 85.2881 77.82C84.7415 77.82 84.2215 77.9534 83.7281 78.22C83.2481 78.4734 82.8548 78.82 82.5481 79.26C82.2548 79.7 82.1081 80.1934 82.1081 80.74V86.4C82.1081 86.56 82.0481 86.7 81.9281 86.82C81.8081 86.94 81.6681 87 81.5081 87C81.3215 87 81.1748 86.94 81.0681 86.82C80.9615 86.7 80.9081 86.56 80.9081 86.4V77.44C80.9081 77.28 80.9615 77.14 81.0681 77.02C81.1881 76.9 81.3348 76.84 81.5081 76.84C81.6815 76.84 81.8215 76.9 81.9281 77.02C82.0481 77.14 82.1081 77.28 82.1081 77.44V79.3L81.5681 80.04C81.6081 79.64 81.7348 79.24 81.9481 78.84C82.1748 78.44 82.4681 78.08 82.8281 77.76C83.1881 77.44 83.5948 77.1867 84.0481 77C84.5148 76.8 85.0015 76.7 85.5081 76.7Z" fill="#676767"/>
<path d="M103.77 87.2C102.744 87.2 101.837 86.98 101.05 86.54C100.264 86.1 99.6503 85.4867 99.2103 84.7C98.7703 83.9134 98.5503 82.9934 98.5503 81.94C98.5503 80.8067 98.7703 79.84 99.2103 79.04C99.6636 78.24 100.244 77.6267 100.95 77.2C101.67 76.76 102.43 76.54 103.23 76.54C103.817 76.54 104.384 76.6467 104.93 76.86C105.49 77.06 105.984 77.3667 106.41 77.78C106.85 78.18 107.197 78.6734 107.45 79.26C107.717 79.8467 107.864 80.5267 107.89 81.3C107.877 81.46 107.81 81.6 107.69 81.72C107.57 81.8267 107.43 81.88 107.27 81.88H99.2503L99.0103 80.8H106.89L106.63 81.04V80.64C106.577 80.0134 106.377 79.48 106.03 79.04C105.684 78.6 105.264 78.2667 104.77 78.04C104.277 77.8134 103.764 77.7 103.23 77.7C102.83 77.7 102.417 77.78 101.99 77.94C101.577 78.1 101.197 78.3534 100.85 78.7C100.517 79.0334 100.244 79.4667 100.03 80C99.817 80.52 99.7103 81.14 99.7103 81.86C99.7103 82.6467 99.8703 83.36 100.19 84C100.51 84.64 100.97 85.1467 101.57 85.52C102.184 85.8934 102.91 86.08 103.75 86.08C104.217 86.08 104.637 86.0134 105.01 85.88C105.384 85.7467 105.71 85.5734 105.99 85.36C106.27 85.1334 106.504 84.9 106.69 84.66C106.837 84.54 106.984 84.48 107.13 84.48C107.264 84.48 107.377 84.5334 107.47 84.64C107.577 84.7467 107.63 84.8667 107.63 85C107.63 85.16 107.564 85.3 107.43 85.42C107.03 85.9 106.51 86.32 105.87 86.68C105.23 87.0267 104.53 87.2 103.77 87.2Z" fill="#676767"/>
<path d="M19.22 147C19.9667 147 20.6267 147.173 21.2 147.52C21.7733 147.853 22.2267 148.32 22.56 148.92C22.8933 149.52 23.06 150.207 23.06 150.98C23.06 151.753 22.8933 152.453 22.56 153.08C22.2267 153.693 21.7733 154.18 21.2 154.54C20.6267 154.9 19.9667 155.08 19.22 155.08H14.98L15.08 154.88V160.4C15.08 160.56 15.02 160.7 14.9 160.82C14.78 160.94 14.64 161 14.48 161C14.2933 161 14.1467 160.94 14.04 160.82C13.9333 160.7 13.88 160.56 13.88 160.4V147.6C13.88 147.44 13.94 147.3 14.06 147.18C14.18 147.06 14.32 147 14.48 147H19.22ZM19.22 153.92C19.74 153.92 20.1933 153.793 20.58 153.54C20.9667 153.273 21.2667 152.92 21.48 152.48C21.7067 152.027 21.82 151.527 21.82 150.98C21.82 150.433 21.7067 149.953 21.48 149.54C21.2667 149.113 20.9667 148.78 20.58 148.54C20.1933 148.3 19.74 148.18 19.22 148.18H14.98L15.08 148V154.04L14.96 153.92H19.22Z" fill="#676767"/>
<path d="M33.7764 150.78C33.9497 150.78 34.0897 150.84 34.1964 150.96C34.3164 151.08 34.3764 151.227 34.3764 151.4V160.4C34.3764 160.56 34.3164 160.7 34.1964 160.82C34.0764 160.94 33.9364 161 33.7764 161C33.6031 161 33.4564 160.94 33.3364 160.82C33.2297 160.7 33.1764 160.56 33.1764 160.4V158.02L33.5164 157.86C33.5164 158.233 33.4097 158.613 33.1964 159C32.9964 159.387 32.7164 159.747 32.3564 160.08C31.9964 160.413 31.5697 160.687 31.0764 160.9C30.5964 161.1 30.0764 161.2 29.5164 161.2C28.6097 161.2 27.7964 160.967 27.0764 160.5C26.3697 160.033 25.8097 159.393 25.3964 158.58C24.9964 157.767 24.7964 156.853 24.7964 155.84C24.7964 154.8 25.0031 153.887 25.4164 153.1C25.8297 152.3 26.3897 151.673 27.0964 151.22C27.8031 150.767 28.6031 150.54 29.4964 150.54C30.0697 150.54 30.6031 150.64 31.0964 150.84C31.6031 151.04 32.0431 151.313 32.4164 151.66C32.7897 152.007 33.0764 152.407 33.2764 152.86C33.4897 153.3 33.5964 153.76 33.5964 154.24L33.1764 153.94V151.4C33.1764 151.227 33.2297 151.08 33.3364 150.96C33.4564 150.84 33.6031 150.78 33.7764 150.78ZM29.6164 160.08C30.3231 160.08 30.9497 159.9 31.4964 159.54C32.0431 159.167 32.4697 158.66 32.7764 158.02C33.0964 157.367 33.2564 156.64 33.2564 155.84C33.2564 155.053 33.0964 154.347 32.7764 153.72C32.4697 153.093 32.0431 152.593 31.4964 152.22C30.9497 151.847 30.3231 151.66 29.6164 151.66C28.9231 151.66 28.2964 151.84 27.7364 152.2C27.1897 152.56 26.7564 153.053 26.4364 153.68C26.1297 154.307 25.9764 155.027 25.9764 155.84C25.9764 156.64 26.1297 157.367 26.4364 158.02C26.7564 158.66 27.1897 159.167 27.7364 159.54C28.2831 159.9 28.9097 160.08 29.6164 160.08Z" fill="#676767"/>
<path d="M36.9453 159.38C36.8386 159.22 36.7853 159.067 36.7853 158.92C36.7986 158.76 36.8853 158.633 37.0453 158.54C37.152 158.447 37.272 158.407 37.4053 158.42C37.552 158.433 37.6853 158.5 37.8053 158.62C38.1653 159.087 38.5986 159.467 39.1053 159.76C39.6253 160.04 40.2386 160.18 40.9453 160.18C41.3186 160.18 41.6853 160.12 42.0453 160C42.4186 159.867 42.7253 159.673 42.9653 159.42C43.2053 159.153 43.3253 158.82 43.3253 158.42C43.3253 158.007 43.2053 157.673 42.9653 157.42C42.7253 157.167 42.412 156.967 42.0253 156.82C41.652 156.673 41.252 156.547 40.8253 156.44C40.372 156.32 39.932 156.187 39.5053 156.04C39.0786 155.88 38.6986 155.687 38.3653 155.46C38.0453 155.22 37.7853 154.933 37.5853 154.6C37.3853 154.267 37.2853 153.86 37.2853 153.38C37.2853 152.82 37.4386 152.327 37.7453 151.9C38.052 151.473 38.4653 151.14 38.9853 150.9C39.5186 150.66 40.1186 150.54 40.7853 150.54C41.1186 150.54 41.4786 150.587 41.8653 150.68C42.252 150.76 42.632 150.9 43.0053 151.1C43.3786 151.3 43.712 151.573 44.0053 151.92C44.1253 152.04 44.1853 152.18 44.1853 152.34C44.1853 152.487 44.1186 152.62 43.9853 152.74C43.8786 152.82 43.752 152.86 43.6053 152.86C43.472 152.86 43.3586 152.807 43.2653 152.7C42.9453 152.34 42.5653 152.067 42.1253 151.88C41.6853 151.693 41.212 151.6 40.7053 151.6C40.3186 151.6 39.952 151.667 39.6053 151.8C39.272 151.92 38.992 152.107 38.7653 152.36C38.5386 152.613 38.4253 152.947 38.4253 153.36C38.452 153.747 38.5853 154.06 38.8253 154.3C39.0786 154.54 39.4053 154.74 39.8053 154.9C40.2186 155.06 40.6786 155.207 41.1853 155.34C41.612 155.447 42.0186 155.573 42.4053 155.72C42.8053 155.867 43.152 156.053 43.4453 156.28C43.752 156.493 43.992 156.767 44.1653 157.1C44.352 157.433 44.4453 157.853 44.4453 158.36C44.4453 158.947 44.2786 159.453 43.9453 159.88C43.6253 160.307 43.192 160.633 42.6453 160.86C42.0986 161.087 41.492 161.2 40.8253 161.2C40.1053 161.2 39.4053 161.06 38.7253 160.78C38.0586 160.5 37.4653 160.033 36.9453 159.38Z" fill="#676767"/>
<path d="M46.3203 159.38C46.2136 159.22 46.1603 159.067 46.1603 158.92C46.1736 158.76 46.2603 158.633 46.4203 158.54C46.527 158.447 46.647 158.407 46.7803 158.42C46.927 158.433 47.0603 158.5 47.1803 158.62C47.5403 159.087 47.9736 159.467 48.4803 159.76C49.0003 160.04 49.6136 160.18 50.3203 160.18C50.6936 160.18 51.0603 160.12 51.4203 160C51.7936 159.867 52.1003 159.673 52.3403 159.42C52.5803 159.153 52.7003 158.82 52.7003 158.42C52.7003 158.007 52.5803 157.673 52.3403 157.42C52.1003 157.167 51.787 156.967 51.4003 156.82C51.027 156.673 50.627 156.547 50.2003 156.44C49.747 156.32 49.307 156.187 48.8803 156.04C48.4536 155.88 48.0736 155.687 47.7403 155.46C47.4203 155.22 47.1603 154.933 46.9603 154.6C46.7603 154.267 46.6603 153.86 46.6603 153.38C46.6603 152.82 46.8136 152.327 47.1203 151.9C47.427 151.473 47.8403 151.14 48.3603 150.9C48.8936 150.66 49.4936 150.54 50.1603 150.54C50.4936 150.54 50.8536 150.587 51.2403 150.68C51.627 150.76 52.007 150.9 52.3803 151.1C52.7536 151.3 53.087 151.573 53.3803 151.92C53.5003 152.04 53.5603 152.18 53.5603 152.34C53.5603 152.487 53.4936 152.62 53.3603 152.74C53.2536 152.82 53.127 152.86 52.9803 152.86C52.847 152.86 52.7336 152.807 52.6403 152.7C52.3203 152.34 51.9403 152.067 51.5003 151.88C51.0603 151.693 50.587 151.6 50.0803 151.6C49.6936 151.6 49.327 151.667 48.9803 151.8C48.647 151.92 48.367 152.107 48.1403 152.36C47.9136 152.613 47.8003 152.947 47.8003 153.36C47.827 153.747 47.9603 154.06 48.2003 154.3C48.4536 154.54 48.7803 154.74 49.1803 154.9C49.5936 155.06 50.0536 155.207 50.5603 155.34C50.987 155.447 51.3936 155.573 51.7803 155.72C52.1803 155.867 52.527 156.053 52.8203 156.28C53.127 156.493 53.367 156.767 53.5403 157.1C53.727 157.433 53.8203 157.853 53.8203 158.36C53.8203 158.947 53.6536 159.453 53.3203 159.88C53.0003 160.307 52.567 160.633 52.0203 160.86C51.4736 161.087 50.867 161.2 50.2003 161.2C49.4803 161.2 48.7803 161.06 48.1003 160.78C47.4336 160.5 46.8403 160.033 46.3203 159.38Z" fill="#676767"/>
<path d="M68.4153 150.56C68.562 150.56 68.6953 150.613 68.8153 150.72C68.9486 150.827 69.0153 150.973 69.0153 151.16C69.0153 151.2 69.0087 151.247 68.9953 151.3C68.982 151.353 68.9687 151.393 68.9553 151.42L65.8753 160.62C65.822 160.74 65.7353 160.84 65.6153 160.92C65.5086 160.987 65.3953 161.013 65.2753 161C65.0353 160.987 64.8553 160.86 64.7353 160.62L61.9153 153.98L62.2753 154.06L59.7753 160.62C59.6686 160.86 59.4886 160.987 59.2353 161C59.1153 161.013 58.9953 160.987 58.8753 160.92C58.7553 160.84 58.6753 160.74 58.6353 160.62L55.4753 151.42C55.4353 151.327 55.4153 151.24 55.4153 151.16C55.4153 150.987 55.4686 150.847 55.5753 150.74C55.6953 150.62 55.8486 150.56 56.0353 150.56C56.1553 150.56 56.262 150.593 56.3553 150.66C56.462 150.727 56.5353 150.827 56.5753 150.96L59.4153 159.48L59.0353 159.46L61.6153 152.96C61.722 152.707 61.9086 152.58 62.1753 152.58C62.3086 152.58 62.422 152.613 62.5153 152.68C62.6086 152.747 62.682 152.84 62.7353 152.96L65.4753 159.48L65.0353 159.5L67.8553 150.96C67.9353 150.693 68.122 150.56 68.4153 150.56Z" fill="#676767"/>
<path d="M80.8344 155.88C80.8344 156.893 80.6144 157.807 80.1744 158.62C79.7344 159.42 79.1344 160.053 78.3744 160.52C77.6144 160.973 76.7477 161.2 75.7744 161.2C74.8277 161.2 73.9677 160.973 73.1944 160.52C72.4344 160.053 71.8277 159.42 71.3744 158.62C70.9344 157.807 70.7144 156.893 70.7144 155.88C70.7144 154.853 70.9344 153.94 71.3744 153.14C71.8277 152.34 72.4344 151.707 73.1944 151.24C73.9677 150.773 74.8277 150.54 75.7744 150.54C76.7477 150.54 77.6144 150.773 78.3744 151.24C79.1344 151.707 79.7344 152.34 80.1744 153.14C80.6144 153.94 80.8344 154.853 80.8344 155.88ZM79.6344 155.88C79.6344 155.067 79.4677 154.347 79.1344 153.72C78.801 153.08 78.341 152.58 77.7544 152.22C77.181 151.847 76.521 151.66 75.7744 151.66C75.0544 151.66 74.401 151.847 73.8144 152.22C73.2277 152.58 72.761 153.08 72.4144 153.72C72.081 154.347 71.9144 155.067 71.9144 155.88C71.9144 156.693 72.081 157.413 72.4144 158.04C72.761 158.667 73.2277 159.167 73.8144 159.54C74.401 159.9 75.0544 160.08 75.7744 160.08C76.521 160.08 77.181 159.9 77.7544 159.54C78.341 159.167 78.801 158.667 79.1344 158.04C79.4677 157.413 79.6344 156.693 79.6344 155.88Z" fill="#676767"/>
<path d="M83.9847 161C83.798 161 83.6514 160.94 83.5447 160.82C83.438 160.7 83.3847 160.56 83.3847 160.4V151.44C83.3847 151.28 83.438 151.14 83.5447 151.02C83.6647 150.9 83.8114 150.84 83.9847 150.84C84.158 150.84 84.298 150.9 84.4047 151.02C84.5247 151.14 84.5847 151.28 84.5847 151.44V154.44L84.2847 154.5C84.3247 154.033 84.438 153.573 84.6247 153.12C84.8247 152.653 85.0914 152.227 85.4247 151.84C85.758 151.453 86.1514 151.14 86.6047 150.9C87.0714 150.66 87.5914 150.54 88.1647 150.54C88.4047 150.54 88.638 150.593 88.8647 150.7C89.0914 150.793 89.2047 150.953 89.2047 151.18C89.2047 151.38 89.1514 151.533 89.0447 151.64C88.938 151.747 88.8114 151.8 88.6647 151.8C88.5447 151.8 88.4114 151.767 88.2647 151.7C88.1314 151.633 87.9514 151.6 87.7247 151.6C87.3513 151.6 86.978 151.713 86.6047 151.94C86.2314 152.153 85.8913 152.447 85.5847 152.82C85.278 153.193 85.0314 153.613 84.8447 154.08C84.6714 154.533 84.5847 154.993 84.5847 155.46V160.4C84.5847 160.56 84.5247 160.7 84.4047 160.82C84.2847 160.94 84.1447 161 83.9847 161Z" fill="#676767"/>
<path d="M99.0108 146.2C99.1841 146.2 99.3241 146.26 99.4308 146.38C99.5508 146.487 99.6108 146.627 99.6108 146.8V160.4C99.6108 160.56 99.5508 160.7 99.4308 160.82C99.3108 160.94 99.1708 161 99.0108 161C98.8374 161 98.6908 160.94 98.5708 160.82C98.4641 160.7 98.4108 160.56 98.4108 160.4V158.02L98.7508 157.74C98.7508 158.113 98.6508 158.507 98.4508 158.92C98.2508 159.32 97.9641 159.693 97.5908 160.04C97.2308 160.387 96.8041 160.667 96.3108 160.88C95.8308 161.093 95.3108 161.2 94.7508 161.2C93.8574 161.2 93.0508 160.967 92.3308 160.5C91.6241 160.033 91.0641 159.4 90.6508 158.6C90.2374 157.8 90.0308 156.887 90.0308 155.86C90.0308 154.847 90.2374 153.94 90.6508 153.14C91.0641 152.327 91.6241 151.693 92.3308 151.24C93.0374 150.773 93.8374 150.54 94.7308 150.54C95.2775 150.54 95.7974 150.64 96.2908 150.84C96.7841 151.04 97.2174 151.313 97.5908 151.66C97.9774 152.007 98.2775 152.407 98.4908 152.86C98.7175 153.3 98.8308 153.76 98.8308 154.24L98.4108 153.94V146.8C98.4108 146.64 98.4641 146.5 98.5708 146.38C98.6908 146.26 98.8374 146.2 99.0108 146.2ZM94.8508 160.08C95.5708 160.08 96.1974 159.9 96.7308 159.54C97.2775 159.167 97.7041 158.667 98.0108 158.04C98.3308 157.4 98.4908 156.673 98.4908 155.86C98.4908 155.06 98.3308 154.347 98.0108 153.72C97.7041 153.08 97.2775 152.58 96.7308 152.22C96.1841 151.847 95.5574 151.66 94.8508 151.66C94.1574 151.66 93.5308 151.847 92.9708 152.22C92.4241 152.58 91.9908 153.08 91.6708 153.72C91.3641 154.347 91.2108 155.06 91.2108 155.86C91.2108 156.66 91.3641 157.38 91.6708 158.02C91.9908 158.66 92.4241 159.167 92.9708 159.54C93.5308 159.9 94.1574 160.08 94.8508 160.08Z" fill="#676767"/>
<path d="M94.696 1.15204C94.904 1.15204 95.08 1.21604 95.224 1.34404C95.384 1.45604 95.464 1.63204 95.464 1.87204C95.464 1.95204 95.448 2.05604 95.416 2.18404L90.112 17.544C90.064 17.688 89.976 17.8 89.848 17.88C89.72 17.96 89.592 18 89.464 18C89.304 18 89.16 17.968 89.032 17.904C88.904 17.824 88.808 17.704 88.744 17.544L84.496 7.03204L84.688 7.08004L80.44 17.544C80.376 17.704 80.272 17.824 80.128 17.904C80 17.968 79.864 18 79.72 18C79.592 18 79.464 17.96 79.336 17.88C79.224 17.8 79.144 17.688 79.096 17.544L73.792 2.18404C73.744 2.05604 73.72 1.96004 73.72 1.89604C73.72 1.65604 73.808 1.47204 73.984 1.34404C74.16 1.21604 74.336 1.15204 74.512 1.15204C74.672 1.15204 74.816 1.19204 74.944 1.27204C75.072 1.35204 75.16 1.46404 75.208 1.60804L80.032 15.672L79.768 15.696L83.944 5.28004C83.992 5.13604 84.072 5.02404 84.184 4.94404C84.312 4.84804 84.456 4.80804 84.616 4.82404C84.776 4.80804 84.912 4.84804 85.024 4.94404C85.152 5.02404 85.248 5.13604 85.312 5.28004L89.44 15.648L89.176 15.744L93.976 1.60804C94.024 1.46404 94.112 1.35204 94.24 1.27204C94.368 1.19204 94.52 1.15204 94.696 1.15204Z" fill="white"/>
<path d="M103.268 18.24C102.036 18.24 100.948 17.976 100.004 17.448C99.0601 16.92 98.3241 16.184 97.7961 15.24C97.2681 14.296 97.0041 13.192 97.0041 11.928C97.0041 10.568 97.2681 9.40804 97.7961 8.44804C98.3401 7.48804 99.0361 6.75204 99.8841 6.24004C100.748 5.71204 101.66 5.44804 102.62 5.44804C103.324 5.44804 104.004 5.57604 104.66 5.83204C105.332 6.07204 105.924 6.44004 106.436 6.93604C106.964 7.41604 107.38 8.00804 107.684 8.71204C108.004 9.41604 108.18 10.232 108.212 11.16C108.196 11.352 108.116 11.52 107.972 11.664C107.828 11.792 107.66 11.856 107.468 11.856H97.8441L97.5561 10.56H107.012L106.7 10.848V10.368C106.636 9.61604 106.396 8.97604 105.98 8.44804C105.564 7.92004 105.06 7.52004 104.468 7.24804C103.876 6.97604 103.26 6.84004 102.62 6.84004C102.14 6.84004 101.644 6.93604 101.132 7.12804C100.636 7.32004 100.18 7.62404 99.7641 8.04004C99.3641 8.44004 99.0361 8.96004 98.7801 9.60004C98.5241 10.224 98.3961 10.968 98.3961 11.832C98.3961 12.776 98.5881 13.632 98.9721 14.4C99.3561 15.168 99.9081 15.776 100.628 16.224C101.364 16.672 102.236 16.896 103.244 16.896C103.804 16.896 104.308 16.816 104.756 16.656C105.204 16.496 105.596 16.288 105.932 16.032C106.268 15.76 106.548 15.48 106.772 15.192C106.948 15.048 107.124 14.976 107.3 14.976C107.46 14.976 107.596 15.04 107.708 15.168C107.836 15.296 107.9 15.44 107.9 15.6C107.9 15.792 107.82 15.96 107.66 16.104C107.18 16.68 106.556 17.184 105.788 17.616C105.02 18.032 104.18 18.24 103.268 18.24Z" fill="white"/>
<path d="M117.126 5.44804C118.214 5.44804 119.174 5.72004 120.006 6.26404C120.854 6.80804 121.526 7.56004 122.022 8.52004C122.518 9.46404 122.766 10.56 122.766 11.808C122.766 13.024 122.518 14.12 122.022 15.096C121.526 16.072 120.854 16.84 120.006 17.4C119.158 17.96 118.206 18.24 117.15 18.24C116.59 18.24 116.054 18.152 115.542 17.976C115.046 17.8 114.59 17.568 114.174 17.28C113.758 16.976 113.39 16.624 113.07 16.224C112.75 15.824 112.494 15.392 112.302 14.928L112.734 14.616V17.328C112.734 17.536 112.662 17.712 112.518 17.856C112.39 17.984 112.222 18.048 112.014 18.048C111.806 18.048 111.63 17.984 111.486 17.856C111.358 17.712 111.294 17.536 111.294 17.328V0.984037C111.294 0.776037 111.358 0.608037 111.486 0.480038C111.614 0.336038 111.79 0.264038 112.014 0.264038C112.222 0.264038 112.39 0.336038 112.518 0.480038C112.662 0.608037 112.734 0.776037 112.734 0.984037V9.02404L112.398 8.83204C112.558 8.33604 112.79 7.88804 113.094 7.48804C113.414 7.07204 113.782 6.71204 114.198 6.40804C114.614 6.10404 115.07 5.87204 115.566 5.71204C116.062 5.53604 116.582 5.44804 117.126 5.44804ZM117.006 6.79204C116.142 6.79204 115.382 7.00804 114.726 7.44004C114.07 7.87204 113.55 8.46404 113.166 9.21604C112.798 9.96804 112.614 10.832 112.614 11.808C112.614 12.768 112.798 13.64 113.166 14.424C113.55 15.192 114.07 15.8 114.726 16.248C115.382 16.68 116.142 16.896 117.006 16.896C117.854 16.896 118.598 16.672 119.238 16.224C119.894 15.776 120.414 15.168 120.798 14.4C121.182 13.616 121.374 12.752 121.374 11.808C121.374 10.832 121.182 9.96804 120.798 9.21604C120.414 8.46404 119.894 7.87204 119.238 7.44004C118.598 7.00804 117.854 6.79204 117.006 6.79204Z" fill="white"/>
<path d="M135.94 18C135.716 18 135.532 17.928 135.388 17.784C135.244 17.64 135.172 17.472 135.172 17.28V2.83204L135.436 3.07204L132.244 5.20804C132.116 5.30404 131.98 5.35204 131.836 5.35204C131.644 5.35204 131.468 5.27204 131.308 5.11204C131.164 4.95204 131.092 4.77604 131.092 4.58404C131.092 4.32804 131.22 4.12804 131.476 3.98404L135.484 1.32004C135.58 1.25604 135.676 1.21604 135.772 1.20004C135.884 1.18404 135.98 1.18404 136.06 1.20004C136.268 1.21604 136.428 1.29604 136.54 1.44004C136.652 1.56804 136.708 1.72804 136.708 1.92004V17.28C136.708 17.472 136.636 17.64 136.492 17.784C136.348 17.928 136.164 18 135.94 18Z" fill="white"/>
<path d="M141.486 18C141.214 18 141.006 17.912 140.862 17.736C140.718 17.56 140.646 17.336 140.646 17.064V16.56C140.646 16.272 140.718 16.048 140.862 15.888C141.006 15.728 141.214 15.648 141.486 15.648H141.654C141.926 15.648 142.134 15.728 142.278 15.888C142.422 16.048 142.494 16.272 142.494 16.56V17.064C142.494 17.336 142.422 17.56 142.278 17.736C142.134 17.912 141.926 18 141.654 18H141.486Z" fill="white"/>
<path d="M150.862 18.24C149.582 18.24 148.51 17.856 147.646 17.088C146.782 16.32 146.134 15.288 145.702 13.992C145.27 12.68 145.054 11.216 145.054 9.60004C145.054 7.96804 145.27 6.50404 145.702 5.20804C146.134 3.89604 146.782 2.86404 147.646 2.11204C148.51 1.34404 149.582 0.960038 150.862 0.960038C152.174 0.960038 153.254 1.34404 154.102 2.11204C154.966 2.86404 155.614 3.89604 156.046 5.20804C156.478 6.50404 156.694 7.96804 156.694 9.60004C156.694 11.216 156.478 12.68 156.046 13.992C155.614 15.288 154.966 16.32 154.102 17.088C153.254 17.856 152.174 18.24 150.862 18.24ZM150.862 16.752C151.806 16.752 152.59 16.456 153.214 15.864C153.854 15.272 154.334 14.44 154.654 13.368C154.99 12.28 155.158 11.024 155.158 9.60004C155.158 8.16004 154.99 6.90404 154.654 5.83204C154.334 4.74404 153.854 3.90404 153.214 3.31204C152.59 2.72004 151.806 2.42404 150.862 2.42404C149.934 2.42404 149.15 2.72004 148.51 3.31204C147.886 3.90404 147.406 4.74404 147.07 5.83204C146.75 6.90404 146.59 8.16004 146.59 9.60004C146.59 11.024 146.75 12.28 147.07 13.368C147.406 14.44 147.886 15.272 148.51 15.864C149.15 16.456 149.934 16.752 150.862 16.752Z" fill="white"/>
</svg>
