<svg width="260" height="176" viewBox="0 0 260 176" fill="none" xmlns="http://www.w3.org/2000/svg">
<path d="M0 64C0 60.6863 2.68629 58 6 58H254C257.314 58 260 60.6863 260 64V96C260 99.3137 257.314 102 254 102H6.00001C2.6863 102 0 99.3137 0 96V64Z" fill="black" fill-opacity="0.35"/>
<path d="M0 138C0 134.686 2.68629 132 6 132H254C257.314 132 260 134.686 260 138V170C260 173.314 257.314 176 254 176H6.00001C2.6863 176 0 173.314 0 170V138Z" fill="black" fill-opacity="0.35"/>
<path d="M18.74 87.2C17.7267 87.2134 16.8467 87.0534 16.1 86.72C15.3533 86.3867 14.64 85.8867 13.96 85.22C13.8933 85.1667 13.8333 85.1 13.78 85.02C13.74 84.94 13.72 84.8467 13.72 84.74C13.72 84.58 13.78 84.4334 13.9 84.3C14.0333 84.1667 14.18 84.1 14.34 84.1C14.5 84.1 14.6467 84.1667 14.78 84.3C15.3 84.86 15.8867 85.2867 16.54 85.58C17.2067 85.8734 17.92 86.02 18.68 86.02C19.32 86.02 19.8867 85.92 20.38 85.72C20.8867 85.52 21.2867 85.2334 21.58 84.86C21.8733 84.4867 22.02 84.0534 22.02 83.56C22.02 82.9467 21.8533 82.4534 21.52 82.08C21.1867 81.6934 20.7467 81.38 20.2 81.14C19.6533 80.8867 19.0467 80.66 18.38 80.46C17.8333 80.3 17.3133 80.12 16.82 79.92C16.3267 79.7067 15.8867 79.4534 15.5 79.16C15.1133 78.8534 14.8133 78.48 14.6 78.04C14.3867 77.6 14.28 77.0667 14.28 76.44C14.28 75.7334 14.4667 75.1067 14.84 74.56C15.2133 74.0134 15.74 73.5867 16.42 73.28C17.1133 72.96 17.9133 72.8 18.82 72.8C19.6067 72.8 20.36 72.9334 21.08 73.2C21.8133 73.4667 22.3933 73.86 22.82 74.38C23.02 74.5934 23.12 74.7867 23.12 74.96C23.12 75.0934 23.0533 75.2267 22.92 75.36C22.7867 75.4934 22.64 75.56 22.48 75.56C22.3467 75.56 22.2333 75.5134 22.14 75.42C21.9133 75.14 21.6267 74.8934 21.28 74.68C20.9333 74.4534 20.5467 74.28 20.12 74.16C19.7067 74.04 19.2733 73.98 18.82 73.98C18.1933 73.98 17.6267 74.08 17.12 74.28C16.6267 74.4667 16.2333 74.74 15.94 75.1C15.66 75.46 15.52 75.8934 15.52 76.4C15.52 76.96 15.68 77.42 16 77.78C16.32 78.14 16.74 78.44 17.26 78.68C17.78 78.9067 18.3333 79.12 18.92 79.32C19.4933 79.48 20.04 79.6667 20.56 79.88C21.0933 80.08 21.56 80.3334 21.96 80.64C22.3733 80.9467 22.6933 81.3334 22.92 81.8C23.16 82.2667 23.28 82.8534 23.28 83.56C23.28 84.24 23.0867 84.8534 22.7 85.4C22.3133 85.9467 21.78 86.38 21.1 86.7C20.4333 87.02 19.6467 87.1867 18.74 87.2Z" fill="#E8E8E8"/>
<path d="M26.9705 86.4C26.9705 86.56 26.9105 86.7 26.7905 86.82C26.6705 86.94 26.5305 87 26.3705 87C26.1971 87 26.0505 86.94 25.9305 86.82C25.8238 86.7 25.7705 86.56 25.7705 86.4V77.2C25.7705 77.04 25.8238 76.9 25.9305 76.78C26.0505 76.66 26.1971 76.6 26.3705 76.6C26.5438 76.6 26.6838 76.66 26.7905 76.78C26.9105 76.9 26.9705 77.04 26.9705 77.2V86.4ZM26.3705 75.26C26.0905 75.26 25.8771 75.2 25.7305 75.08C25.5971 74.9467 25.5305 74.76 25.5305 74.52V74.32C25.5305 74.08 25.6038 73.9 25.7505 73.78C25.9105 73.6467 26.1238 73.58 26.3905 73.58C26.6438 73.58 26.8371 73.6467 26.9705 73.78C27.1171 73.9 27.1905 74.08 27.1905 74.32V74.52C27.1905 74.76 27.1171 74.9467 26.9705 75.08C26.8371 75.2 26.6371 75.26 26.3705 75.26Z" fill="#E8E8E8"/>
<path d="M34.3478 76.54C34.9478 76.54 35.5011 76.6467 36.0078 76.86C36.5145 77.06 36.9545 77.3267 37.3278 77.66C37.7145 77.98 38.0145 78.3267 38.2278 78.7C38.4411 79.06 38.5478 79.4067 38.5478 79.74L38.2078 79.26V77.4C38.2078 77.2267 38.2611 77.08 38.3678 76.96C38.4878 76.84 38.6345 76.78 38.8078 76.78C38.9945 76.78 39.1411 76.84 39.2478 76.96C39.3545 77.08 39.4078 77.2267 39.4078 77.4V86.06C39.4078 87.1267 39.1878 88.0267 38.7478 88.76C38.3078 89.4934 37.7078 90.0467 36.9478 90.42C36.2011 90.8067 35.3478 91 34.3878 91C33.9211 91 33.4278 90.94 32.9078 90.82C32.4011 90.7 31.9611 90.5467 31.5878 90.36C31.2278 90.1734 31.0278 89.98 30.9878 89.78C30.8811 89.66 30.8278 89.54 30.8278 89.42C30.8411 89.3134 30.9011 89.22 31.0078 89.14C31.1411 89.0467 31.2811 89.0334 31.4278 89.1C31.5745 89.18 31.7945 89.28 32.0878 89.4C32.2211 89.44 32.4011 89.5 32.6278 89.58C32.8545 89.66 33.1211 89.7267 33.4278 89.78C33.7478 89.8467 34.0811 89.88 34.4278 89.88C35.6278 89.88 36.5545 89.5334 37.2078 88.84C37.8745 88.16 38.2078 87.26 38.2078 86.14V84.22L38.4278 84.28C38.3078 84.76 38.1078 85.18 37.8278 85.54C37.5611 85.9 37.2411 86.2067 36.8678 86.46C36.4945 86.7 36.0878 86.88 35.6478 87C35.2211 87.1334 34.7945 87.2 34.3678 87.2C33.4478 87.2 32.6211 86.9667 31.8878 86.5C31.1545 86.0334 30.5678 85.4 30.1278 84.6C29.7011 83.8 29.4878 82.8867 29.4878 81.86C29.4878 80.8467 29.7011 79.94 30.1278 79.14C30.5678 78.3267 31.1478 77.6934 31.8678 77.24C32.6011 76.7734 33.4278 76.54 34.3478 76.54ZM34.4878 77.66C33.7545 77.66 33.0945 77.8467 32.5078 78.22C31.9345 78.58 31.4811 79.08 31.1478 79.72C30.8278 80.3467 30.6678 81.06 30.6678 81.86C30.6678 82.66 30.8278 83.38 31.1478 84.02C31.4811 84.66 31.9345 85.1667 32.5078 85.54C33.0945 85.9 33.7545 86.08 34.4878 86.08C35.2211 86.08 35.8745 85.9 36.4478 85.54C37.0211 85.18 37.4745 84.6867 37.8078 84.06C38.1411 83.42 38.3078 82.6867 38.3078 81.86C38.3078 81.0334 38.1411 80.3067 37.8078 79.68C37.4745 79.04 37.0211 78.5467 36.4478 78.2C35.8745 77.84 35.2211 77.66 34.4878 77.66Z" fill="#E8E8E8"/>
<path d="M47.3883 76.54C48.2683 76.54 48.9683 76.72 49.4883 77.08C50.0216 77.4267 50.4016 77.9067 50.6283 78.52C50.8683 79.12 50.9883 79.7867 50.9883 80.52V86.4C50.9883 86.56 50.9283 86.7 50.8083 86.82C50.6883 86.94 50.5483 87 50.3883 87C50.2016 87 50.0549 86.94 49.9483 86.82C49.8416 86.7 49.7883 86.56 49.7883 86.4V80.58C49.7883 80.0467 49.7016 79.56 49.5283 79.12C49.3549 78.68 49.0683 78.3267 48.6683 78.06C48.2816 77.7934 47.7683 77.66 47.1283 77.66C46.5549 77.66 46.0083 77.7934 45.4883 78.06C44.9816 78.3267 44.5683 78.68 44.2483 79.12C43.9283 79.56 43.7683 80.0467 43.7683 80.58V86.4C43.7683 86.56 43.7083 86.7 43.5883 86.82C43.4683 86.94 43.3283 87 43.1683 87C42.9816 87 42.8349 86.94 42.7283 86.82C42.6216 86.7 42.5683 86.56 42.5683 86.4V77.44C42.5683 77.28 42.6216 77.14 42.7283 77.02C42.8483 76.9 42.9949 76.84 43.1683 76.84C43.3416 76.84 43.4816 76.9 43.5883 77.02C43.7083 77.14 43.7683 77.28 43.7683 77.44V79.12L43.3083 79.84C43.3349 79.4134 43.4683 79.0067 43.7083 78.62C43.9616 78.22 44.2816 77.8667 44.6683 77.56C45.0549 77.24 45.4816 76.9934 45.9483 76.82C46.4283 76.6334 46.9083 76.54 47.3883 76.54Z" fill="#E8E8E8"/>
<path d="M60.7595 86.4C60.7595 86.56 60.6995 86.7 60.5795 86.82C60.4595 86.94 60.3195 87 60.1595 87C59.9862 87 59.8395 86.94 59.7195 86.82C59.6129 86.7 59.5595 86.56 59.5595 86.4V77.2C59.5595 77.04 59.6129 76.9 59.7195 76.78C59.8395 76.66 59.9862 76.6 60.1595 76.6C60.3329 76.6 60.4729 76.66 60.5795 76.78C60.6995 76.9 60.7595 77.04 60.7595 77.2V86.4ZM60.1595 75.26C59.8795 75.26 59.6662 75.2 59.5195 75.08C59.3862 74.9467 59.3195 74.76 59.3195 74.52V74.32C59.3195 74.08 59.3929 73.9 59.5395 73.78C59.6995 73.6467 59.9129 73.58 60.1795 73.58C60.4329 73.58 60.6262 73.6467 60.7595 73.78C60.9062 73.9 60.9795 74.08 60.9795 74.32V74.52C60.9795 74.76 60.9062 74.9467 60.7595 75.08C60.6262 75.2 60.4262 75.26 60.1595 75.26Z" fill="#E8E8E8"/>
<path d="M68.6969 76.54C69.5769 76.54 70.2769 76.72 70.7969 77.08C71.3302 77.4267 71.7102 77.9067 71.9369 78.52C72.1769 79.12 72.2969 79.7867 72.2969 80.52V86.4C72.2969 86.56 72.2369 86.7 72.1169 86.82C71.9969 86.94 71.8569 87 71.6969 87C71.5102 87 71.3635 86.94 71.2569 86.82C71.1502 86.7 71.0969 86.56 71.0969 86.4V80.58C71.0969 80.0467 71.0102 79.56 70.8369 79.12C70.6635 78.68 70.3769 78.3267 69.9769 78.06C69.5902 77.7934 69.0769 77.66 68.4369 77.66C67.8635 77.66 67.3169 77.7934 66.7969 78.06C66.2902 78.3267 65.8769 78.68 65.5569 79.12C65.2369 79.56 65.0769 80.0467 65.0769 80.58V86.4C65.0769 86.56 65.0169 86.7 64.8969 86.82C64.7769 86.94 64.6369 87 64.4769 87C64.2902 87 64.1435 86.94 64.0369 86.82C63.9302 86.7 63.8769 86.56 63.8769 86.4V77.44C63.8769 77.28 63.9302 77.14 64.0369 77.02C64.1569 76.9 64.3035 76.84 64.4769 76.84C64.6502 76.84 64.7902 76.9 64.8969 77.02C65.0169 77.14 65.0769 77.28 65.0769 77.44V79.12L64.6169 79.84C64.6435 79.4134 64.7769 79.0067 65.0169 78.62C65.2702 78.22 65.5902 77.8667 65.9769 77.56C66.3635 77.24 66.7902 76.9934 67.2569 76.82C67.7369 76.6334 68.2169 76.54 68.6969 76.54Z" fill="#E8E8E8"/>
<path d="M93.0481 76.56C93.1948 76.56 93.3281 76.6134 93.4481 76.72C93.5815 76.8267 93.6481 76.9734 93.6481 77.16C93.6481 77.2 93.6415 77.2467 93.6281 77.3C93.6148 77.3534 93.6015 77.3934 93.5881 77.42L90.5081 86.62C90.4548 86.74 90.3681 86.84 90.2481 86.92C90.1415 86.9867 90.0281 87.0134 89.9081 87C89.6681 86.9867 89.4881 86.86 89.3681 86.62L86.5481 79.98L86.9081 80.06L84.4081 86.62C84.3015 86.86 84.1215 86.9867 83.8681 87C83.7481 87.0134 83.6281 86.9867 83.5081 86.92C83.3881 86.84 83.3081 86.74 83.2681 86.62L80.1081 77.42C80.0681 77.3267 80.0481 77.24 80.0481 77.16C80.0481 76.9867 80.1015 76.8467 80.2081 76.74C80.3281 76.62 80.4815 76.56 80.6681 76.56C80.7881 76.56 80.8948 76.5934 80.9881 76.66C81.0948 76.7267 81.1681 76.8267 81.2081 76.96L84.0481 85.48L83.6681 85.46L86.2481 78.96C86.3548 78.7067 86.5415 78.58 86.8081 78.58C86.9415 78.58 87.0548 78.6134 87.1481 78.68C87.2415 78.7467 87.3148 78.84 87.3681 78.96L90.1081 85.48L89.6681 85.5L92.4881 76.96C92.5681 76.6934 92.7548 76.56 93.0481 76.56Z" fill="#E8E8E8"/>
<path d="M97.1072 86.4C97.1072 86.56 97.0472 86.7 96.9272 86.82C96.8072 86.94 96.6672 87 96.5072 87C96.3339 87 96.1872 86.94 96.0672 86.82C95.9605 86.7 95.9072 86.56 95.9072 86.4V77.2C95.9072 77.04 95.9605 76.9 96.0672 76.78C96.1872 76.66 96.3339 76.6 96.5072 76.6C96.6805 76.6 96.8205 76.66 96.9272 76.78C97.0472 76.9 97.1072 77.04 97.1072 77.2V86.4ZM96.5072 75.26C96.2272 75.26 96.0139 75.2 95.8672 75.08C95.7339 74.9467 95.6672 74.76 95.6672 74.52V74.32C95.6672 74.08 95.7405 73.9 95.8872 73.78C96.0472 73.6467 96.2605 73.58 96.5272 73.58C96.7805 73.58 96.9739 73.6467 97.1072 73.78C97.2539 73.9 97.3272 74.08 97.3272 74.32V74.52C97.3272 74.76 97.2539 74.9467 97.1072 75.08C96.9739 75.2 96.7739 75.26 96.5072 75.26Z" fill="#E8E8E8"/>
<path d="M99.5645 76.82H104.225C104.385 76.82 104.518 76.88 104.625 77C104.731 77.1067 104.785 77.24 104.785 77.4C104.785 77.5467 104.731 77.6734 104.625 77.78C104.518 77.8867 104.385 77.94 104.225 77.94H99.5645C99.4045 77.94 99.2645 77.8867 99.1445 77.78C99.0379 77.66 98.9845 77.5267 98.9845 77.38C98.9845 77.22 99.0379 77.0867 99.1445 76.98C99.2645 76.8734 99.4045 76.82 99.5645 76.82ZM101.625 74C101.798 74 101.938 74.06 102.045 74.18C102.165 74.3 102.225 74.44 102.225 74.6V84.64C102.225 85.0134 102.271 85.2934 102.365 85.48C102.471 85.6667 102.605 85.7934 102.765 85.86C102.925 85.9134 103.085 85.94 103.245 85.94C103.351 85.94 103.445 85.9267 103.525 85.9C103.618 85.86 103.718 85.84 103.825 85.84C103.945 85.84 104.045 85.8867 104.125 85.98C104.218 86.0734 104.265 86.1934 104.265 86.34C104.265 86.5267 104.158 86.6867 103.945 86.82C103.731 86.94 103.478 87 103.185 87C103.065 87 102.885 86.9934 102.645 86.98C102.405 86.9534 102.158 86.88 101.905 86.76C101.651 86.6267 101.438 86.4 101.265 86.08C101.105 85.76 101.025 85.3 101.025 84.7V74.6C101.025 74.44 101.078 74.3 101.185 74.18C101.305 74.06 101.451 74 101.625 74Z" fill="#E8E8E8"/>
<path d="M111.662 76.7C112.502 76.7 113.182 76.88 113.702 77.24C114.222 77.6 114.602 78.0867 114.842 78.7C115.095 79.3134 115.222 79.9934 115.222 80.74V86.4C115.222 86.56 115.162 86.7 115.042 86.82C114.922 86.94 114.782 87 114.622 87C114.435 87 114.289 86.94 114.182 86.82C114.075 86.7 114.022 86.56 114.022 86.4V80.74C114.022 80.1934 113.935 79.7 113.762 79.26C113.602 78.82 113.335 78.4734 112.962 78.22C112.589 77.9534 112.089 77.82 111.462 77.82C110.902 77.82 110.369 77.9534 109.862 78.22C109.369 78.4734 108.969 78.82 108.662 79.26C108.355 79.7 108.202 80.1934 108.202 80.74V86.4C108.202 86.56 108.142 86.7 108.022 86.82C107.902 86.94 107.762 87 107.602 87C107.415 87 107.269 86.94 107.162 86.82C107.055 86.7 107.002 86.56 107.002 86.4V72.8C107.002 72.64 107.055 72.5 107.162 72.38C107.282 72.26 107.429 72.2 107.602 72.2C107.775 72.2 107.915 72.26 108.022 72.38C108.142 72.5 108.202 72.64 108.202 72.8V79.28L107.742 79.98C107.769 79.5667 107.895 79.1667 108.122 78.78C108.362 78.38 108.669 78.0267 109.042 77.72C109.415 77.4 109.829 77.1534 110.282 76.98C110.735 76.7934 111.195 76.7 111.662 76.7Z" fill="#E8E8E8"/>
<path d="M130.418 87.2C129.391 87.2 128.438 87.02 127.558 86.66C126.678 86.3 125.911 85.8 125.258 85.16C124.618 84.5067 124.118 83.74 123.758 82.86C123.398 81.98 123.218 81.0267 123.218 80C123.218 78.9734 123.398 78.02 123.758 77.14C124.118 76.26 124.618 75.5 125.258 74.86C125.911 74.2067 126.678 73.7 127.558 73.34C128.438 72.98 129.391 72.8 130.418 72.8C131.124 72.8 131.804 72.8867 132.458 73.06C133.124 73.22 133.718 73.4667 134.238 73.8C134.331 73.8667 134.398 73.9467 134.438 74.04C134.491 74.12 134.518 74.2067 134.518 74.3C134.518 74.4867 134.458 74.64 134.338 74.76C134.218 74.8667 134.091 74.92 133.958 74.92C133.891 74.92 133.824 74.9134 133.758 74.9C133.704 74.8734 133.651 74.8467 133.598 74.82C133.144 74.5667 132.651 74.3667 132.118 74.22C131.584 74.0734 131.018 74 130.418 74C129.271 74 128.251 74.26 127.358 74.78C126.464 75.3 125.764 76.0134 125.258 76.92C124.751 77.8267 124.498 78.8534 124.498 80C124.498 81.1467 124.751 82.1734 125.258 83.08C125.764 83.9867 126.464 84.7 127.358 85.22C128.251 85.74 129.271 86 130.418 86C131.018 86 131.618 85.9134 132.218 85.74C132.831 85.5667 133.358 85.3334 133.798 85.04L133.698 85.46V80.86L133.998 81.14H130.538C130.364 81.14 130.218 81.08 130.098 80.96C129.978 80.84 129.918 80.7 129.918 80.54C129.918 80.3534 129.978 80.2067 130.098 80.1C130.218 79.9934 130.364 79.94 130.538 79.94H134.358C134.531 79.94 134.671 80 134.778 80.12C134.898 80.2267 134.958 80.3667 134.958 80.54V85.36C134.958 85.4667 134.931 85.5667 134.878 85.66C134.824 85.7534 134.751 85.8334 134.658 85.9C134.071 86.3 133.411 86.62 132.678 86.86C131.958 87.0867 131.204 87.2 130.418 87.2Z" fill="#E8E8E8"/>
<path d="M147.264 81.88C147.264 82.8934 147.044 83.8067 146.604 84.62C146.164 85.42 145.564 86.0534 144.804 86.52C144.044 86.9734 143.177 87.2 142.204 87.2C141.257 87.2 140.397 86.9734 139.624 86.52C138.864 86.0534 138.257 85.42 137.804 84.62C137.364 83.8067 137.144 82.8934 137.144 81.88C137.144 80.8534 137.364 79.94 137.804 79.14C138.257 78.34 138.864 77.7067 139.624 77.24C140.397 76.7734 141.257 76.54 142.204 76.54C143.177 76.54 144.044 76.7734 144.804 77.24C145.564 77.7067 146.164 78.34 146.604 79.14C147.044 79.94 147.264 80.8534 147.264 81.88ZM146.064 81.88C146.064 81.0667 145.897 80.3467 145.564 79.72C145.231 79.08 144.771 78.58 144.184 78.22C143.611 77.8467 142.951 77.66 142.204 77.66C141.484 77.66 140.831 77.8467 140.244 78.22C139.657 78.58 139.191 79.08 138.844 79.72C138.511 80.3467 138.344 81.0667 138.344 81.88C138.344 82.6934 138.511 83.4134 138.844 84.04C139.191 84.6667 139.657 85.1667 140.244 85.54C140.831 85.9 141.484 86.08 142.204 86.08C142.951 86.08 143.611 85.9 144.184 85.54C144.771 85.1667 145.231 84.6667 145.564 84.04C145.897 83.4134 146.064 82.6934 146.064 81.88Z" fill="#E8E8E8"/>
<path d="M159.334 81.88C159.334 82.8934 159.114 83.8067 158.674 84.62C158.234 85.42 157.634 86.0534 156.874 86.52C156.114 86.9734 155.248 87.2 154.274 87.2C153.328 87.2 152.468 86.9734 151.694 86.52C150.934 86.0534 150.328 85.42 149.874 84.62C149.434 83.8067 149.214 82.8934 149.214 81.88C149.214 80.8534 149.434 79.94 149.874 79.14C150.328 78.34 150.934 77.7067 151.694 77.24C152.468 76.7734 153.328 76.54 154.274 76.54C155.248 76.54 156.114 76.7734 156.874 77.24C157.634 77.7067 158.234 78.34 158.674 79.14C159.114 79.94 159.334 80.8534 159.334 81.88ZM158.134 81.88C158.134 81.0667 157.968 80.3467 157.634 79.72C157.301 79.08 156.841 78.58 156.254 78.22C155.681 77.8467 155.021 77.66 154.274 77.66C153.554 77.66 152.901 77.8467 152.314 78.22C151.728 78.58 151.261 79.08 150.914 79.72C150.581 80.3467 150.414 81.0667 150.414 81.88C150.414 82.6934 150.581 83.4134 150.914 84.04C151.261 84.6667 151.728 85.1667 152.314 85.54C152.901 85.9 153.554 86.08 154.274 86.08C155.021 86.08 155.681 85.9 156.254 85.54C156.841 85.1667 157.301 84.6667 157.634 84.04C157.968 83.4134 158.134 82.6934 158.134 81.88Z" fill="#E8E8E8"/>
<path d="M166.145 76.54C166.745 76.54 167.298 76.6467 167.805 76.86C168.311 77.06 168.751 77.3267 169.125 77.66C169.511 77.98 169.811 78.3267 170.025 78.7C170.238 79.06 170.345 79.4067 170.345 79.74L170.005 79.26V77.4C170.005 77.2267 170.058 77.08 170.165 76.96C170.285 76.84 170.431 76.78 170.605 76.78C170.791 76.78 170.938 76.84 171.045 76.96C171.151 77.08 171.205 77.2267 171.205 77.4V86.06C171.205 87.1267 170.985 88.0267 170.545 88.76C170.105 89.4934 169.505 90.0467 168.745 90.42C167.998 90.8067 167.145 91 166.185 91C165.718 91 165.225 90.94 164.705 90.82C164.198 90.7 163.758 90.5467 163.385 90.36C163.025 90.1734 162.825 89.98 162.785 89.78C162.678 89.66 162.625 89.54 162.625 89.42C162.638 89.3134 162.698 89.22 162.805 89.14C162.938 89.0467 163.078 89.0334 163.225 89.1C163.371 89.18 163.591 89.28 163.885 89.4C164.018 89.44 164.198 89.5 164.425 89.58C164.651 89.66 164.918 89.7267 165.225 89.78C165.545 89.8467 165.878 89.88 166.225 89.88C167.425 89.88 168.351 89.5334 169.005 88.84C169.671 88.16 170.005 87.26 170.005 86.14V84.22L170.225 84.28C170.105 84.76 169.905 85.18 169.625 85.54C169.358 85.9 169.038 86.2067 168.665 86.46C168.291 86.7 167.885 86.88 167.445 87C167.018 87.1334 166.591 87.2 166.165 87.2C165.245 87.2 164.418 86.9667 163.685 86.5C162.951 86.0334 162.365 85.4 161.925 84.6C161.498 83.8 161.285 82.8867 161.285 81.86C161.285 80.8467 161.498 79.94 161.925 79.14C162.365 78.3267 162.945 77.6934 163.665 77.24C164.398 76.7734 165.225 76.54 166.145 76.54ZM166.285 77.66C165.551 77.66 164.891 77.8467 164.305 78.22C163.731 78.58 163.278 79.08 162.945 79.72C162.625 80.3467 162.465 81.06 162.465 81.86C162.465 82.66 162.625 83.38 162.945 84.02C163.278 84.66 163.731 85.1667 164.305 85.54C164.891 85.9 165.551 86.08 166.285 86.08C167.018 86.08 167.671 85.9 168.245 85.54C168.818 85.18 169.271 84.6867 169.605 84.06C169.938 83.42 170.105 82.6867 170.105 81.86C170.105 81.0334 169.938 80.3067 169.605 79.68C169.271 79.04 168.818 78.5467 168.245 78.2C167.671 77.84 167.018 77.66 166.285 77.66Z" fill="#E8E8E8"/>
<path d="M175.685 86.4C175.685 86.56 175.625 86.7 175.505 86.82C175.385 86.94 175.245 87 175.085 87C174.912 87 174.765 86.94 174.645 86.82C174.538 86.7 174.485 86.56 174.485 86.4V72.8C174.485 72.64 174.545 72.5 174.665 72.38C174.785 72.26 174.925 72.2 175.085 72.2C175.258 72.2 175.398 72.26 175.505 72.38C175.625 72.5 175.685 72.64 175.685 72.8V86.4Z" fill="#E8E8E8"/>
<path d="M183.399 87.2C182.373 87.2 181.466 86.98 180.679 86.54C179.893 86.1 179.279 85.4867 178.839 84.7C178.399 83.9134 178.179 82.9934 178.179 81.94C178.179 80.8067 178.399 79.84 178.839 79.04C179.293 78.24 179.873 77.6267 180.579 77.2C181.299 76.76 182.059 76.54 182.859 76.54C183.446 76.54 184.013 76.6467 184.559 76.86C185.119 77.06 185.613 77.3667 186.039 77.78C186.479 78.18 186.826 78.6734 187.079 79.26C187.346 79.8467 187.493 80.5267 187.519 81.3C187.506 81.46 187.439 81.6 187.319 81.72C187.199 81.8267 187.059 81.88 186.899 81.88H178.879L178.639 80.8H186.519L186.259 81.04V80.64C186.206 80.0134 186.006 79.48 185.659 79.04C185.313 78.6 184.893 78.2667 184.399 78.04C183.906 77.8134 183.393 77.7 182.859 77.7C182.459 77.7 182.046 77.78 181.619 77.94C181.206 78.1 180.826 78.3534 180.479 78.7C180.146 79.0334 179.873 79.4667 179.659 80C179.446 80.52 179.339 81.14 179.339 81.86C179.339 82.6467 179.499 83.36 179.819 84C180.139 84.64 180.599 85.1467 181.199 85.52C181.813 85.8934 182.539 86.08 183.379 86.08C183.846 86.08 184.266 86.0134 184.639 85.88C185.013 85.7467 185.339 85.5734 185.619 85.36C185.899 85.1334 186.133 84.9 186.319 84.66C186.466 84.54 186.613 84.48 186.759 84.48C186.893 84.48 187.006 84.5334 187.099 84.64C187.206 84.7467 187.259 84.8667 187.259 85C187.259 85.16 187.193 85.3 187.059 85.42C186.659 85.9 186.139 86.32 185.499 86.68C184.859 87.0267 184.159 87.2 183.399 87.2Z" fill="#E8E8E8"/>
<path d="M18.74 161.2C17.7267 161.213 16.8467 161.053 16.1 160.72C15.3533 160.387 14.64 159.887 13.96 159.22C13.8933 159.167 13.8333 159.1 13.78 159.02C13.74 158.94 13.72 158.847 13.72 158.74C13.72 158.58 13.78 158.433 13.9 158.3C14.0333 158.167 14.18 158.1 14.34 158.1C14.5 158.1 14.6467 158.167 14.78 158.3C15.3 158.86 15.8867 159.287 16.54 159.58C17.2067 159.873 17.92 160.02 18.68 160.02C19.32 160.02 19.8867 159.92 20.38 159.72C20.8867 159.52 21.2867 159.233 21.58 158.86C21.8733 158.487 22.02 158.053 22.02 157.56C22.02 156.947 21.8533 156.453 21.52 156.08C21.1867 155.693 20.7467 155.38 20.2 155.14C19.6533 154.887 19.0467 154.66 18.38 154.46C17.8333 154.3 17.3133 154.12 16.82 153.92C16.3267 153.707 15.8867 153.453 15.5 153.16C15.1133 152.853 14.8133 152.48 14.6 152.04C14.3867 151.6 14.28 151.067 14.28 150.44C14.28 149.733 14.4667 149.107 14.84 148.56C15.2133 148.013 15.74 147.587 16.42 147.28C17.1133 146.96 17.9133 146.8 18.82 146.8C19.6067 146.8 20.36 146.933 21.08 147.2C21.8133 147.467 22.3933 147.86 22.82 148.38C23.02 148.593 23.12 148.787 23.12 148.96C23.12 149.093 23.0533 149.227 22.92 149.36C22.7867 149.493 22.64 149.56 22.48 149.56C22.3467 149.56 22.2333 149.513 22.14 149.42C21.9133 149.14 21.6267 148.893 21.28 148.68C20.9333 148.453 20.5467 148.28 20.12 148.16C19.7067 148.04 19.2733 147.98 18.82 147.98C18.1933 147.98 17.6267 148.08 17.12 148.28C16.6267 148.467 16.2333 148.74 15.94 149.1C15.66 149.46 15.52 149.893 15.52 150.4C15.52 150.96 15.68 151.42 16 151.78C16.32 152.14 16.74 152.44 17.26 152.68C17.78 152.907 18.3333 153.12 18.92 153.32C19.4933 153.48 20.04 153.667 20.56 153.88C21.0933 154.08 21.56 154.333 21.96 154.64C22.3733 154.947 22.6933 155.333 22.92 155.8C23.16 156.267 23.28 156.853 23.28 157.56C23.28 158.24 23.0867 158.853 22.7 159.4C22.3133 159.947 21.78 160.38 21.1 160.7C20.4333 161.02 19.6467 161.187 18.74 161.2Z" fill="#E8E8E8"/>
<path d="M26.9705 160.4C26.9705 160.56 26.9105 160.7 26.7905 160.82C26.6705 160.94 26.5305 161 26.3705 161C26.1971 161 26.0505 160.94 25.9305 160.82C25.8238 160.7 25.7705 160.56 25.7705 160.4V151.2C25.7705 151.04 25.8238 150.9 25.9305 150.78C26.0505 150.66 26.1971 150.6 26.3705 150.6C26.5438 150.6 26.6838 150.66 26.7905 150.78C26.9105 150.9 26.9705 151.04 26.9705 151.2V160.4ZM26.3705 149.26C26.0905 149.26 25.8771 149.2 25.7305 149.08C25.5971 148.947 25.5305 148.76 25.5305 148.52V148.32C25.5305 148.08 25.6038 147.9 25.7505 147.78C25.9105 147.647 26.1238 147.58 26.3905 147.58C26.6438 147.58 26.8371 147.647 26.9705 147.78C27.1171 147.9 27.1905 148.08 27.1905 148.32V148.52C27.1905 148.76 27.1171 148.947 26.9705 149.08C26.8371 149.2 26.6371 149.26 26.3705 149.26Z" fill="#E8E8E8"/>
<path d="M34.3478 150.54C34.9478 150.54 35.5011 150.647 36.0078 150.86C36.5145 151.06 36.9545 151.327 37.3278 151.66C37.7145 151.98 38.0145 152.327 38.2278 152.7C38.4411 153.06 38.5478 153.407 38.5478 153.74L38.2078 153.26V151.4C38.2078 151.227 38.2611 151.08 38.3678 150.96C38.4878 150.84 38.6345 150.78 38.8078 150.78C38.9945 150.78 39.1411 150.84 39.2478 150.96C39.3545 151.08 39.4078 151.227 39.4078 151.4V160.06C39.4078 161.127 39.1878 162.027 38.7478 162.76C38.3078 163.493 37.7078 164.047 36.9478 164.42C36.2011 164.807 35.3478 165 34.3878 165C33.9211 165 33.4278 164.94 32.9078 164.82C32.4011 164.7 31.9611 164.547 31.5878 164.36C31.2278 164.173 31.0278 163.98 30.9878 163.78C30.8811 163.66 30.8278 163.54 30.8278 163.42C30.8411 163.313 30.9011 163.22 31.0078 163.14C31.1411 163.047 31.2811 163.033 31.4278 163.1C31.5745 163.18 31.7945 163.28 32.0878 163.4C32.2211 163.44 32.4011 163.5 32.6278 163.58C32.8545 163.66 33.1211 163.727 33.4278 163.78C33.7478 163.847 34.0811 163.88 34.4278 163.88C35.6278 163.88 36.5545 163.533 37.2078 162.84C37.8745 162.16 38.2078 161.26 38.2078 160.14V158.22L38.4278 158.28C38.3078 158.76 38.1078 159.18 37.8278 159.54C37.5611 159.9 37.2411 160.207 36.8678 160.46C36.4945 160.7 36.0878 160.88 35.6478 161C35.2211 161.133 34.7945 161.2 34.3678 161.2C33.4478 161.2 32.6211 160.967 31.8878 160.5C31.1545 160.033 30.5678 159.4 30.1278 158.6C29.7011 157.8 29.4878 156.887 29.4878 155.86C29.4878 154.847 29.7011 153.94 30.1278 153.14C30.5678 152.327 31.1478 151.693 31.8678 151.24C32.6011 150.773 33.4278 150.54 34.3478 150.54ZM34.4878 151.66C33.7545 151.66 33.0945 151.847 32.5078 152.22C31.9345 152.58 31.4811 153.08 31.1478 153.72C30.8278 154.347 30.6678 155.06 30.6678 155.86C30.6678 156.66 30.8278 157.38 31.1478 158.02C31.4811 158.66 31.9345 159.167 32.5078 159.54C33.0945 159.9 33.7545 160.08 34.4878 160.08C35.2211 160.08 35.8745 159.9 36.4478 159.54C37.0211 159.18 37.4745 158.687 37.8078 158.06C38.1411 157.42 38.3078 156.687 38.3078 155.86C38.3078 155.033 38.1411 154.307 37.8078 153.68C37.4745 153.04 37.0211 152.547 36.4478 152.2C35.8745 151.84 35.2211 151.66 34.4878 151.66Z" fill="#E8E8E8"/>
<path d="M47.3883 150.54C48.2683 150.54 48.9683 150.72 49.4883 151.08C50.0216 151.427 50.4016 151.907 50.6283 152.52C50.8683 153.12 50.9883 153.787 50.9883 154.52V160.4C50.9883 160.56 50.9283 160.7 50.8083 160.82C50.6883 160.94 50.5483 161 50.3883 161C50.2016 161 50.0549 160.94 49.9483 160.82C49.8416 160.7 49.7883 160.56 49.7883 160.4V154.58C49.7883 154.047 49.7016 153.56 49.5283 153.12C49.3549 152.68 49.0683 152.327 48.6683 152.06C48.2816 151.793 47.7683 151.66 47.1283 151.66C46.5549 151.66 46.0083 151.793 45.4883 152.06C44.9816 152.327 44.5683 152.68 44.2483 153.12C43.9283 153.56 43.7683 154.047 43.7683 154.58V160.4C43.7683 160.56 43.7083 160.7 43.5883 160.82C43.4683 160.94 43.3283 161 43.1683 161C42.9816 161 42.8349 160.94 42.7283 160.82C42.6216 160.7 42.5683 160.56 42.5683 160.4V151.44C42.5683 151.28 42.6216 151.14 42.7283 151.02C42.8483 150.9 42.9949 150.84 43.1683 150.84C43.3416 150.84 43.4816 150.9 43.5883 151.02C43.7083 151.14 43.7683 151.28 43.7683 151.44V153.12L43.3083 153.84C43.3349 153.413 43.4683 153.007 43.7083 152.62C43.9616 152.22 44.2816 151.867 44.6683 151.56C45.0549 151.24 45.4816 150.993 45.9483 150.82C46.4283 150.633 46.9083 150.54 47.3883 150.54Z" fill="#E8E8E8"/>
<path d="M60.7595 160.4C60.7595 160.56 60.6995 160.7 60.5795 160.82C60.4595 160.94 60.3195 161 60.1595 161C59.9862 161 59.8395 160.94 59.7195 160.82C59.6129 160.7 59.5595 160.56 59.5595 160.4V151.2C59.5595 151.04 59.6129 150.9 59.7195 150.78C59.8395 150.66 59.9862 150.6 60.1595 150.6C60.3329 150.6 60.4729 150.66 60.5795 150.78C60.6995 150.9 60.7595 151.04 60.7595 151.2V160.4ZM60.1595 149.26C59.8795 149.26 59.6662 149.2 59.5195 149.08C59.3862 148.947 59.3195 148.76 59.3195 148.52V148.32C59.3195 148.08 59.3929 147.9 59.5395 147.78C59.6995 147.647 59.9129 147.58 60.1795 147.58C60.4329 147.58 60.6262 147.647 60.7595 147.78C60.9062 147.9 60.9795 148.08 60.9795 148.32V148.52C60.9795 148.76 60.9062 148.947 60.7595 149.08C60.6262 149.2 60.4262 149.26 60.1595 149.26Z" fill="#E8E8E8"/>
<path d="M68.6969 150.54C69.5769 150.54 70.2769 150.72 70.7969 151.08C71.3302 151.427 71.7102 151.907 71.9369 152.52C72.1769 153.12 72.2969 153.787 72.2969 154.52V160.4C72.2969 160.56 72.2369 160.7 72.1169 160.82C71.9969 160.94 71.8569 161 71.6969 161C71.5102 161 71.3635 160.94 71.2569 160.82C71.1502 160.7 71.0969 160.56 71.0969 160.4V154.58C71.0969 154.047 71.0102 153.56 70.8369 153.12C70.6635 152.68 70.3769 152.327 69.9769 152.06C69.5902 151.793 69.0769 151.66 68.4369 151.66C67.8635 151.66 67.3169 151.793 66.7969 152.06C66.2902 152.327 65.8769 152.68 65.5569 153.12C65.2369 153.56 65.0769 154.047 65.0769 154.58V160.4C65.0769 160.56 65.0169 160.7 64.8969 160.82C64.7769 160.94 64.6369 161 64.4769 161C64.2902 161 64.1435 160.94 64.0369 160.82C63.9302 160.7 63.8769 160.56 63.8769 160.4V151.44C63.8769 151.28 63.9302 151.14 64.0369 151.02C64.1569 150.9 64.3035 150.84 64.4769 150.84C64.6502 150.84 64.7902 150.9 64.8969 151.02C65.0169 151.14 65.0769 151.28 65.0769 151.44V153.12L64.6169 153.84C64.6435 153.413 64.7769 153.007 65.0169 152.62C65.2702 152.22 65.5902 151.867 65.9769 151.56C66.3635 151.24 66.7902 150.993 67.2569 150.82C67.7369 150.633 68.2169 150.54 68.6969 150.54Z" fill="#E8E8E8"/>
<path d="M93.0481 150.56C93.1948 150.56 93.3281 150.613 93.4481 150.72C93.5815 150.827 93.6481 150.973 93.6481 151.16C93.6481 151.2 93.6415 151.247 93.6281 151.3C93.6148 151.353 93.6015 151.393 93.5881 151.42L90.5081 160.62C90.4548 160.74 90.3681 160.84 90.2481 160.92C90.1415 160.987 90.0281 161.013 89.9081 161C89.6681 160.987 89.4881 160.86 89.3681 160.62L86.5481 153.98L86.9081 154.06L84.4081 160.62C84.3015 160.86 84.1215 160.987 83.8681 161C83.7481 161.013 83.6281 160.987 83.5081 160.92C83.3881 160.84 83.3081 160.74 83.2681 160.62L80.1081 151.42C80.0681 151.327 80.0481 151.24 80.0481 151.16C80.0481 150.987 80.1015 150.847 80.2081 150.74C80.3281 150.62 80.4815 150.56 80.6681 150.56C80.7881 150.56 80.8948 150.593 80.9881 150.66C81.0948 150.727 81.1681 150.827 81.2081 150.96L84.0481 159.48L83.6681 159.46L86.2481 152.96C86.3548 152.707 86.5415 152.58 86.8081 152.58C86.9415 152.58 87.0548 152.613 87.1481 152.68C87.2415 152.747 87.3148 152.84 87.3681 152.96L90.1081 159.48L89.6681 159.5L92.4881 150.96C92.5681 150.693 92.7548 150.56 93.0481 150.56Z" fill="#E8E8E8"/>
<path d="M97.1072 160.4C97.1072 160.56 97.0472 160.7 96.9272 160.82C96.8072 160.94 96.6672 161 96.5072 161C96.3339 161 96.1872 160.94 96.0672 160.82C95.9605 160.7 95.9072 160.56 95.9072 160.4V151.2C95.9072 151.04 95.9605 150.9 96.0672 150.78C96.1872 150.66 96.3339 150.6 96.5072 150.6C96.6805 150.6 96.8205 150.66 96.9272 150.78C97.0472 150.9 97.1072 151.04 97.1072 151.2V160.4ZM96.5072 149.26C96.2272 149.26 96.0139 149.2 95.8672 149.08C95.7339 148.947 95.6672 148.76 95.6672 148.52V148.32C95.6672 148.08 95.7405 147.9 95.8872 147.78C96.0472 147.647 96.2605 147.58 96.5272 147.58C96.7805 147.58 96.9739 147.647 97.1072 147.78C97.2539 147.9 97.3272 148.08 97.3272 148.32V148.52C97.3272 148.76 97.2539 148.947 97.1072 149.08C96.9739 149.2 96.7739 149.26 96.5072 149.26Z" fill="#E8E8E8"/>
<path d="M99.5645 150.82H104.225C104.385 150.82 104.518 150.88 104.625 151C104.731 151.107 104.785 151.24 104.785 151.4C104.785 151.547 104.731 151.673 104.625 151.78C104.518 151.887 104.385 151.94 104.225 151.94H99.5645C99.4045 151.94 99.2645 151.887 99.1445 151.78C99.0379 151.66 98.9845 151.527 98.9845 151.38C98.9845 151.22 99.0379 151.087 99.1445 150.98C99.2645 150.873 99.4045 150.82 99.5645 150.82ZM101.625 148C101.798 148 101.938 148.06 102.045 148.18C102.165 148.3 102.225 148.44 102.225 148.6V158.64C102.225 159.013 102.271 159.293 102.365 159.48C102.471 159.667 102.605 159.793 102.765 159.86C102.925 159.913 103.085 159.94 103.245 159.94C103.351 159.94 103.445 159.927 103.525 159.9C103.618 159.86 103.718 159.84 103.825 159.84C103.945 159.84 104.045 159.887 104.125 159.98C104.218 160.073 104.265 160.193 104.265 160.34C104.265 160.527 104.158 160.687 103.945 160.82C103.731 160.94 103.478 161 103.185 161C103.065 161 102.885 160.993 102.645 160.98C102.405 160.953 102.158 160.88 101.905 160.76C101.651 160.627 101.438 160.4 101.265 160.08C101.105 159.76 101.025 159.3 101.025 158.7V148.6C101.025 148.44 101.078 148.3 101.185 148.18C101.305 148.06 101.451 148 101.625 148Z" fill="#E8E8E8"/>
<path d="M111.662 150.7C112.502 150.7 113.182 150.88 113.702 151.24C114.222 151.6 114.602 152.087 114.842 152.7C115.095 153.313 115.222 153.993 115.222 154.74V160.4C115.222 160.56 115.162 160.7 115.042 160.82C114.922 160.94 114.782 161 114.622 161C114.435 161 114.289 160.94 114.182 160.82C114.075 160.7 114.022 160.56 114.022 160.4V154.74C114.022 154.193 113.935 153.7 113.762 153.26C113.602 152.82 113.335 152.473 112.962 152.22C112.589 151.953 112.089 151.82 111.462 151.82C110.902 151.82 110.369 151.953 109.862 152.22C109.369 152.473 108.969 152.82 108.662 153.26C108.355 153.7 108.202 154.193 108.202 154.74V160.4C108.202 160.56 108.142 160.7 108.022 160.82C107.902 160.94 107.762 161 107.602 161C107.415 161 107.269 160.94 107.162 160.82C107.055 160.7 107.002 160.56 107.002 160.4V146.8C107.002 146.64 107.055 146.5 107.162 146.38C107.282 146.26 107.429 146.2 107.602 146.2C107.775 146.2 107.915 146.26 108.022 146.38C108.142 146.5 108.202 146.64 108.202 146.8V153.28L107.742 153.98C107.769 153.567 107.895 153.167 108.122 152.78C108.362 152.38 108.669 152.027 109.042 151.72C109.415 151.4 109.829 151.153 110.282 150.98C110.735 150.793 111.195 150.7 111.662 150.7Z" fill="#E8E8E8"/>
<path d="M124.758 161C124.571 161 124.418 160.94 124.298 160.82C124.191 160.7 124.138 160.56 124.138 160.4V147.6C124.138 147.44 124.198 147.3 124.318 147.18C124.438 147.06 124.578 147 124.738 147H132.018C132.191 147 132.331 147.06 132.438 147.18C132.558 147.287 132.618 147.427 132.618 147.6C132.618 147.76 132.558 147.9 132.438 148.02C132.331 148.127 132.191 148.18 132.018 148.18H125.278L125.358 148.06V153.38L125.258 153.2H131.118C131.291 153.2 131.431 153.26 131.538 153.38C131.658 153.487 131.718 153.62 131.718 153.78C131.718 153.953 131.658 154.093 131.538 154.2C131.431 154.307 131.291 154.36 131.118 154.36H125.218L125.358 154.2V160.4C125.358 160.56 125.298 160.7 125.178 160.82C125.071 160.94 124.931 161 124.758 161Z" fill="#E8E8E8"/>
<path d="M143.155 150.78C143.329 150.78 143.469 150.84 143.575 150.96C143.695 151.08 143.755 151.227 143.755 151.4V160.4C143.755 160.56 143.695 160.7 143.575 160.82C143.455 160.94 143.315 161 143.155 161C142.982 161 142.835 160.94 142.715 160.82C142.609 160.7 142.555 160.56 142.555 160.4V158.02L142.895 157.86C142.895 158.233 142.789 158.613 142.575 159C142.375 159.387 142.095 159.747 141.735 160.08C141.375 160.413 140.949 160.687 140.455 160.9C139.975 161.1 139.455 161.2 138.895 161.2C137.989 161.2 137.175 160.967 136.455 160.5C135.749 160.033 135.189 159.393 134.775 158.58C134.375 157.767 134.175 156.853 134.175 155.84C134.175 154.8 134.382 153.887 134.795 153.1C135.209 152.3 135.769 151.673 136.475 151.22C137.182 150.767 137.982 150.54 138.875 150.54C139.449 150.54 139.982 150.64 140.475 150.84C140.982 151.04 141.422 151.313 141.795 151.66C142.169 152.007 142.455 152.407 142.655 152.86C142.869 153.3 142.975 153.76 142.975 154.24L142.555 153.94V151.4C142.555 151.227 142.609 151.08 142.715 150.96C142.835 150.84 142.982 150.78 143.155 150.78ZM138.995 160.08C139.702 160.08 140.329 159.9 140.875 159.54C141.422 159.167 141.849 158.66 142.155 158.02C142.475 157.367 142.635 156.64 142.635 155.84C142.635 155.053 142.475 154.347 142.155 153.72C141.849 153.093 141.422 152.593 140.875 152.22C140.329 151.847 139.702 151.66 138.995 151.66C138.302 151.66 137.675 151.84 137.115 152.2C136.569 152.56 136.135 153.053 135.815 153.68C135.509 154.307 135.355 155.027 135.355 155.84C135.355 156.64 135.509 157.367 135.815 158.02C136.135 158.66 136.569 159.167 137.115 159.54C137.662 159.9 138.289 160.08 138.995 160.08Z" fill="#E8E8E8"/>
<path d="M151.404 150.54C152.044 150.54 152.631 150.613 153.164 150.76C153.698 150.893 154.124 151.08 154.444 151.32C154.778 151.56 154.944 151.82 154.944 152.1C154.944 152.233 154.898 152.367 154.804 152.5C154.711 152.62 154.584 152.68 154.424 152.68C154.264 152.68 154.131 152.64 154.024 152.56C153.931 152.48 153.831 152.387 153.724 152.28C153.631 152.173 153.491 152.073 153.304 151.98C153.131 151.9 152.884 151.827 152.564 151.76C152.244 151.693 151.878 151.66 151.464 151.66C150.718 151.66 150.044 151.847 149.444 152.22C148.844 152.593 148.371 153.1 148.024 153.74C147.678 154.367 147.504 155.073 147.504 155.86C147.504 156.66 147.671 157.38 148.004 158.02C148.338 158.66 148.798 159.167 149.384 159.54C149.971 159.9 150.658 160.08 151.444 160.08C151.978 160.08 152.391 160.033 152.684 159.94C152.978 159.847 153.231 159.74 153.444 159.62C153.698 159.473 153.878 159.333 153.984 159.2C154.104 159.053 154.258 158.98 154.444 158.98C154.618 158.98 154.744 159.033 154.824 159.14C154.918 159.233 154.964 159.36 154.964 159.52C154.964 159.733 154.804 159.973 154.484 160.24C154.178 160.493 153.751 160.72 153.204 160.92C152.658 161.107 152.031 161.2 151.324 161.2C150.324 161.2 149.444 160.967 148.684 160.5C147.938 160.033 147.351 159.4 146.924 158.6C146.511 157.787 146.304 156.873 146.304 155.86C146.304 154.887 146.518 154 146.944 153.2C147.371 152.4 147.964 151.76 148.724 151.28C149.498 150.787 150.391 150.54 151.404 150.54Z" fill="#E8E8E8"/>
<path d="M161.876 161.2C160.849 161.2 159.942 160.98 159.156 160.54C158.369 160.1 157.756 159.487 157.316 158.7C156.876 157.913 156.656 156.993 156.656 155.94C156.656 154.807 156.876 153.84 157.316 153.04C157.769 152.24 158.349 151.627 159.056 151.2C159.776 150.76 160.536 150.54 161.336 150.54C161.922 150.54 162.489 150.647 163.036 150.86C163.596 151.06 164.089 151.367 164.516 151.78C164.956 152.18 165.302 152.673 165.556 153.26C165.822 153.847 165.969 154.527 165.996 155.3C165.982 155.46 165.916 155.6 165.796 155.72C165.676 155.827 165.536 155.88 165.376 155.88H157.356L157.116 154.8H164.996L164.736 155.04V154.64C164.682 154.013 164.482 153.48 164.136 153.04C163.789 152.6 163.369 152.267 162.876 152.04C162.382 151.813 161.869 151.7 161.336 151.7C160.936 151.7 160.522 151.78 160.096 151.94C159.682 152.1 159.302 152.353 158.956 152.7C158.622 153.033 158.349 153.467 158.136 154C157.922 154.52 157.816 155.14 157.816 155.86C157.816 156.647 157.976 157.36 158.296 158C158.616 158.64 159.076 159.147 159.676 159.52C160.289 159.893 161.016 160.08 161.856 160.08C162.322 160.08 162.742 160.013 163.116 159.88C163.489 159.747 163.816 159.573 164.096 159.36C164.376 159.133 164.609 158.9 164.796 158.66C164.942 158.54 165.089 158.48 165.236 158.48C165.369 158.48 165.482 158.533 165.576 158.64C165.682 158.747 165.736 158.867 165.736 159C165.736 159.16 165.669 159.3 165.536 159.42C165.136 159.9 164.616 160.32 163.976 160.68C163.336 161.027 162.636 161.2 161.876 161.2Z" fill="#E8E8E8"/>
<path d="M173.424 150.54C174.331 150.54 175.131 150.767 175.824 151.22C176.531 151.673 177.091 152.3 177.504 153.1C177.918 153.887 178.124 154.8 178.124 155.84C178.124 156.853 177.918 157.767 177.504 158.58C177.091 159.393 176.531 160.033 175.824 160.5C175.118 160.967 174.324 161.2 173.444 161.2C172.978 161.2 172.531 161.127 172.104 160.98C171.691 160.833 171.311 160.64 170.964 160.4C170.618 160.147 170.311 159.853 170.044 159.52C169.778 159.187 169.564 158.827 169.404 158.44L169.764 158.18V160.44C169.764 160.613 169.704 160.76 169.584 160.88C169.478 160.987 169.338 161.04 169.164 161.04C168.991 161.04 168.844 160.987 168.724 160.88C168.618 160.76 168.564 160.613 168.564 160.44V146.82C168.564 146.647 168.618 146.507 168.724 146.4C168.831 146.28 168.978 146.22 169.164 146.22C169.338 146.22 169.478 146.28 169.584 146.4C169.704 146.507 169.764 146.647 169.764 146.82V153.52L169.484 153.36C169.618 152.947 169.811 152.573 170.064 152.24C170.331 151.893 170.638 151.593 170.984 151.34C171.331 151.087 171.711 150.893 172.124 150.76C172.538 150.613 172.971 150.54 173.424 150.54ZM173.324 151.66C172.604 151.66 171.971 151.84 171.424 152.2C170.878 152.56 170.444 153.053 170.124 153.68C169.818 154.307 169.664 155.027 169.664 155.84C169.664 156.64 169.818 157.367 170.124 158.02C170.444 158.66 170.878 159.167 171.424 159.54C171.971 159.9 172.604 160.08 173.324 160.08C174.031 160.08 174.651 159.893 175.184 159.52C175.731 159.147 176.164 158.64 176.484 158C176.804 157.347 176.964 156.627 176.964 155.84C176.964 155.027 176.804 154.307 176.484 153.68C176.164 153.053 175.731 152.56 175.184 152.2C174.651 151.84 174.031 151.66 173.324 151.66Z" fill="#E8E8E8"/>
<path d="M190.213 155.88C190.213 156.893 189.993 157.807 189.553 158.62C189.113 159.42 188.513 160.053 187.753 160.52C186.993 160.973 186.127 161.2 185.153 161.2C184.207 161.2 183.347 160.973 182.573 160.52C181.813 160.053 181.207 159.42 180.753 158.62C180.313 157.807 180.093 156.893 180.093 155.88C180.093 154.853 180.313 153.94 180.753 153.14C181.207 152.34 181.813 151.707 182.573 151.24C183.347 150.773 184.207 150.54 185.153 150.54C186.127 150.54 186.993 150.773 187.753 151.24C188.513 151.707 189.113 152.34 189.553 153.14C189.993 153.94 190.213 154.853 190.213 155.88ZM189.013 155.88C189.013 155.067 188.847 154.347 188.513 153.72C188.18 153.08 187.72 152.58 187.133 152.22C186.56 151.847 185.9 151.66 185.153 151.66C184.433 151.66 183.78 151.847 183.193 152.22C182.607 152.58 182.14 153.08 181.793 153.72C181.46 154.347 181.293 155.067 181.293 155.88C181.293 156.693 181.46 157.413 181.793 158.04C182.14 158.667 182.607 159.167 183.193 159.54C183.78 159.9 184.433 160.08 185.153 160.08C185.9 160.08 186.56 159.9 187.133 159.54C187.72 159.167 188.18 158.667 188.513 158.04C188.847 157.413 189.013 156.693 189.013 155.88Z" fill="#E8E8E8"/>
<path d="M202.284 155.88C202.284 156.893 202.064 157.807 201.624 158.62C201.184 159.42 200.584 160.053 199.824 160.52C199.064 160.973 198.197 161.2 197.224 161.2C196.277 161.2 195.417 160.973 194.644 160.52C193.884 160.053 193.277 159.42 192.824 158.62C192.384 157.807 192.164 156.893 192.164 155.88C192.164 154.853 192.384 153.94 192.824 153.14C193.277 152.34 193.884 151.707 194.644 151.24C195.417 150.773 196.277 150.54 197.224 150.54C198.197 150.54 199.064 150.773 199.824 151.24C200.584 151.707 201.184 152.34 201.624 153.14C202.064 153.94 202.284 154.853 202.284 155.88ZM201.084 155.88C201.084 155.067 200.917 154.347 200.584 153.72C200.25 153.08 199.79 152.58 199.204 152.22C198.63 151.847 197.97 151.66 197.224 151.66C196.504 151.66 195.85 151.847 195.264 152.22C194.677 152.58 194.21 153.08 193.864 153.72C193.53 154.347 193.364 155.067 193.364 155.88C193.364 156.693 193.53 157.413 193.864 158.04C194.21 158.667 194.677 159.167 195.264 159.54C195.85 159.9 196.504 160.08 197.224 160.08C197.97 160.08 198.63 159.9 199.204 159.54C199.79 159.167 200.25 158.667 200.584 158.04C200.917 157.413 201.084 156.693 201.084 155.88Z" fill="#E8E8E8"/>
<path d="M205.554 161C205.381 161 205.234 160.94 205.114 160.82C205.007 160.7 204.954 160.56 204.954 160.4V146.8C204.954 146.64 205.007 146.5 205.114 146.38C205.234 146.26 205.381 146.2 205.554 146.2C205.727 146.2 205.867 146.26 205.974 146.38C206.094 146.5 206.154 146.64 206.154 146.8V160.4C206.154 160.56 206.094 160.7 205.974 160.82C205.867 160.94 205.727 161 205.554 161ZM212.354 150.74C212.501 150.74 212.634 150.807 212.754 150.94C212.874 151.06 212.934 151.193 212.934 151.34C212.934 151.513 212.861 151.667 212.714 151.8L205.994 157.52L205.934 156.1L211.934 150.94C212.054 150.807 212.194 150.74 212.354 150.74ZM212.514 161C212.341 161 212.194 160.927 212.074 160.78L207.514 155.94L208.414 155.12L212.934 159.94C213.054 160.073 213.114 160.227 213.114 160.4C213.114 160.587 213.041 160.733 212.894 160.84C212.747 160.947 212.621 161 212.514 161Z" fill="#E8E8E8"/>
<path d="M83.696 1.15204C83.904 1.15204 84.08 1.21604 84.224 1.34404C84.384 1.45604 84.464 1.63204 84.464 1.87204C84.464 1.95204 84.448 2.05604 84.416 2.18404L79.112 17.544C79.064 17.688 78.976 17.8 78.848 17.88C78.72 17.96 78.592 18 78.464 18C78.304 18 78.16 17.968 78.032 17.904C77.904 17.824 77.808 17.704 77.744 17.544L73.496 7.03204L73.688 7.08004L69.44 17.544C69.376 17.704 69.272 17.824 69.128 17.904C69 17.968 68.864 18 68.72 18C68.592 18 68.464 17.96 68.336 17.88C68.224 17.8 68.144 17.688 68.096 17.544L62.792 2.18404C62.744 2.05604 62.72 1.96004 62.72 1.89604C62.72 1.65604 62.808 1.47204 62.984 1.34404C63.16 1.21604 63.336 1.15204 63.512 1.15204C63.672 1.15204 63.816 1.19204 63.944 1.27204C64.072 1.35204 64.16 1.46404 64.208 1.60804L69.032 15.672L68.768 15.696L72.944 5.28004C72.992 5.13604 73.072 5.02404 73.184 4.94404C73.312 4.84804 73.456 4.80804 73.616 4.82404C73.776 4.80804 73.912 4.84804 74.024 4.94404C74.152 5.02404 74.248 5.13604 74.312 5.28004L78.44 15.648L78.176 15.744L82.976 1.60804C83.024 1.46404 83.112 1.35204 83.24 1.27204C83.368 1.19204 83.52 1.15204 83.696 1.15204Z" fill="white"/>
<path d="M92.2681 18.24C91.0361 18.24 89.9481 17.976 89.0041 17.448C88.0601 16.92 87.3241 16.184 86.7961 15.24C86.2681 14.296 86.0041 13.192 86.0041 11.928C86.0041 10.568 86.2681 9.40804 86.7961 8.44804C87.3401 7.48804 88.0361 6.75204 88.8841 6.24004C89.7481 5.71204 90.6601 5.44804 91.6201 5.44804C92.3241 5.44804 93.0041 5.57604 93.6601 5.83204C94.3321 6.07204 94.9241 6.44004 95.4361 6.93604C95.9641 7.41604 96.3801 8.00804 96.6841 8.71204C97.0041 9.41604 97.1801 10.232 97.2121 11.16C97.1961 11.352 97.1161 11.52 96.9721 11.664C96.8281 11.792 96.6601 11.856 96.4681 11.856H86.8441L86.5561 10.56H96.0121L95.7001 10.848V10.368C95.6361 9.61604 95.3961 8.97604 94.9801 8.44804C94.5641 7.92004 94.0601 7.52004 93.4681 7.24804C92.8761 6.97604 92.2601 6.84004 91.6201 6.84004C91.1401 6.84004 90.6441 6.93604 90.1321 7.12804C89.6361 7.32004 89.1801 7.62404 88.7641 8.04004C88.3641 8.44004 88.0361 8.96004 87.7801 9.60004C87.5241 10.224 87.3961 10.968 87.3961 11.832C87.3961 12.776 87.5881 13.632 87.9721 14.4C88.3561 15.168 88.9081 15.776 89.6281 16.224C90.3641 16.672 91.2361 16.896 92.2441 16.896C92.8041 16.896 93.3081 16.816 93.7561 16.656C94.2041 16.496 94.5961 16.288 94.9321 16.032C95.2681 15.76 95.5481 15.48 95.7721 15.192C95.9481 15.048 96.1241 14.976 96.3001 14.976C96.4601 14.976 96.5961 15.04 96.7081 15.168C96.8361 15.296 96.9001 15.44 96.9001 15.6C96.9001 15.792 96.8201 15.96 96.6601 16.104C96.1801 16.68 95.5561 17.184 94.7881 17.616C94.0201 18.032 93.1801 18.24 92.2681 18.24Z" fill="white"/>
<path d="M106.126 5.44804C107.214 5.44804 108.174 5.72004 109.006 6.26404C109.854 6.80804 110.526 7.56004 111.022 8.52004C111.518 9.46404 111.766 10.56 111.766 11.808C111.766 13.024 111.518 14.12 111.022 15.096C110.526 16.072 109.854 16.84 109.006 17.4C108.158 17.96 107.206 18.24 106.15 18.24C105.59 18.24 105.054 18.152 104.542 17.976C104.046 17.8 103.59 17.568 103.174 17.28C102.758 16.976 102.39 16.624 102.07 16.224C101.75 15.824 101.494 15.392 101.302 14.928L101.734 14.616V17.328C101.734 17.536 101.662 17.712 101.518 17.856C101.39 17.984 101.222 18.048 101.014 18.048C100.806 18.048 100.63 17.984 100.486 17.856C100.358 17.712 100.294 17.536 100.294 17.328V0.984037C100.294 0.776037 100.358 0.608037 100.486 0.480038C100.614 0.336038 100.79 0.264038 101.014 0.264038C101.222 0.264038 101.39 0.336038 101.518 0.480038C101.662 0.608037 101.734 0.776037 101.734 0.984037V9.02404L101.398 8.83204C101.558 8.33604 101.79 7.88804 102.094 7.48804C102.414 7.07204 102.782 6.71204 103.198 6.40804C103.614 6.10404 104.07 5.87204 104.566 5.71204C105.062 5.53604 105.582 5.44804 106.126 5.44804ZM106.006 6.79204C105.142 6.79204 104.382 7.00804 103.726 7.44004C103.07 7.87204 102.55 8.46404 102.166 9.21604C101.798 9.96804 101.614 10.832 101.614 11.808C101.614 12.768 101.798 13.64 102.166 14.424C102.55 15.192 103.07 15.8 103.726 16.248C104.382 16.68 105.142 16.896 106.006 16.896C106.854 16.896 107.598 16.672 108.238 16.224C108.894 15.776 109.414 15.168 109.798 14.4C110.182 13.616 110.374 12.752 110.374 11.808C110.374 10.832 110.182 9.96804 109.798 9.21604C109.414 8.46404 108.894 7.87204 108.238 7.44004C107.598 7.00804 106.854 6.79204 106.006 6.79204Z" fill="white"/>
<path d="M130.892 16.608C131.084 16.608 131.244 16.68 131.372 16.824C131.516 16.952 131.588 17.112 131.588 17.304C131.588 17.512 131.516 17.68 131.372 17.808C131.244 17.936 131.084 18 130.892 18H121.892C121.684 18 121.5 17.944 121.34 17.832C121.196 17.704 121.124 17.52 121.124 17.28C121.124 17.104 121.188 16.936 121.316 16.776L126.86 10.656C127.74 9.69604 128.396 8.81604 128.828 8.01604C129.276 7.20004 129.5 6.47204 129.5 5.83204C129.5 4.77604 129.18 3.92804 128.54 3.28804C127.9 2.64804 127.036 2.32804 125.948 2.32804C125.452 2.32804 124.956 2.43204 124.46 2.64004C123.98 2.84804 123.548 3.12004 123.164 3.45604C122.796 3.79204 122.508 4.17604 122.3 4.60804C122.204 4.76804 122.1 4.88004 121.988 4.94404C121.892 5.00804 121.78 5.04004 121.652 5.04004C121.46 5.04004 121.292 4.98404 121.148 4.87204C121.004 4.74404 120.932 4.59204 120.932 4.41604C120.932 4.30404 120.956 4.19204 121.004 4.08004C121.068 3.96804 121.156 3.84004 121.268 3.69604C121.556 3.20004 121.956 2.74404 122.468 2.32804C122.98 1.91204 123.548 1.58404 124.172 1.34404C124.812 1.08804 125.436 0.960038 126.044 0.960038C127.068 0.960038 127.948 1.16004 128.684 1.56004C129.436 1.94404 130.012 2.49604 130.412 3.21604C130.828 3.92004 131.036 4.76004 131.036 5.73604C131.036 6.56804 130.772 7.48004 130.244 8.47204C129.732 9.44804 128.964 10.504 127.94 11.64L123.26 16.896L123.02 16.608H130.892Z" fill="white"/>
<path d="M134.893 18C134.621 18 134.413 17.912 134.269 17.736C134.125 17.56 134.053 17.336 134.053 17.064V16.56C134.053 16.272 134.125 16.048 134.269 15.888C134.413 15.728 134.621 15.648 134.893 15.648H135.061C135.333 15.648 135.541 15.728 135.685 15.888C135.829 16.048 135.901 16.272 135.901 16.56V17.064C135.901 17.336 135.829 17.56 135.685 17.736C135.541 17.912 135.333 18 135.061 18H134.893Z" fill="white"/>
<path d="M144.269 18.24C142.989 18.24 141.917 17.856 141.053 17.088C140.189 16.32 139.541 15.288 139.109 13.992C138.677 12.68 138.461 11.216 138.461 9.60004C138.461 7.96804 138.677 6.50404 139.109 5.20804C139.541 3.89604 140.189 2.86404 141.053 2.11204C141.917 1.34404 142.989 0.960038 144.269 0.960038C145.581 0.960038 146.661 1.34404 147.509 2.11204C148.373 2.86404 149.021 3.89604 149.453 5.20804C149.885 6.50404 150.101 7.96804 150.101 9.60004C150.101 11.216 149.885 12.68 149.453 13.992C149.021 15.288 148.373 16.32 147.509 17.088C146.661 17.856 145.581 18.24 144.269 18.24ZM144.269 16.752C145.213 16.752 145.997 16.456 146.621 15.864C147.261 15.272 147.741 14.44 148.061 13.368C148.397 12.28 148.565 11.024 148.565 9.60004C148.565 8.16004 148.397 6.90404 148.061 5.83204C147.741 4.74404 147.261 3.90404 146.621 3.31204C145.997 2.72004 145.213 2.42404 144.269 2.42404C143.341 2.42404 142.557 2.72004 141.917 3.31204C141.293 3.90404 140.813 4.74404 140.477 5.83204C140.157 6.90404 139.997 8.16004 139.997 9.60004C139.997 11.024 140.157 12.28 140.477 13.368C140.813 14.44 141.293 15.272 141.917 15.864C142.557 16.456 143.341 16.752 144.269 16.752Z" fill="white"/>
<path d="M247.745 79.27C247.745 78.48 247.675 77.73 247.555 77H236.255V81.51H242.725C242.435 82.99 241.585 84.24 240.325 85.09V88.09H244.185C246.445 86 247.745 82.92 247.745 79.27Z" fill="#4285F4"/>
<path d="M236.255 91C239.495 91 242.205 89.92 244.185 88.09L240.325 85.09C239.245 85.81 237.875 86.25 236.255 86.25C233.125 86.25 230.475 84.14 229.525 81.29H225.545V84.38C227.515 88.3 231.565 91 236.255 91Z" fill="#34A853"/>
<path d="M229.525 81.29C229.275 80.57 229.145 79.8 229.145 79C229.145 78.2 229.285 77.43 229.525 76.71V73.62H225.545C224.725 75.24 224.255 77.06 224.255 79C224.255 80.94 224.725 82.76 225.545 84.38L229.525 81.29Z" fill="#FBBC05"/>
<path d="M236.255 71.75C238.025 71.75 239.605 72.36 240.855 73.55L244.275 70.13C242.205 68.19 239.495 67 236.255 67C231.565 67 227.515 69.7 225.545 73.62L229.525 76.71C230.475 73.86 233.125 71.75 236.255 71.75Z" fill="#EA4335"/>
<path d="M251 154.5C251 147.044 244.956 141 237.5 141C230.044 141 224 147.044 224 154.5C224 161.956 230.044 168 237.5 168C244.956 168 251 161.956 251 154.5Z" fill="#45619D"/>
<path d="M239.643 144.24C235.983 144.24 234.775 145.919 234.775 148.8V151.079H232.37V154.502H234.775V164.76H239.209V154.502H242.223L242.628 151.079H239.209V149.046C239.209 148.127 239.411 147.661 240.838 147.661H242.628V144.24H239.643Z" fill="white"/>
</svg>
