<svg width="240" height="132" viewBox="0 0 240 132" fill="none" xmlns="http://www.w3.org/2000/svg">
<path d="M0 94C0 90.6863 2.68629 88 6 88H234C237.314 88 240 90.6863 240 94V126C240 129.314 237.314 132 234 132H5.99999C2.68629 132 0 129.314 0 126V94Z" fill="black" fill-opacity="0.35"/>
<path d="M29.1 105.04C29.26 105.147 29.3533 105.287 29.38 105.46C29.4067 105.62 29.3667 105.78 29.26 105.94C29.1667 106.06 29.0467 106.127 28.9 106.14C28.7533 106.153 28.6133 106.127 28.48 106.06C27.9733 105.727 27.4267 105.467 26.84 105.28C26.2667 105.093 25.6467 105 24.98 105C24.1667 105 23.4067 105.147 22.7 105.44C22.0067 105.72 21.4 106.133 20.88 106.68C20.36 107.213 19.9533 107.847 19.66 108.58C19.38 109.313 19.24 110.12 19.24 111C19.24 111.907 19.3867 112.733 19.68 113.48C19.9733 114.213 20.38 114.847 20.9 115.38C21.4333 115.913 22.0467 116.32 22.74 116.6C23.4333 116.88 24.18 117.02 24.98 117.02C25.6333 117.02 26.2467 116.927 26.82 116.74C27.4067 116.553 27.9533 116.3 28.46 115.98C28.5933 115.9 28.7333 115.873 28.88 115.9C29.04 115.913 29.1667 115.987 29.26 116.12C29.38 116.267 29.42 116.427 29.38 116.6C29.3533 116.76 29.2667 116.887 29.12 116.98C28.7867 117.193 28.3933 117.393 27.94 117.58C27.4867 117.767 27.0067 117.913 26.5 118.02C25.9933 118.14 25.4867 118.2 24.98 118.2C24.02 118.2 23.12 118.027 22.28 117.68C21.44 117.333 20.6933 116.847 20.04 116.22C19.3867 115.58 18.8733 114.82 18.5 113.94C18.14 113.06 17.96 112.08 17.96 111C17.96 109.96 18.14 109.007 18.5 108.14C18.86 107.26 19.36 106.5 20 105.86C20.64 105.22 21.3867 104.72 22.24 104.36C23.0933 104 24.0067 103.82 24.98 103.82C25.74 103.82 26.4733 103.927 27.18 104.14C27.8867 104.353 28.5267 104.653 29.1 105.04Z" fill="#DBDBDB"/>
<path d="M41.1664 112.88C41.1664 113.893 40.9464 114.807 40.5064 115.62C40.0664 116.42 39.4664 117.053 38.7064 117.52C37.9464 117.973 37.0797 118.2 36.1064 118.2C35.1597 118.2 34.2997 117.973 33.5264 117.52C32.7664 117.053 32.1597 116.42 31.7064 115.62C31.2664 114.807 31.0464 113.893 31.0464 112.88C31.0464 111.853 31.2664 110.94 31.7064 110.14C32.1597 109.34 32.7664 108.707 33.5264 108.24C34.2997 107.773 35.1597 107.54 36.1064 107.54C37.0797 107.54 37.9464 107.773 38.7064 108.24C39.4664 108.707 40.0664 109.34 40.5064 110.14C40.9464 110.94 41.1664 111.853 41.1664 112.88ZM39.9664 112.88C39.9664 112.067 39.7997 111.347 39.4664 110.72C39.1331 110.08 38.6731 109.58 38.0864 109.22C37.5131 108.847 36.8531 108.66 36.1064 108.66C35.3864 108.66 34.7331 108.847 34.1464 109.22C33.5597 109.58 33.0931 110.08 32.7464 110.72C32.4131 111.347 32.2464 112.067 32.2464 112.88C32.2464 113.693 32.4131 114.413 32.7464 115.04C33.0931 115.667 33.5597 116.167 34.1464 116.54C34.7331 116.9 35.3864 117.08 36.1064 117.08C36.8531 117.08 37.5131 116.9 38.0864 116.54C38.6731 116.167 39.1331 115.667 39.4664 115.04C39.7997 114.413 39.9664 113.693 39.9664 112.88Z" fill="#DBDBDB"/>
<path d="M48.5367 107.54C49.4167 107.54 50.1167 107.72 50.6367 108.08C51.1701 108.427 51.5501 108.907 51.7767 109.52C52.0167 110.12 52.1367 110.787 52.1367 111.52V117.4C52.1367 117.56 52.0767 117.7 51.9567 117.82C51.8367 117.94 51.6967 118 51.5367 118C51.3501 118 51.2034 117.94 51.0967 117.82C50.9901 117.7 50.9367 117.56 50.9367 117.4V111.58C50.9367 111.047 50.8501 110.56 50.6767 110.12C50.5034 109.68 50.2167 109.327 49.8167 109.06C49.4301 108.793 48.9167 108.66 48.2767 108.66C47.7034 108.66 47.1567 108.793 46.6367 109.06C46.1301 109.327 45.7167 109.68 45.3967 110.12C45.0767 110.56 44.9167 111.047 44.9167 111.58V117.4C44.9167 117.56 44.8567 117.7 44.7367 117.82C44.6167 117.94 44.4767 118 44.3167 118C44.1301 118 43.9834 117.94 43.8767 117.82C43.7701 117.7 43.7167 117.56 43.7167 117.4V108.44C43.7167 108.28 43.7701 108.14 43.8767 108.02C43.9967 107.9 44.1434 107.84 44.3167 107.84C44.4901 107.84 44.6301 107.9 44.7367 108.02C44.8567 108.14 44.9167 108.28 44.9167 108.44V110.12L44.4567 110.84C44.4834 110.413 44.6167 110.007 44.8567 109.62C45.1101 109.22 45.4301 108.867 45.8167 108.56C46.2034 108.24 46.6301 107.993 47.0967 107.82C47.5767 107.633 48.0567 107.54 48.5367 107.54Z" fill="#DBDBDB"/>
<path d="M60.0992 107.54C60.9792 107.54 61.6792 107.72 62.1992 108.08C62.7326 108.427 63.1126 108.907 63.3392 109.52C63.5792 110.12 63.6992 110.787 63.6992 111.52V117.4C63.6992 117.56 63.6392 117.7 63.5192 117.82C63.3992 117.94 63.2592 118 63.0992 118C62.9126 118 62.7659 117.94 62.6592 117.82C62.5526 117.7 62.4992 117.56 62.4992 117.4V111.58C62.4992 111.047 62.4126 110.56 62.2392 110.12C62.0659 109.68 61.7792 109.327 61.3792 109.06C60.9926 108.793 60.4792 108.66 59.8392 108.66C59.2659 108.66 58.7192 108.793 58.1992 109.06C57.6926 109.327 57.2792 109.68 56.9592 110.12C56.6392 110.56 56.4792 111.047 56.4792 111.58V117.4C56.4792 117.56 56.4192 117.7 56.2992 117.82C56.1792 117.94 56.0392 118 55.8792 118C55.6926 118 55.5459 117.94 55.4392 117.82C55.3326 117.7 55.2792 117.56 55.2792 117.4V108.44C55.2792 108.28 55.3326 108.14 55.4392 108.02C55.5592 107.9 55.7059 107.84 55.8792 107.84C56.0526 107.84 56.1926 107.9 56.2992 108.02C56.4192 108.14 56.4792 108.28 56.4792 108.44V110.12L56.0192 110.84C56.0459 110.413 56.1792 110.007 56.4192 109.62C56.6726 109.22 56.9926 108.867 57.3792 108.56C57.7659 108.24 58.1926 107.993 58.6592 107.82C59.1392 107.633 59.6192 107.54 60.0992 107.54Z" fill="#DBDBDB"/>
<path d="M71.4617 118.2C70.4351 118.2 69.5284 117.98 68.7417 117.54C67.9551 117.1 67.3417 116.487 66.9017 115.7C66.4617 114.913 66.2417 113.993 66.2417 112.94C66.2417 111.807 66.4617 110.84 66.9017 110.04C67.355 109.24 67.9351 108.627 68.6417 108.2C69.3617 107.76 70.1217 107.54 70.9217 107.54C71.5084 107.54 72.0751 107.647 72.6217 107.86C73.1817 108.06 73.6751 108.367 74.1017 108.78C74.5417 109.18 74.8884 109.673 75.1417 110.26C75.4084 110.847 75.5551 111.527 75.5817 112.3C75.5684 112.46 75.5017 112.6 75.3817 112.72C75.2617 112.827 75.1217 112.88 74.9617 112.88H66.9417L66.7017 111.8H74.5817L74.3217 112.04V111.64C74.2684 111.013 74.0684 110.48 73.7217 110.04C73.3751 109.6 72.955 109.267 72.4617 109.04C71.9684 108.813 71.4551 108.7 70.9217 108.7C70.5217 108.7 70.1084 108.78 69.6817 108.94C69.2684 109.1 68.8884 109.353 68.5417 109.7C68.2084 110.033 67.9351 110.467 67.7217 111C67.5084 111.52 67.4017 112.14 67.4017 112.86C67.4017 113.647 67.5617 114.36 67.8817 115C68.2017 115.64 68.6617 116.147 69.2617 116.52C69.8751 116.893 70.6017 117.08 71.4417 117.08C71.9084 117.08 72.3284 117.013 72.7017 116.88C73.0751 116.747 73.4017 116.573 73.6817 116.36C73.9617 116.133 74.1951 115.9 74.3817 115.66C74.5284 115.54 74.675 115.48 74.8217 115.48C74.955 115.48 75.0684 115.533 75.1617 115.64C75.2684 115.747 75.3217 115.867 75.3217 116C75.3217 116.16 75.2551 116.3 75.1217 116.42C74.7217 116.9 74.2017 117.32 73.5617 117.68C72.9217 118.027 72.2217 118.2 71.4617 118.2Z" fill="#DBDBDB"/>
<path d="M82.6503 107.54C83.2903 107.54 83.877 107.613 84.4103 107.76C84.9436 107.893 85.3703 108.08 85.6903 108.32C86.0237 108.56 86.1903 108.82 86.1903 109.1C86.1903 109.233 86.1436 109.367 86.0503 109.5C85.957 109.62 85.8303 109.68 85.6703 109.68C85.5103 109.68 85.377 109.64 85.2703 109.56C85.177 109.48 85.077 109.387 84.9703 109.28C84.877 109.173 84.737 109.073 84.5503 108.98C84.377 108.9 84.1303 108.827 83.8103 108.76C83.4903 108.693 83.1236 108.66 82.7103 108.66C81.9636 108.66 81.2903 108.847 80.6903 109.22C80.0903 109.593 79.617 110.1 79.2703 110.74C78.9236 111.367 78.7503 112.073 78.7503 112.86C78.7503 113.66 78.917 114.38 79.2503 115.02C79.5836 115.66 80.0436 116.167 80.6303 116.54C81.217 116.9 81.9036 117.08 82.6903 117.08C83.2236 117.08 83.637 117.033 83.9303 116.94C84.2236 116.847 84.477 116.74 84.6903 116.62C84.9436 116.473 85.1236 116.333 85.2303 116.2C85.3503 116.053 85.5036 115.98 85.6903 115.98C85.8636 115.98 85.9903 116.033 86.0703 116.14C86.1636 116.233 86.2103 116.36 86.2103 116.52C86.2103 116.733 86.0503 116.973 85.7303 117.24C85.4237 117.493 84.997 117.72 84.4503 117.92C83.9036 118.107 83.277 118.2 82.5703 118.2C81.5703 118.2 80.6903 117.967 79.9303 117.5C79.1836 117.033 78.597 116.4 78.1703 115.6C77.757 114.787 77.5503 113.873 77.5503 112.86C77.5503 111.887 77.7636 111 78.1903 110.2C78.617 109.4 79.2103 108.76 79.9703 108.28C80.7436 107.787 81.637 107.54 82.6503 107.54Z" fill="#DBDBDB"/>
<path d="M87.8419 107.82H92.5019C92.6619 107.82 92.7952 107.88 92.9019 108C93.0085 108.107 93.0619 108.24 93.0619 108.4C93.0619 108.547 93.0085 108.673 92.9019 108.78C92.7952 108.887 92.6619 108.94 92.5019 108.94H87.8419C87.6819 108.94 87.5419 108.887 87.4219 108.78C87.3152 108.66 87.2619 108.527 87.2619 108.38C87.2619 108.22 87.3152 108.087 87.4219 107.98C87.5419 107.873 87.6819 107.82 87.8419 107.82ZM89.9019 105C90.0752 105 90.2152 105.06 90.3219 105.18C90.4419 105.3 90.5019 105.44 90.5019 105.6V115.64C90.5019 116.013 90.5485 116.293 90.6419 116.48C90.7485 116.667 90.8819 116.793 91.0419 116.86C91.2019 116.913 91.3619 116.94 91.5219 116.94C91.6285 116.94 91.7219 116.927 91.8019 116.9C91.8952 116.86 91.9952 116.84 92.1019 116.84C92.2219 116.84 92.3219 116.887 92.4019 116.98C92.4952 117.073 92.5419 117.193 92.5419 117.34C92.5419 117.527 92.4352 117.687 92.2219 117.82C92.0085 117.94 91.7552 118 91.4619 118C91.3419 118 91.1619 117.993 90.9219 117.98C90.6819 117.953 90.4352 117.88 90.1819 117.76C89.9285 117.627 89.7152 117.4 89.5419 117.08C89.3819 116.76 89.3019 116.3 89.3019 115.7V105.6C89.3019 105.44 89.3552 105.3 89.4619 105.18C89.5819 105.06 89.7285 105 89.9019 105Z" fill="#DBDBDB"/>
<path d="M112.888 107.56C113.035 107.56 113.168 107.613 113.288 107.72C113.421 107.827 113.488 107.973 113.488 108.16C113.488 108.2 113.481 108.247 113.468 108.3C113.455 108.353 113.441 108.393 113.428 108.42L110.348 117.62C110.295 117.74 110.208 117.84 110.088 117.92C109.981 117.987 109.868 118.013 109.748 118C109.508 117.987 109.328 117.86 109.208 117.62L106.388 110.98L106.748 111.06L104.248 117.62C104.141 117.86 103.961 117.987 103.708 118C103.588 118.013 103.468 117.987 103.348 117.92C103.228 117.84 103.148 117.74 103.108 117.62L99.948 108.42C99.908 108.327 99.888 108.24 99.888 108.16C99.888 107.987 99.9413 107.847 100.048 107.74C100.168 107.62 100.321 107.56 100.508 107.56C100.628 107.56 100.735 107.593 100.828 107.66C100.935 107.727 101.008 107.827 101.048 107.96L103.888 116.48L103.508 116.46L106.088 109.96C106.195 109.707 106.381 109.58 106.648 109.58C106.781 109.58 106.895 109.613 106.988 109.68C107.081 109.747 107.155 109.84 107.208 109.96L109.948 116.48L109.508 116.5L112.328 107.96C112.408 107.693 112.595 107.56 112.888 107.56Z" fill="#DBDBDB"/>
<path d="M116.947 117.4C116.947 117.56 116.887 117.7 116.767 117.82C116.647 117.94 116.507 118 116.347 118C116.174 118 116.027 117.94 115.907 117.82C115.8 117.7 115.747 117.56 115.747 117.4V108.2C115.747 108.04 115.8 107.9 115.907 107.78C116.027 107.66 116.174 107.6 116.347 107.6C116.52 107.6 116.66 107.66 116.767 107.78C116.887 107.9 116.947 108.04 116.947 108.2V117.4ZM116.347 106.26C116.067 106.26 115.854 106.2 115.707 106.08C115.574 105.947 115.507 105.76 115.507 105.52V105.32C115.507 105.08 115.58 104.9 115.727 104.78C115.887 104.647 116.1 104.58 116.367 104.58C116.62 104.58 116.814 104.647 116.947 104.78C117.094 104.9 117.167 105.08 117.167 105.32V105.52C117.167 105.76 117.094 105.947 116.947 106.08C116.814 106.2 116.614 106.26 116.347 106.26Z" fill="#DBDBDB"/>
<path d="M119.404 107.82H124.064C124.224 107.82 124.358 107.88 124.464 108C124.571 108.107 124.624 108.24 124.624 108.4C124.624 108.547 124.571 108.673 124.464 108.78C124.358 108.887 124.224 108.94 124.064 108.94H119.404C119.244 108.94 119.104 108.887 118.984 108.78C118.878 108.66 118.824 108.527 118.824 108.38C118.824 108.22 118.878 108.087 118.984 107.98C119.104 107.873 119.244 107.82 119.404 107.82ZM121.464 105C121.638 105 121.778 105.06 121.884 105.18C122.004 105.3 122.064 105.44 122.064 105.6V115.64C122.064 116.013 122.111 116.293 122.204 116.48C122.311 116.667 122.444 116.793 122.604 116.86C122.764 116.913 122.924 116.94 123.084 116.94C123.191 116.94 123.284 116.927 123.364 116.9C123.458 116.86 123.558 116.84 123.664 116.84C123.784 116.84 123.884 116.887 123.964 116.98C124.058 117.073 124.104 117.193 124.104 117.34C124.104 117.527 123.998 117.687 123.784 117.82C123.571 117.94 123.318 118 123.024 118C122.904 118 122.724 117.993 122.484 117.98C122.244 117.953 121.998 117.88 121.744 117.76C121.491 117.627 121.278 117.4 121.104 117.08C120.944 116.76 120.864 116.3 120.864 115.7V105.6C120.864 105.44 120.918 105.3 121.024 105.18C121.144 105.06 121.291 105 121.464 105Z" fill="#DBDBDB"/>
<path d="M131.502 107.7C132.342 107.7 133.022 107.88 133.542 108.24C134.062 108.6 134.442 109.087 134.682 109.7C134.935 110.313 135.062 110.993 135.062 111.74V117.4C135.062 117.56 135.002 117.7 134.882 117.82C134.762 117.94 134.622 118 134.462 118C134.275 118 134.128 117.94 134.022 117.82C133.915 117.7 133.862 117.56 133.862 117.4V111.74C133.862 111.193 133.775 110.7 133.602 110.26C133.442 109.82 133.175 109.473 132.802 109.22C132.428 108.953 131.928 108.82 131.302 108.82C130.742 108.82 130.208 108.953 129.702 109.22C129.208 109.473 128.808 109.82 128.502 110.26C128.195 110.7 128.042 111.193 128.042 111.74V117.4C128.042 117.56 127.982 117.7 127.862 117.82C127.742 117.94 127.602 118 127.442 118C127.255 118 127.108 117.94 127.002 117.82C126.895 117.7 126.842 117.56 126.842 117.4V103.8C126.842 103.64 126.895 103.5 127.002 103.38C127.122 103.26 127.268 103.2 127.442 103.2C127.615 103.2 127.755 103.26 127.862 103.38C127.982 103.5 128.042 103.64 128.042 103.8V110.28L127.582 110.98C127.608 110.567 127.735 110.167 127.962 109.78C128.202 109.38 128.508 109.027 128.882 108.72C129.255 108.4 129.668 108.153 130.122 107.98C130.575 107.793 131.035 107.7 131.502 107.7Z" fill="#DBDBDB"/>
<path d="M155.818 107.56C155.964 107.56 156.098 107.613 156.218 107.72C156.351 107.827 156.418 107.973 156.418 108.16C156.418 108.2 156.411 108.247 156.398 108.3C156.384 108.353 156.371 108.393 156.358 108.42L153.278 117.62C153.224 117.74 153.138 117.84 153.018 117.92C152.911 117.987 152.798 118.013 152.678 118C152.438 117.987 152.258 117.86 152.138 117.62L149.318 110.98L149.678 111.06L147.178 117.62C147.071 117.86 146.891 117.987 146.638 118C146.518 118.013 146.398 117.987 146.278 117.92C146.158 117.84 146.078 117.74 146.038 117.62L142.878 108.42C142.838 108.327 142.818 108.24 142.818 108.16C142.818 107.987 142.871 107.847 142.978 107.74C143.098 107.62 143.251 107.56 143.438 107.56C143.558 107.56 143.664 107.593 143.758 107.66C143.864 107.727 143.938 107.827 143.978 107.96L146.818 116.48L146.438 116.46L149.018 109.96C149.124 109.707 149.311 109.58 149.578 109.58C149.711 109.58 149.824 109.613 149.918 109.68C150.011 109.747 150.084 109.84 150.138 109.96L152.878 116.48L152.438 116.5L155.258 107.96C155.338 107.693 155.524 107.56 155.818 107.56Z" fill="#DBDBDB"/>
<path d="M167.175 107.78C167.348 107.78 167.488 107.84 167.595 107.96C167.715 108.08 167.775 108.227 167.775 108.4V117.4C167.775 117.56 167.715 117.7 167.595 117.82C167.475 117.94 167.335 118 167.175 118C167.002 118 166.855 117.94 166.735 117.82C166.628 117.7 166.575 117.56 166.575 117.4V115.02L166.915 114.86C166.915 115.233 166.808 115.613 166.595 116C166.395 116.387 166.115 116.747 165.755 117.08C165.395 117.413 164.968 117.687 164.475 117.9C163.995 118.1 163.475 118.2 162.915 118.2C162.008 118.2 161.195 117.967 160.475 117.5C159.768 117.033 159.208 116.393 158.795 115.58C158.395 114.767 158.195 113.853 158.195 112.84C158.195 111.8 158.402 110.887 158.815 110.1C159.228 109.3 159.788 108.673 160.495 108.22C161.202 107.767 162.002 107.54 162.895 107.54C163.468 107.54 164.002 107.64 164.495 107.84C165.002 108.04 165.442 108.313 165.815 108.66C166.188 109.007 166.475 109.407 166.675 109.86C166.888 110.3 166.995 110.76 166.995 111.24L166.575 110.94V108.4C166.575 108.227 166.628 108.08 166.735 107.96C166.855 107.84 167.002 107.78 167.175 107.78ZM163.015 117.08C163.722 117.08 164.348 116.9 164.895 116.54C165.441 116.167 165.868 115.66 166.175 115.02C166.495 114.367 166.655 113.64 166.655 112.84C166.655 112.053 166.495 111.347 166.175 110.72C165.868 110.093 165.441 109.593 164.895 109.22C164.348 108.847 163.722 108.66 163.015 108.66C162.322 108.66 161.695 108.84 161.135 109.2C160.588 109.56 160.155 110.053 159.835 110.68C159.528 111.307 159.375 112.027 159.375 112.84C159.375 113.64 159.528 114.367 159.835 115.02C160.155 115.66 160.588 116.167 161.135 116.54C161.682 116.9 162.308 117.08 163.015 117.08Z" fill="#DBDBDB"/>
<path d="M172.244 117.4C172.244 117.56 172.184 117.7 172.064 117.82C171.944 117.94 171.804 118 171.644 118C171.47 118 171.324 117.94 171.204 117.82C171.097 117.7 171.044 117.56 171.044 117.4V103.8C171.044 103.64 171.104 103.5 171.224 103.38C171.344 103.26 171.484 103.2 171.644 103.2C171.817 103.2 171.957 103.26 172.064 103.38C172.184 103.5 172.244 103.64 172.244 103.8V117.4Z" fill="#DBDBDB"/>
<path d="M176.853 117.4C176.853 117.56 176.793 117.7 176.673 117.82C176.553 117.94 176.413 118 176.253 118C176.08 118 175.933 117.94 175.813 117.82C175.706 117.7 175.653 117.56 175.653 117.4V103.8C175.653 103.64 175.713 103.5 175.833 103.38C175.953 103.26 176.093 103.2 176.253 103.2C176.426 103.2 176.566 103.26 176.673 103.38C176.793 103.5 176.853 103.64 176.853 103.8V117.4Z" fill="#DBDBDB"/>
<path d="M184.567 118.2C183.541 118.2 182.634 117.98 181.847 117.54C181.061 117.1 180.447 116.487 180.007 115.7C179.567 114.913 179.347 113.993 179.347 112.94C179.347 111.807 179.567 110.84 180.007 110.04C180.461 109.24 181.041 108.627 181.747 108.2C182.467 107.76 183.227 107.54 184.027 107.54C184.614 107.54 185.181 107.647 185.727 107.86C186.287 108.06 186.781 108.367 187.207 108.78C187.647 109.18 187.994 109.673 188.247 110.26C188.514 110.847 188.661 111.527 188.687 112.3C188.674 112.46 188.607 112.6 188.487 112.72C188.367 112.827 188.227 112.88 188.067 112.88H180.047L179.807 111.8H187.687L187.427 112.04V111.64C187.374 111.013 187.174 110.48 186.827 110.04C186.481 109.6 186.061 109.267 185.567 109.04C185.074 108.813 184.561 108.7 184.027 108.7C183.627 108.7 183.214 108.78 182.787 108.94C182.374 109.1 181.994 109.353 181.647 109.7C181.314 110.033 181.041 110.467 180.827 111C180.614 111.52 180.507 112.14 180.507 112.86C180.507 113.647 180.667 114.36 180.987 115C181.307 115.64 181.767 116.147 182.367 116.52C182.981 116.893 183.707 117.08 184.547 117.08C185.014 117.08 185.434 117.013 185.807 116.88C186.181 116.747 186.507 116.573 186.787 116.36C187.067 116.133 187.301 115.9 187.487 115.66C187.634 115.54 187.781 115.48 187.927 115.48C188.061 115.48 188.174 115.533 188.267 115.64C188.374 115.747 188.427 115.867 188.427 116C188.427 116.16 188.361 116.3 188.227 116.42C187.827 116.9 187.307 117.32 186.667 117.68C186.027 118.027 185.327 118.2 184.567 118.2Z" fill="#DBDBDB"/>
<path d="M190.596 107.82H195.256C195.416 107.82 195.549 107.88 195.656 108C195.762 108.107 195.816 108.24 195.816 108.4C195.816 108.547 195.762 108.673 195.656 108.78C195.549 108.887 195.416 108.94 195.256 108.94H190.596C190.436 108.94 190.296 108.887 190.176 108.78C190.069 108.66 190.016 108.527 190.016 108.38C190.016 108.22 190.069 108.087 190.176 107.98C190.296 107.873 190.436 107.82 190.596 107.82ZM192.656 105C192.829 105 192.969 105.06 193.076 105.18C193.196 105.3 193.256 105.44 193.256 105.6V115.64C193.256 116.013 193.302 116.293 193.396 116.48C193.502 116.667 193.636 116.793 193.796 116.86C193.956 116.913 194.116 116.94 194.276 116.94C194.382 116.94 194.476 116.927 194.556 116.9C194.649 116.86 194.749 116.84 194.856 116.84C194.976 116.84 195.076 116.887 195.156 116.98C195.249 117.073 195.296 117.193 195.296 117.34C195.296 117.527 195.189 117.687 194.976 117.82C194.762 117.94 194.509 118 194.216 118C194.096 118 193.916 117.993 193.676 117.98C193.436 117.953 193.189 117.88 192.936 117.76C192.682 117.627 192.469 117.4 192.296 117.08C192.136 116.76 192.056 116.3 192.056 115.7V105.6C192.056 105.44 192.109 105.3 192.216 105.18C192.336 105.06 192.482 105 192.656 105Z" fill="#DBDBDB"/>
<path d="M88.696 1.15204C88.904 1.15204 89.08 1.21604 89.224 1.34404C89.384 1.45604 89.464 1.63204 89.464 1.87204C89.464 1.95204 89.448 2.05604 89.416 2.18404L84.112 17.544C84.064 17.688 83.976 17.8 83.848 17.88C83.72 17.96 83.592 18 83.464 18C83.304 18 83.16 17.968 83.032 17.904C82.904 17.824 82.808 17.704 82.744 17.544L78.496 7.03204L78.688 7.08004L74.44 17.544C74.376 17.704 74.272 17.824 74.128 17.904C74 17.968 73.864 18 73.72 18C73.592 18 73.464 17.96 73.336 17.88C73.224 17.8 73.144 17.688 73.096 17.544L67.792 2.18404C67.744 2.05604 67.72 1.96004 67.72 1.89604C67.72 1.65604 67.808 1.47204 67.984 1.34404C68.16 1.21604 68.336 1.15204 68.512 1.15204C68.672 1.15204 68.816 1.19204 68.944 1.27204C69.072 1.35204 69.16 1.46404 69.208 1.60804L74.032 15.672L73.768 15.696L77.944 5.28004C77.992 5.13604 78.072 5.02404 78.184 4.94404C78.312 4.84804 78.456 4.80804 78.616 4.82404C78.776 4.80804 78.912 4.84804 79.024 4.94404C79.152 5.02404 79.248 5.13604 79.312 5.28004L83.44 15.648L83.176 15.744L87.976 1.60804C88.024 1.46404 88.112 1.35204 88.24 1.27204C88.368 1.19204 88.52 1.15204 88.696 1.15204Z" fill="white"/>
<path d="M97.2681 18.24C96.0361 18.24 94.9481 17.976 94.0041 17.448C93.0601 16.92 92.3241 16.184 91.7961 15.24C91.2681 14.296 91.0041 13.192 91.0041 11.928C91.0041 10.568 91.2681 9.40804 91.7961 8.44804C92.3401 7.48804 93.0361 6.75204 93.8841 6.24004C94.7481 5.71204 95.6601 5.44804 96.6201 5.44804C97.3241 5.44804 98.0041 5.57604 98.6601 5.83204C99.3321 6.07204 99.9241 6.44004 100.436 6.93604C100.964 7.41604 101.38 8.00804 101.684 8.71204C102.004 9.41604 102.18 10.232 102.212 11.16C102.196 11.352 102.116 11.52 101.972 11.664C101.828 11.792 101.66 11.856 101.468 11.856H91.8441L91.5561 10.56H101.012L100.7 10.848V10.368C100.636 9.61604 100.396 8.97604 99.9801 8.44804C99.5641 7.92004 99.0601 7.52004 98.4681 7.24804C97.8761 6.97604 97.2601 6.84004 96.6201 6.84004C96.1401 6.84004 95.6441 6.93604 95.1321 7.12804C94.6361 7.32004 94.1801 7.62404 93.7641 8.04004C93.3641 8.44004 93.0361 8.96004 92.7801 9.60004C92.5241 10.224 92.3961 10.968 92.3961 11.832C92.3961 12.776 92.5881 13.632 92.9721 14.4C93.3561 15.168 93.9081 15.776 94.6281 16.224C95.3641 16.672 96.2361 16.896 97.2441 16.896C97.8041 16.896 98.3081 16.816 98.7561 16.656C99.2041 16.496 99.5961 16.288 99.9321 16.032C100.268 15.76 100.548 15.48 100.772 15.192C100.948 15.048 101.124 14.976 101.3 14.976C101.46 14.976 101.596 15.04 101.708 15.168C101.836 15.296 101.9 15.44 101.9 15.6C101.9 15.792 101.82 15.96 101.66 16.104C101.18 16.68 100.556 17.184 99.7881 17.616C99.0201 18.032 98.1801 18.24 97.2681 18.24Z" fill="white"/>
<path d="M111.126 5.44804C112.214 5.44804 113.174 5.72004 114.006 6.26404C114.854 6.80804 115.526 7.56004 116.022 8.52004C116.518 9.46404 116.766 10.56 116.766 11.808C116.766 13.024 116.518 14.12 116.022 15.096C115.526 16.072 114.854 16.84 114.006 17.4C113.158 17.96 112.206 18.24 111.15 18.24C110.59 18.24 110.054 18.152 109.542 17.976C109.046 17.8 108.59 17.568 108.174 17.28C107.758 16.976 107.39 16.624 107.07 16.224C106.75 15.824 106.494 15.392 106.302 14.928L106.734 14.616V17.328C106.734 17.536 106.662 17.712 106.518 17.856C106.39 17.984 106.222 18.048 106.014 18.048C105.806 18.048 105.63 17.984 105.486 17.856C105.358 17.712 105.294 17.536 105.294 17.328V0.984037C105.294 0.776037 105.358 0.608037 105.486 0.480038C105.614 0.336038 105.79 0.264038 106.014 0.264038C106.222 0.264038 106.39 0.336038 106.518 0.480038C106.662 0.608037 106.734 0.776037 106.734 0.984037V9.02404L106.398 8.83204C106.558 8.33604 106.79 7.88804 107.094 7.48804C107.414 7.07204 107.782 6.71204 108.198 6.40804C108.614 6.10404 109.07 5.87204 109.566 5.71204C110.062 5.53604 110.582 5.44804 111.126 5.44804ZM111.006 6.79204C110.142 6.79204 109.382 7.00804 108.726 7.44004C108.07 7.87204 107.55 8.46404 107.166 9.21604C106.798 9.96804 106.614 10.832 106.614 11.808C106.614 12.768 106.798 13.64 107.166 14.424C107.55 15.192 108.07 15.8 108.726 16.248C109.382 16.68 110.142 16.896 111.006 16.896C111.854 16.896 112.598 16.672 113.238 16.224C113.894 15.776 114.414 15.168 114.798 14.4C115.182 13.616 115.374 12.752 115.374 11.808C115.374 10.832 115.182 9.96804 114.798 9.21604C114.414 8.46404 113.894 7.87204 113.238 7.44004C112.598 7.00804 111.854 6.79204 111.006 6.79204Z" fill="white"/>
<path d="M126.652 15.528C126.732 15.528 126.812 15.544 126.892 15.576C126.988 15.608 127.1 15.68 127.228 15.792C127.564 16.144 127.964 16.416 128.428 16.608C128.892 16.784 129.42 16.872 130.012 16.872C130.796 16.872 131.508 16.696 132.148 16.344C132.804 15.992 133.324 15.504 133.708 14.88C134.092 14.24 134.284 13.512 134.284 12.696C134.284 11.768 134.076 11.024 133.66 10.464C133.26 9.88804 132.74 9.46404 132.1 9.19204C131.476 8.90404 130.836 8.76004 130.18 8.76004C130.004 8.76004 129.828 8.77604 129.652 8.80804C129.492 8.82404 129.34 8.84804 129.196 8.88004C129.052 8.91204 128.94 8.92804 128.86 8.92804C128.652 8.92804 128.492 8.86404 128.38 8.73604C128.268 8.59204 128.212 8.41604 128.212 8.20804C128.212 8.09604 128.236 8.00004 128.284 7.92004C128.332 7.82404 128.396 7.72004 128.476 7.60804L133.348 2.30404L133.636 2.68804H126.364C126.172 2.68804 126.004 2.62404 125.86 2.49604C125.732 2.35204 125.668 2.18404 125.668 1.99204C125.668 1.80004 125.732 1.64004 125.86 1.51204C126.004 1.38404 126.172 1.32004 126.364 1.32004H134.428C134.7 1.32004 134.892 1.40804 135.004 1.58404C135.116 1.74404 135.172 1.90404 135.172 2.06404C135.172 2.16004 135.148 2.25604 135.1 2.35204C135.052 2.43204 134.988 2.52004 134.908 2.61604L130.036 7.92004L129.508 7.60804C129.556 7.56004 129.716 7.51204 129.988 7.46404C130.276 7.40004 130.5 7.36804 130.66 7.36804C131.54 7.36804 132.364 7.57604 133.132 7.99204C133.916 8.40804 134.548 9.00804 135.028 9.79204C135.524 10.56 135.772 11.512 135.772 12.648C135.772 13.768 135.508 14.752 134.98 15.6C134.452 16.432 133.74 17.08 132.844 17.544C131.948 18.008 130.956 18.24 129.868 18.24C129.212 18.24 128.564 18.128 127.924 17.904C127.284 17.68 126.724 17.344 126.244 16.896C126.132 16.8 126.052 16.704 126.004 16.608C125.956 16.512 125.932 16.416 125.932 16.32C125.932 16.128 125.996 15.952 126.124 15.792C126.268 15.616 126.444 15.528 126.652 15.528Z" fill="white"/>
</svg>
